/* XPM */
static char * address_xpm[] = {
"40 40 186 2",
"  	c None",
". 	c #849CA5",
"+ 	c #63737B",
"@ 	c #4A4A52",
"# 	c #313131",
"$ 	c #181821",
"% 	c #212121",
"& 	c #424A52",
"* 	c #5A6B7B",
"= 	c #638CA5",
"- 	c #737B84",
"; 	c #080808",
"> 	c #000000",
", 	c #5A5A5A",
"' 	c #182121",
") 	c #101010",
"! 	c #212931",
"~ 	c #296384",
"{ 	c #007BA5",
"] 	c #0084AD",
"^ 	c #008CBD",
"/ 	c #0094BD",
"( 	c #0084B5",
"_ 	c #006B8C",
": 	c #184A63",
"< 	c #636363",
"[ 	c #D6D6D6",
"} 	c #FFFFFF",
"| 	c #C6E7F7",
"1 	c #009CD6",
"2 	c #008CB5",
"3 	c #103142",
"4 	c #000810",
"5 	c #425A6B",
"6 	c #213142",
"7 	c #A5D6EF",
"8 	c #FFFFF7",
"9 	c #7B9CCE",
"0 	c #2984BD",
"a 	c #108CB5",
"b 	c #00739C",
"c 	c #007394",
"d 	c #005A7B",
"e 	c #082939",
"f 	c #001010",
"g 	c #081821",
"h 	c #18394A",
"i 	c #6BADD6",
"j 	c #9CCEEF",
"k 	c #398CBD",
"l 	c #5284BD",
"m 	c #217BB5",
"n 	c #317BBD",
"o 	c #3184BD",
"p 	c #006B94",
"q 	c #006384",
"r 	c #00425A",
"s 	c #002129",
"t 	c #002931",
"u 	c #000008",
"v 	c #08394A",
"w 	c #5A636B",
"x 	c #0094C6",
"y 	c #0073B5",
"z 	c #5A94C6",
"A 	c #187BBD",
"B 	c #2973B5",
"C 	c #002942",
"D 	c #003142",
"E 	c #001018",
"F 	c #00526B",
"G 	c #D6E7F7",
"H 	c #FFF7F7",
"I 	c #ADC6DE",
"J 	c #73A5CE",
"K 	c #428CC6",
"L 	c #428CBD",
"M 	c #217BBD",
"N 	c #007B9C",
"O 	c #004A63",
"P 	c #004252",
"Q 	c #00314A",
"R 	c #F7F7F7",
"S 	c #BDD6DE",
"T 	c #ADBDDE",
"U 	c #4284BD",
"V 	c #528CC6",
"W 	c #005A84",
"X 	c #004A6B",
"Y 	c #003952",
"Z 	c #001821",
"` 	c #525A5A",
" .	c #314252",
"..	c #009CCE",
"+.	c #CED6E7",
"@.	c #F7EFF7",
"#.	c #A5C6D6",
"$.	c #94A5D6",
"%.	c #6B9CC6",
"&.	c #4A8CC6",
"*.	c #002131",
"=.	c #215A73",
"-.	c #C6D6E7",
";.	c #849CCE",
">.	c #007BB5",
",.	c #6B94CE",
"'.	c #107BBD",
").	c #29424A",
"!.	c #D6DEEF",
"~.	c #8CA5D6",
"{.	c #739CCE",
"].	c #004A5A",
"^.	c #087BB5",
"/.	c #C6D6DE",
"(.	c #E7E7EF",
"_.	c #6394C6",
":.	c #2184BD",
"<.	c #002939",
"[.	c #081018",
"}.	c #082131",
"|.	c #0073BD",
"1.	c #424A4A",
"2.	c #082129",
"3.	c #293131",
"4.	c #29637B",
"5.	c #181818",
"6.	c #213139",
"7.	c #EFEFF7",
"8.	c #315A73",
"9.	c #6BA5C6",
"0.	c #101818",
"a.	c #292121",
"b.	c #396B7B",
"c.	c #84ADCE",
"d.	c #397B9C",
"e.	c #008CCE",
"f.	c #218CBD",
"g.	c #94B5D6",
"h.	c #9CB5C6",
"i.	c #00A5DE",
"j.	c #BDCEE7",
"k.	c #9CB5CE",
"l.	c #00B5EF",
"m.	c #4A9CBD",
"n.	c #001021",
"o.	c #63BDE7",
"p.	c #D6E7E7",
"q.	c #316B84",
"r.	c #101018",
"s.	c #73BDE7",
"t.	c #7BADCE",
"u.	c #84A5B5",
"v.	c #8CADC6",
"w.	c #5A84A5",
"x.	c #ADBDC6",
"y.	c #D6D6DE",
"z.	c #ADDEF7",
"A.	c #A5C6DE",
"B.	c #639CC6",
"C.	c #848484",
"D.	c #6B7B84",
"E.	c #E7E7DE",
"F.	c #6B6B6B",
"G.	c #9CA5AD",
"H.	c #E7F7FF",
"I.	c #9CC6DE",
"J.	c #10394A",
"K.	c #A59C9C",
"L.	c #DED6D6",
"M.	c #CEDEE7",
"N.	c #ADA5A5",
"O.	c #8C9494",
"P.	c #006B9C",
"Q.	c #184252",
"R.	c #4A6373",
"S.	c #5AADD6",
"T.	c #8CC6EF",
"U.	c #105A73",
"V.	c #294A5A",
"W.	c #31394A",
"X.	c #293942",
"Y.	c #313139",
"Z.	c #39424A",
"`.	c #427B9C",
" +	c #298CC6",
".+	c #52BDE7",
"                                + @ # $ % # & * >                               ",
"                        - ; > > > > > > > > > > > > > *                         ",
"                    , > > > > > > > $ % ' ) > > > > > > > @                     ",
"                  > > > > > ! ~ { ] ^ / ^ ( { _ : % > > > > >                   ",
"              < > > > [ } | 1 / ^ 2 2 ] ] ] ] ] ] { _ 3 > > 4 > 5               ",
"            # > > > 6 7 8 8 } 9 ( 0 a 2 ] ] ] b b c _ b d e f g > h             ",
"          # > > > i j ( k } 8 } l m n o 0 ( ] ] { b p q q q r s t u v           ",
"        w > > > x 8 } 8 y z } 8 8 A k o B 0 ( { ] { b _ q d d r C D E F         ",
"        > > > { G 8 H } 8 y I } } J k K L 0 M ( { { N p _ d F O P Q Q u         ",
"      > > > _ x H } R H } S M 8 } T U V L K 0 m ( { { c _ W F X r Q O Y Z       ",
"    ` > >  ...{ } R R R H } n +.8 T V z V U k M m { { b _ q d F r D P X Q       ",
"    > > > ^ ] y @.8 R R R H #.$.8 9 %.%.V &.k 0 M ( { N p q d F O Q *.F F Q     ",
"    > > =.x { y I } H R H } -.9 ;.;.9 %.z &.k 0 m >.{ b c _ d X r Y s Q q r     ",
"  > > > ] { ] >.%.} H R R 8 +.9 $.;.9 ,.z V U 0 '.>.{ N p q d F O Y D E q d F   ",
"  > > ).2 b ( >.>.} H 8 @.} !.%.~.;.{.%.z L k 0 A >.] b c _ d F O Y D 4 ].c r   ",
"  > > q ] N ( ^.y /.} R R 8 (.%.9 9 ,._.z K k :.m >.{ b p q d F O Q <.[.}.{ d   ",
"* > > p b b ] ^.>._.} H R H } ~._.%._.z L U o 0 >.|.{ b _ q F X r Q D g > b p   ",
"1.> $ b c b ] |.>.>.(.} H R 8 !.n z z V K k 0 ^.>.( { p _ W d O r Q <.2.> _ ] b ",
"3.> ! c p p { ( |.>.9 } R H R } ;.0 L U k o ^.^ >.>.c p q d F X P D <.g > 4.2 b ",
"5.> 6._ _ b b ] >.( y 7.} H R } } k 0 k 0 >.y y y N c _ q F F r Y C }.g > 8.^ { ",
"$ > ! _ q _ b b >.>.] L } R H R 8 } y >.>.L } 8 9.q p q d F X P Q <.2.0.> 8.x { ",
"a.> ! W d q p c { y >.y S } R R R 8 7.>.y k 8 } } -.d d F F O Y D t 2.f > b...] ",
"& > $ d d d q p c { >.y y } H R R H 8 H c.>.p 7.} 8 #.O F X P Q <.}.0.> > d.e.] ",
"* > > F F d q _ p c b { y _.} H R R R 8 } } L F H H 8 d O r Y <.*.g f > > f.x >.",
"  > > r X F F d _ _ p p b b g.} R H R R R 8 8 c d } H h.D Y D <.2.0.; > > i.o   ",
"  > > e O O F d d q q _ _ _ d j.8 R R } R H } 8 D k.8 R s Q <.2.g 4 > > 1.l.m.  ",
"  > > u r r O X F d d W q q q d S } R R R R H } d.O } } n.D 2.g ) > > > %.o.m.  ",
"    > > D Y P r O X F d d d d d O #.8 H R R R } p.Q 8 q.Z *.' r.> > > ; s.t.L   ",
"    > > [.Q D r r r O F O F F F F Y k.8 } R R } (.E n.> > f r.> > ; > u.j v.    ",
"    @ > f 2.<.D Q Y P r O O O X O O C w.8 8 } 8 h.Y x.} y.' > > > > 3.z.A.B.    ",
"      > 4 g 2.t <.D Q D Y Y Y P r P Y *.D v.H } 8 } } 8 } C.> ; > > | | A.      ",
"        > 2.}.r.2.*.t C <.D D D D Q D D *.4 > x.} R R R H > > > > x.G /.l       ",
"        5 > <.}.> [.2.}.s }.t *.*.t *.*.2.2.4 0.D.# E.} E.F., > G.H.y.c.        ",
"          6 u Q D > > g g g g ' 2.g g g r.[.f > > a.} H R } } H G p.I.          ",
"            J.f r r ; > > ; 4 4 ) ; ; > ; > > > > K.R } } L.R R M.g.            ",
"              F u r F h > > > > > > > > > > > > > > N.L.O.I.| S c.              ",
"                P.s Q d d Q.) > > > > > > > > > > ; R.S.T.I.g.                  ",
"                    d D O q b _ U.V.W.X.Y.Z.5 `. +l..+t.t.%.                    ",
"                        p F O q b ] / x x 1 ....x L m.                          ",
"                                  b b N { ] ]                                   "};
