/* XPM */
static char * address_xpm[] = {
"40 40 257 2",
"  	c None",
". 	c #FFFFFF",
"+ 	c #080808",
"@ 	c #101010",
"# 	c #181818",
"$ 	c #212121",
"% 	c #313131",
"& 	c #5A5A5A",
"* 	c #636363",
"= 	c #6B6B6B",
"- 	c #848484",
"; 	c #D6D6D6",
"> 	c #F7F7F7",
", 	c #FFF7F7",
"' 	c #DED6D6",
") 	c #ADA5A5",
"! 	c #A59C9C",
"~ 	c #292121",
"{ 	c #FFFFF7",
"] 	c #E7E7DE",
"^ 	c #8C9494",
"/ 	c #D6E7E7",
"( 	c #525A5A",
"_ 	c #424A4A",
": 	c #293131",
"< 	c #182121",
"[ 	c #101818",
"} 	c #001010",
"| 	c #002931",
"1 	c #004A5A",
"2 	c #002129",
"3 	c #004252",
"4 	c #08B5E7",
"5 	c #00526B",
"6 	c #007394",
"7 	c #007B9C",
"8 	c #008CB5",
"9 	c #0094BD",
"0 	c #BDD6DE",
"a 	c #29424A",
"b 	c #396B7B",
"c 	c #082129",
"d 	c #105A73",
"e 	c #08394A",
"f 	c #108CB5",
"g 	c #08A5D6",
"h 	c #003142",
"i 	c #004A63",
"j 	c #006384",
"k 	c #006B8C",
"l 	c #007BA5",
"m 	c #0084AD",
"n 	c #0094C6",
"o 	c #009CCE",
"p 	c #00A5DE",
"q 	c #00ADE7",
"r 	c #00B5EF",
"s 	c #849CA5",
"t 	c #637B84",
"u 	c #184252",
"v 	c #29B5E7",
"w 	c #001821",
"x 	c #002939",
"y 	c #00425A",
"z 	c #005A7B",
"A 	c #006B94",
"B 	c #00739C",
"C 	c #0084B5",
"D 	c #008CBD",
"E 	c #009CD6",
"F 	c #94CEE7",
"G 	c #4A9CBD",
"H 	c #5ABDE7",
"I 	c #316B84",
"J 	c #52BDE7",
"K 	c #29637B",
"L 	c #4ABDEF",
"M 	c #10394A",
"N 	c #21A5DE",
"O 	c #109CD6",
"P 	c #00A5E7",
"Q 	c #C6E7F7",
"R 	c #A5C6D6",
"S 	c #84A5B5",
"T 	c #294A5A",
"U 	c #63BDE7",
"V 	c #317B9C",
"W 	c #215A73",
"X 	c #218CBD",
"Y 	c #219CD6",
"Z 	c #082939",
"` 	c #1894CE",
" .	c #189CD6",
"..	c #1094CE",
"+.	c #002131",
"@.	c #003952",
"#.	c #004A6B",
"$.	c #005A84",
"%.	c #006B9C",
"&.	c #007BB5",
"*.	c #008CCE",
"=.	c #0094D6",
"-.	c #E7F7FF",
";.	c #C6D6DE",
">.	c #63737B",
",.	c #ADDEF7",
"'.	c #A5D6EF",
").	c #213139",
"!.	c #84C6E7",
"~.	c #395A6B",
"{.	c #73C6EF",
"].	c #6BBDE7",
"^.	c #5AADD6",
"/.	c #397B9C",
"(.	c #4AADDE",
"_.	c #18394A",
":.	c #103142",
"<.	c #184A63",
"[.	c #218CC6",
"}.	c #2194CE",
"|.	c #188CC6",
"1.	c #087BB5",
"2.	c #001018",
"3.	c #00314A",
"4.	c #0084C6",
"5.	c #CEDEE7",
"6.	c #ADBDC6",
"7.	c #6B7B84",
"8.	c #9CC6DE",
"9.	c #293942",
"0.	c #73ADCE",
"a.	c #6BA5C6",
"b.	c #7BC6EF",
"c.	c #73BDE7",
"d.	c #427B9C",
"e.	c #296384",
"f.	c #398CBD",
"g.	c #081821",
"h.	c #298CC6",
"i.	c #2184BD",
"j.	c #087BBD",
"k.	c #0073B5",
"l.	c #ADD6EF",
"m.	c #9CCEEF",
"n.	c #4A6373",
"o.	c #638CA5",
"p.	c #7BADCE",
"q.	c #8CCEF7",
"r.	c #84C6EF",
"s.	c #73B5DE",
"t.	c #6BADD6",
"u.	c #315A73",
"v.	c #428CBD",
"w.	c #2984BD",
"x.	c #217BB5",
"y.	c #082131",
"z.	c #218CCE",
"A.	c #1884C6",
"B.	c #107BBD",
"C.	c #002942",
"D.	c #0073BD",
"E.	c #9CB5C6",
"F.	c #849CAD",
"G.	c #A5C6DE",
"H.	c #5A7384",
"I.	c #425A6B",
"J.	c #8CC6EF",
"K.	c #395263",
"L.	c #73BDEF",
"M.	c #4A94C6",
"N.	c #3184BD",
"O.	c #318CCE",
"P.	c #2184C6",
"Q.	c #187BBD",
"R.	c #BDDEF7",
"S.	c #B5D6EF",
"T.	c #94B5CE",
"U.	c #8CADC6",
"V.	c #5A84A5",
"W.	c #639CC6",
"X.	c #428CC6",
"Y.	c #217BBD",
"Z.	c #A5CEEF",
"`.	c #84ADCE",
" +	c #73A5CE",
".+	c #6B9CC6",
"++	c #5A94C6",
"@+	c #4A8CC6",
"#+	c #4284BD",
"$+	c #2173B5",
"%+	c #9CA5AD",
"&+	c #DEEFFF",
"*+	c #D6E7F7",
"=+	c #5A636B",
"-+	c #ADC6DE",
";+	c #39424A",
">+	c #5A6B7B",
",+	c #526373",
"'+	c #314252",
")+	c #317BBD",
"!+	c #2973B5",
"~+	c #C6D6E7",
"{+	c #ADBDCE",
"]+	c #4A525A",
"^+	c #424A52",
"/+	c #9CB5CE",
"(+	c #94B5D6",
"_+	c #212931",
":+	c #5A7B9C",
"<+	c #6B9CCE",
"[+	c #213142",
"}+	c #6394C6",
"|+	c #528CC6",
"1+	c #081018",
"2+	c #3173B5",
"3+	c #216BB5",
"4+	c #000810",
"5+	c #001021",
"6+	c #D6DEE7",
"7+	c #737B84",
"8+	c #5284BD",
"9+	c #316BAD",
"0+	c #2163AD",
"a+	c #739CCE",
"b+	c #6394CE",
"c+	c #316BB5",
"d+	c #2963AD",
"e+	c #6B94CE",
"f+	c #396BAD",
"g+	c #3163A5",
"h+	c #215AA5",
"i+	c #BDCEE7",
"j+	c #84A5D6",
"k+	c #7B9CCE",
"l+	c #295AA5",
"m+	c #21529C",
"n+	c #315AA5",
"o+	c #ADBDDE",
"p+	c #8CA5D6",
"q+	c #849CCE",
"r+	c #D6DEEF",
"s+	c #CED6E7",
"t+	c #31394A",
"u+	c #31529C",
"v+	c #849CD6",
"w+	c #94A5D6",
"x+	c #39529C",
"y+	c #E7E7EF",
"z+	c #EFEFF7",
"A+	c #D6D6DE",
"B+	c #4A4A52",
"C+	c #313139",
"D+	c #181821",
"E+	c #101018",
"F+	c #000008",
"G+	c #F7EFF7",
"H+	c #000000",
"U ].b.!.!.m.F m.Z.'.Z.'.m.m.8.s >.B+% D+$ % ^+>+o.Y q q p g p Y Y }.` ` h.P.i.w.",
"U c.!.!.m.F Z.Z.i+l.l.-+7++ H+H+H+H+H+H+H+H+H+H+H+H+H+>+N E g  . ...` |.[.|.N.Y.",
"c.c.J.F F F l.l.l.,.& H+H+H+H+H+H+H+D+$ < @ H+H+H+H+H+H+H+B+p E Y }.` ..[.[.h.w.",
"].!.!.J.8.m.i+l.%+H+H+H+H+H+_+e.l m D 9 D C l k <.$ H+H+H+H+H+V.*.Y ` }.z.h.P.i.",
"c.!.!.m.m.l.F * H+H+H+; . Q E 9 D 8 8 m m m m m m l k :.H+H+4+H+I.*.` ` h.P.i.w.",
"c.!.!.F m.m.% H+H+H+[+'.{ { . k+C w.f 8 m m m B B 6 k B z Z } g.H+_...}.[.[.h.Y.",
"c.!.!.!.m.% H+H+H+t.m.C f.. { . 8+x.)+N.w.C m m l B A j j j y 2 | F+e h.}.P.h.P.",
"c.b.!.b.=+H+H+H+n { . { k.++. { { Q.f.N.!+w.C l m l B k j z z y C.h 2.5 X.h.i.w.",
"].c.c.F.H+H+H+l *+{ , . { k.-+. .  +f.X.v.w.Y.C l l 7 A k z 5 i 3 3.3.F+m h.P.P.",
"U {.c.H+H+H+k n , . > , . 0 Y.{ . o+#+|+v.X.w.x.C l l 6 k $.5 #.y 3.i @.w O.N.w.",
"H J ( H+H+'+o l . > > > , . )+s+{ o+|+++|+#+f.Y.x.l l B k j z 5 y h 3 #.3.z f.P.",
"J s.H+H+H+D m k.G+{ > > > , R w+{ k+.+.+|+@+f.w.Y.C l 7 A j z 5 i 3.+.5 5 3.h.w.",
"v t H+H+W n l k.-+. , > , . ~+k+q+q+k+.+++@+f.w.x.&.l B 6 k z #.y @.2 3.j y A )+",
"4 H+H+H+m l m &..+. , > > { s+k+w+q+k+e+++|+#+w.B.&.l 7 A j z 5 i @.h 2.j z 5 )+",
"(.H+H+a 8 B C &.&.. , { G+. r+.+p+q+a+.+++v.f.w.Q.&.m B 6 k z 5 i @.h 4+1 6 y Q.",
"o.H+H+j m 7 C 1.k.;.. > > { y+.+k+k+e+}+++X.f.i.x.&.l B A j z 5 i 3.x 1+y.l z m ",
">+H+H+A B B m 1.&.}+. , > , . p+}+.+}+++v.#+N.w.&.D.l B k j 5 #.y 3.h g.H+B A B ",
"_ H+D+B 6 B m D.&.&.y+. , > { r+)+++++|+X.f.w.1.&.C l A k $.z i y 3.x c H+k m B ",
": H+_+6 A A l C D.&.k+. > , > . q+w.v.#+f.N.1.D &.&.6 A j z 5 #.3 h x g.H+K 8 B ",
"# H+).k k B B m &.C k.z+. , > . . f.w.f.w.&.k.k.k.7 6 k j 5 5 y @.C.y.g.H+u.D l ",
"D+H+_+k j k B B &.&.m v.. > , > { . k.&.&.v.. { a.j A j z 5 #.3 3.x c [ H+u.n l ",
"~ H+_+$.z j A 6 l k.&.k.0 . > > > { z+&.k.f.{ . . ~+z z 5 5 i @.h | c } H+b o m ",
"^+H+D+z z z j A 6 l &.k.k.. , > > , { , `.&.A z+. { R i 5 #.3 3.x y.[ H+H+/.*.m ",
">+H+H+5 5 z j k A 6 B l k.}+. , > > > { . . v.5 , , { z i y @.x +.g.} H+H+X n &.",
":+H+H+y #.5 5 z k k A A B B (+. > , > > > { { 6 z . , E.h @.h x c [ + H+H+p N.x.",
"O.H+H+Z i i 5 z z j j k k k z i+{ > > . > , . { h /+{ > 2 3.x c g.4+H+H+_ r G !+",
"o H+H+F+y y i #.5 z z $.j j j z 0 . > > > > , . /.i . . 5+h c g.@ H+H+H+.+U G l+",
"*.>+H+H+h @.3 y i #.5 z z z z z i R { , > > > . / 3.{ I w +.< E+H+H+H++ c.p.v.h+",
"*.h.H+H+1+3.h y y y i 5 i 5 5 5 5 @./+{ . > > . y+2.5+H+H+} E+H+H++ H+S m.U.0+g+",
"[.4.B+H+} c x h 3.@.3 y i i i #.i i C.V.{ { . { E.@.6.. A+< H+H+H+H+: ,.G.W.h+d+",
"h.` *.H+4+g.c | x h 3.h @.@.@.3 y 3 @.+.h U., . { . . { . - H++ H+H+Q Q G.h+d+g+",
"w.A.D :+H+c y.E+c +.| C.x h h h h 3.h h +.4+H+6.. > > > , H+H+H+H+6.*+;.8+h+g+n+",
"i.P.i.D.I.H+x y.H+1+c y.2 y.| +.+.| +.+.c c 4+[ 7.% ] . ] = & H+%+-.A+`.m+l+l+g+",
"Y.w.P.w.D.[+F+3.h H+H+g.g.g.g.< c g.g.g.E+1+} H+H+~ . , > . . , *+/ 8.m+d+g+g+u+",
"w.!+w.w.w.w.M } y y + H+H++ 4+4+@ + + H++ H+H+H+H+! > . . ' > > 5.(+h+n+n+l+n+l+",
"!+)+!+$+Y.w.)+5 F+y 5 _.H+H+H+H+H+H+H+H+H+H+H+H+H+H+) ' ^ 8.Q 0 `.m+l+g+n+n+n+u+",
"$+!+x.Y.!+)+$+c+%.2 3.z z u @ H+H+H+H+H+H+H+H+H+H++ n.^.J.8.(+8+m+n+l+l+u+u+u+u+",
"!+!+!+2+$+!+!+w.2+)+z h i j B k d T t+9.C+;+I.d.h.r J p.p..+l+l+l+g+n+x+g+m+u+u+",
"d+c+!+!+2+!+c+!+!+2+f+$+A 5 i j B m 9 n n E o o n v.G v.f+m+l+n+g+u+l+x+u+u+x+u+",
"d+9+9+9+9+!+d+!+9+!+2+c+f+f+!+%.B B B 7 l m m m w.l+n+m+l+l+u+l+u+n+x+u+u+u+u+u+"};
