/* XPM */
static char * address_xpm[] = {
"40 40 257 2",
"  	c None",
". 	c #383638",
"+ 	c #509B9B",
"@ 	c #326A6C",
"# 	c #80CFCE",
"$ 	c #6F6969",
"% 	c #8F9C89",
"& 	c #71837A",
"* 	c #38514C",
"= 	c #A1B6B7",
"- 	c #8F8581",
"; 	c #498485",
"> 	c #94AB97",
", 	c #565254",
"' 	c #5DB7B7",
") 	c #7D8F7D",
"! 	c #566666",
"~ 	c #C4CFD2",
"{ 	c #394340",
"] 	c #737778",
"^ 	c #7A9AB4",
"/ 	c #B8B9B2",
"( 	c #D3EBEE",
"_ 	c #A89D97",
": 	c #527A7C",
"< 	c #939CA5",
"[ 	c #808381",
"} 	c #395C5D",
"| 	c #A9ABA2",
"1 	c #5A5B5E",
"2 	c #C4DEE6",
"3 	c #837972",
"4 	c #4B4649",
"5 	c #55ABAB",
"6 	c #7C90A0",
"7 	c #90908F",
"8 	c #666869",
"9 	c #5A8789",
"0 	c #B9C2BC",
"a 	c #4A353B",
"b 	c #6A5E5E",
"c 	c #B1C2C2",
"d 	c #92A391",
"e 	c #727985",
"f 	c #94ABB9",
"g 	c #4A4F4F",
"h 	c #4A9091",
"i 	c #D2D1D3",
"j 	c #79B7B4",
"k 	c #7F6E6B",
"l 	c #71838F",
"m 	c #9F9189",
"n 	c #434443",
"o 	c #6FADAE",
"p 	c #5A5E6C",
"q 	c #393C3A",
"r 	c #467879",
"s 	c #5F9C9D",
"t 	c #80858D",
"u 	c #83917F",
"v 	c #A9B6B2",
"w 	c #706F6B",
"x 	c #696F6B",
"y 	c #829A87",
"z 	c #C7C5C7",
"A 	c #C5D6DC",
"B 	c #8F929C",
"C 	c #89A290",
"D 	c #95A3AA",
"E 	c #515B53",
"F 	c #51525C",
"G 	c #7B7877",
"H 	c #A7ADB1",
"I 	c #E7EDEE",
"J 	c #68C2C6",
"K 	c #697778",
"L 	c #9D9C97",
"M 	c #635D5F",
"N 	c #57494F",
"O 	c #AEB8BE",
"P 	c #9CAB96",
"Q 	c #D8E1E3",
"R 	c #454A44",
"S 	c #B9CFD6",
"T 	c #92968F",
"U 	c #5E6F73",
"V 	c #66ABAD",
"W 	c #87919D",
"X 	c #BBC4C9",
"Y 	c #4F8486",
"Z 	c #625557",
"` 	c #828A7E",
" .	c #55A3A4",
"..	c #44686A",
"+.	c #907D76",
"@.	c #3F3D3D",
"#.	c #869684",
"$.	c #798A7A",
"%.	c #9DA396",
"&.	c #4F9092",
"*.	c #829BAF",
"=.	c #A0ACB5",
"-.	c #9DA4A9",
";.	c #697885",
">.	c #6CB8B7",
",.	c #C2B9AF",
"'.	c #525654",
").	c #717175",
"!.	c #4C6262",
"~.	c #BFCACE",
"{.	c #9B8A84",
"].	c #575658",
"^.	c #4B4A4C",
"/.	c #798A92",
"(.	c #8DDAD9",
"_.	c #837E7C",
":.	c #B3B2B5",
"<.	c #747E78",
"[.	c #B0BEC3",
"}.	c #467070",
"|.	c #CBD1D3",
"1.	c #7B7A84",
"2.	c #3E353A",
"3.	c #908A87",
"4.	c #656975",
"5.	c #45464C",
"6.	c #4B797A",
"7.	c #687077",
"8.	c #78837E",
"9.	c #5D6875",
"0.	c #9EE2E0",
"a.	c #EBF7F9",
"b.	c #79C3C2",
"c.	c #5C9191",
"d.	c #8AAA9C",
"e.	c #A8A399",
"f.	c #DFEBEE",
"g.	c #B6DAE4",
"h.	c #FAFEFC",
"i.	c #D0DFE1",
"j.	c #463E40",
"k.	c #D3D9DC",
"l.	c #62A4A5",
"m.	c #8AD0CE",
"n.	c #B5AD9E",
"o.	c #E3E5E7",
"p.	c #83C5C0",
"q.	c #404F42",
"r.	c #6A827B",
"s.	c #6EA6AC",
"t.	c #9FB7C7",
"u.	c #B0C3CE",
"v.	c #97DFE1",
"w.	c #89A3B3",
"x.	c #63626C",
"y.	c #71C4C7",
"z.	c #6A9694",
"A.	c #B6A294",
"B.	c #B7BEC2",
"C.	c #C7CACD",
"D.	c #9B9EA5",
"E.	c #405655",
"F.	c #64BEC3",
"G.	c #537E7E",
"H.	c #416261",
"I.	c #6B6262",
"J.	c #848A8E",
"K.	c #AEBEA4",
"L.	c #7E9682",
"M.	c #394A43",
"N.	c #9F9691",
"O.	c #A1B2A3",
"P.	c #509695",
"Q.	c #D2E6EB",
"R.	c #3E6E6C",
"S.	c #5AB2B3",
"T.	c #91969D",
"U.	c #52565C",
"V.	c #A1BECE",
"W.	c #B2CAD4",
"X.	c #515A5E",
"Y.	c #C3BEB9",
"Z.	c #F0FEF8",
"`.	c #CCD8DB",
" +	c #82D6DC",
".+	c #4A8A8C",
"++	c #A8B29F",
"@+	c #5D6263",
"#+	c #7D96A8",
"$+	c #4A9694",
"%+	c #7F726F",
"&+	c #467E80",
"*+	c #AAB2B6",
"=+	c #E8F2F4",
"-+	c #6A7E78",
";+	c #DBE6E9",
">+	c #88969F",
",+	c #4F8A8C",
"'+	c #A1B2BA",
")+	c #6FBEBD",
"!+	c #E0F2F4",
"~+	c #8AD6D6",
"{+	c #84CAC8",
"]+	c #589C9D",
"^+	c #385654",
"/+	c #747E86",
"(+	c #92B2C4",
"_+	c #71B2B1",
":+	c #5C626C",
"<+	c #67B2B1",
"[+	c #6A7E88",
"}+	c #79CAC9",
"|+	c #5B9698",
"1+	c #766A68",
"2+	c #899B88",
"3+	c #A7A5A9",
"4+	c #7C7E7B",
"5+	c #4B7E80",
"6+	c #B6B2A4",
"7+	c #636262",
"8+	c #7B7E84",
"9+	c #72CACC",
"0+	c #415050",
"a+	c #5E7679",
"b+	c #878481",
"c+	c #405C5D",
"d+	c #97918D",
"e+	c #BFC2B9",
"f+	c #505153",
"g+	c #78848D",
"h+	c #B0B7B4",
"i+	c #889BAA",
"j+	c #4F3D3C",
"k+	c #DBD9D8",
"l+	c #464A4C",
"m+	c #4D4A54",
"n+	c #6A8291",
"o+	c #78BEBA",
"p+	c #939B9A",
"q+	c #94ABA8",
"r+	c #56525C",
"s+	c #7D8F92",
"t+	c #C3D1DC",
"u+	c #B6B9BF",
"v+	c #837A7D",
"w+	c #878F91",
"x+	c #91A5BE",
"y+	c #A0ABAB",
"z+	c #45717D",
"A+	c #CFE0ED",
"B+	c #3E6768",
"C+	c #64B7B4",
"D+	c #5D676A",
"E+	c #5CACAC",
"F+	c #679D9C",
"G+	c #87868C",
"H+	c #77706B",
"p ].1 9.1 M , g '.x M ].M M '., 7+, ^.g , g f+f+, :+'.M f+].1 f+1 f+D+F f+f+p p ",
"F , 1 , , f+g f+, ].E x f+g l+5.n 2.@.q { { @.@.^.^.].f+1 U.M ].].b X.]., ].].'.",
"f+1 p E f+'.U., ].'.f+1 ^.n @.@.@.@.n { 5.{ @.@.j.{ n g f+g ].7+].:+p ].f+:+M r+",
", '., f+, p p ].E ].g ^.@.{ j.n 5.n 5.5.5.j.l+n n n { n 5.g ].].1 @+[ @+x , , , ",
"'.@+f+E ].g f+1 f+5.j.@.n n l+l+4 5.g g g g f+4 4 5.n l+n n N ].1 , , ]., @+F f+",
"F g ].f+1 f+].f+g n n 5.5.^.^.m+f+, '.g f+f+f+^.f+g ^.5.n n 5.5., 1 , '.4.].7.1 ",
"f+'.'.f+].].f+R n 5.n ^.^.f+f+f+f+j.q . . 2.@.R ^.g f+^.5.R l+5.g f+f+p E E E '.",
"1 ].].].f+].^.R R 5.^.'.^., ^.. { a 5.'.1 E { q . 4 f+f+g ^.^.5.n N f+f+K 7.'.1 ",
"X.U f+, f+^.4 n n g g f+r+@.a 4 @+7+8 ] 8.] x 7+].q 2.f+^.g R ^.4 ^.f+1 ].f+p '.",
"f+].f+E , 5.R ^.^.f+E ^.2.@.1 H+_.).3 8 1.e G ).] @+^.2.g f+g ^.^.^.R f+, p U.1 ",
"$ , U.f+f+R 4 g 4 g '.q q 7+).b+G 4+e 4.[ 4.[ 4+[ b+M g . g g '.5.^.5.g 1 1 ].1 ",
"'.@+U.g 4 5.g f+, ].q . p 7.8 ).w 1.4.x 4.8 e b ).x e ] g 2.].^.^.f+4 R g F , '.",
"'.f+$ f+^.l+g , f+4 2.p $ w 7.4.>+K H+4.8 7+M 7.w 1.[ H+H+@.n f+^.^.5.4 g ] g D+",
"N f+F g g m+f+f+g @.n 8 D+8 8 1.h.C.9.p D+1 p @+@+1 $ $ 4.M 2.g '.^.g g N 8 g f+",
").].f+^.4 f+'.g n @.].8 M ).X _.G k+H+@+1 7.I.].].E E 4.@+).g n f+1 g N ^.].1 1 ",
"1 f+f+^.g l+].g @.5.@+].M T.~ X 4.u.B.p p p '.1 1 ].M E E 1 , q f+f+].f+f+f+X.f+",
"M f+g ^.^.'.].f+n f+@+@+E w c e+O 1 - ].D+].'.].].].7+]., ].U.n f+].f+@+^.'.f+f+",
"'.'.g f+f+7+].1 j.].].@+p p e+O z 1 '., ].].Z 1 ].x.'.'.].].1 ^.^., f+f+g f+'., ",
"f+:+r+^.p ].].4 n E ].].E ].W u+~.G ].].M ].'.f+M '.].1 ].].].^.n g f+, , r+f+U.",
"^.f+g f+f+1 f+4 @.g 1 @+].p p B.:.X ].].].].f+f+, g , f+f+f+f+f+n E '.]., ].'.p ",
"f+f+]., 1 f+].n n f+g '.f+f+F *+'+u+t U.f+p U., f+f+, f+, p f+f+q ^.'.E ].1 f+f+",
", f+, ^.@+].I.4 4 '.f+f+'.E f+1 *+H O x.'.O u.].f+f+N ^.f+].g N j.'.@+'.].1 , ].",
"].U.1 8 , ].f+4 n g f+, U.g f+, t [.*+3+#+1 h+-.f+f+, '.g f+N g n p ]., ].f+p U.",
"U.'.1 Z I.f+f+'.n f+f+g f+^.f+g f+< O < *+H+x.h+].f+f+f+, ^.^.^.f+f+8 1 ].1 1 1 ",
"f+1 ].].E X.4.f+j.^.f+g ^.'.g ^.f+g B H -.*+, -.Z N ^.R f+f+^.n f+].f+M ].].F f+",
"f+f+, 1 7+, , Z @.5.g N ^.g ^.^.^.g 1 t T.D w+^.N f+g g g ^.R j.f+].8 1 ].D+]., ",
"r+f+, 7+].@+7+8 f+@.g g g ^.^.^.g ^.N g 4.< J.g+< g ^.g g g R m+, 1 ].].E f+f+f+",
"f+m+f+@+M 8 M 7.7.q R ^.g 4 ^.^.g g ^.^.g g e 7 T ^.l+^.^.^.@.).8 $ I.1 7.F f+g ",
"4 ].$ ].p M D+@+, 1 { n ^.R l+^.^.^.^.^.m+^.^.9.B T ] ^.g 4 X.].'.7+1 x '.X.X.f+",
"f+].f+, 8 E w e 8 8 4 n ^.5.^.4 5.4 R ^.^.R l+g G R 5.^.5.{ M D+w 7+].Z ].g f+'.",
"f+g f+g @+1 @+@+$ ] @+q { 4 4 4 5.l+^.^.5.g 5.R 4 ^.l+n @.).7+t w 1 M $ , 4.1 G ",
"1 f+f+1 ].7.1 D+G $ ).).n j.n n 5.g ^.^.g l+5.4 4 R n @.4+$ $ ] e 1 1 @+'.].'.g ",
"U.g f+f+f+1 ] M $ $ 1 8 M n j.5.R n 5.5.n 4 n n 5.n 5.x x [ ).] @+D+$ 9.f+, , f+",
"f+f+'.f+f+].7+D+x $ w <.w e 4+j.q j.n n n n n @.j.H+x K ).7+$ ! @+, F , '.f+g f+",
"r+f+f+f+g , U.p ).7+v+w 8 [ 8 1.d+p l+n n f+7.[ [ x.[ G ).M 7+@+$ '.f+Z g f+f+'.",
"p f+].f+f+f+f+'.1 M M $ H+).w e G w @+G+$ _.$ 8 ).] 8 7+).M H+].f+].].f+f+1 f+, ",
"'.f+f+, g N f+].r+].$ M M M $ $ ).t ] 8+H+8 %+H+b+M 8 1 M 8 I., ^.].f+'.N , ].f+",
"f+f+f+N g f+f+f+g U.t x $ 7+$ M $ M 4.8 M 7+7+@+w 7+D+7+w ].f+, f+f+g g f+f+].f+",
"N f+f+f+f+'.f+1 '.g '., M G 8 p M @+$ @+1 I.1 @+E U 4+f+'.f+g f+g f+, ].'.g g f+",
"f+^.g ].f+f+f+1 g f+g f+f+^.].8.+.] x $ K 7.$ 7+).X.g f+g '.g f+g g g ].].N 1 ]."};
