/* XPM */
static char * address_xpm[] = {
"40 40 62 1",
" 	c None",
".	c #020202",
"+	c #F6F6F6",
"@	c #8A8A8A",
"#	c #424242",
"$	c #2A2A2A",
"%	c #D2D2D2",
"&	c #6E6E6E",
"*	c #1E1E1E",
"=	c #4E4E4E",
"-	c #BABABA",
";	c #161616",
">	c #5E5E5E",
",	c #A6A6A6",
"'	c #323232",
")	c #7E7E7E",
"!	c #0E0E0E",
"~	c #9A9A9A",
"{	c #E6E6E6",
"]	c #525252",
"^	c #3E3E3E",
"/	c #FAFAFA",
"(	c #727272",
"_	c #666666",
":	c #4A4A4A",
"<	c #CECECE",
"[	c #0A0A0A",
"}	c #222222",
"|	c #8E8E8E",
"1	c #DEDEDE",
"2	c #767676",
"3	c #5A5A5A",
"4	c #CACACA",
"5	c #FEFEFE",
"6	c #AEAEAE",
"7	c #363636",
"8	c #626262",
"9	c #EEEEEE",
"0	c #1A1A1A",
"a	c #A2A2A2",
"b	c #868686",
"c	c #969696",
"d	c #BEBEBE",
"e	c #2E2E2E",
"f	c #060606",
"g	c #DADADA",
"h	c #262626",
"i	c #7A7A7A",
"j	c #121212",
"k	c #6A6A6A",
"l	c #464646",
"m	c #828282",
"n	c #565656",
"o	c #E2E2E2",
"p	c #C2C2C2",
"q	c #D6D6D6",
"r	c #929292",
"s	c #9E9E9E",
"t	c #3A3A3A",
"u	c #F2F2F2",
"v	c #B2B2B2",
"w	c #AAAAAA",
"                &:'0}':_.               ",
"            i[............._            ",
"          3.......;**!.......:          ",
"         .....h]3>_&_83=t*.....         ",
"       8...q512k___>>>>883=h..f.n       ",
"      '...e4555c8&k_888nn]=n#*[j.'      ",
"     '...~p82555)_&(&>>>3]=l::';0.e     ",
"    8...k5553@555_2&8&8383n=l##e}}[^    ",
"    ...3{5+553p55~i))&_>333==#^7eh}.    ",
"   ...=&+5//5<_55d2)ii&_833n=#t7'h7$j   ",
"  n..^(35+++/5kq5-mbm2i__33n=:#tehe7h   ",
"  ..._83u5+++/d,5c|r))2&_83n=l#^7h;^th  ",
"  ..:k33p5/+/5%c~~cr@)i&_33nn=#7e$;hl'  ",
" ...83>3|5/++5qc,~~|bm2&8>33=l#^7$}!:#^ ",
" ..t_n8>>5/5u51ra~crbii&8>>nn=#^7$}f']' ",
" ..l838>n%5+/5{r~c|@@)2k_33n=l#t7h*!*3# ",
"_..=]]>>>@5++/5a@r@bi2(&>33n=l^t'h}j.]= ",
"l.;nnn833>{5/+5gkb@mii&>3>3==l#7eh*0.=8n",
"e.h]==38n>~5+//5~&i22(>k>3n]l#t7eh*j.]_n",
";.e==n]>>8n95++552&i&33nn3]=:t^'$*0;.]_3",
";.$=l=nn338)5+//55n>>i55c:=l#t7eh*0j.]&3",
"}.hl#:=]333n%5+++593n2555%##^^7$}*0!.3(8",
"l.;###:]]33n35////5/,>]u55d7t7eh*0j..k_8",
"_..^t#l==nn3n@5++++555it//5#7'$*0j!..&&3",
" ..'t^t#====nn65//+++55]#5+6}$h*0jf..i( ",
" ..*77^##::===#45++5+/55}v5/0h*0;f..lbb ",
" ...ee77t###l::#%5//+//5k755!}0jj...|,b ",
"  ..h$''77^#####7d5++++51h53j0*j...f6a) ",
"  ..!}}'ee7^7ttt^$v55//5{[!..[!..f.~pa  ",
"  :.[0*}h$'e777777*i5555v$-5q*....e%dr  ",
"   .f;0**}h}$$$eee$0},/555555m.f..11d   ",
"    .00!00*}*hh}hhh}0f.-5+++/....-o%i   ",
"    ].*0.!0*;0*;0*0;00f;i'{5{k3.a+qa    ",
"     e.h}..jj;;*0jj;!![..}5/+55+o1-     ",
"      e[ee[..fffj[f.f....s+55q/+g6      ",
"       ^.'te..............,grd1%,       ",
"        =;h##7!..........[>~--6         ",
"          #}7ln=l^7'e^]k(bsssr          ",
"            ]t7ln8&&&(((k)@             ",
"                 ]n3388                 "};
