/* XPM */
static char *address_xpm[] = {
/* width height num_colors chars_per_pixel */
"    40    40      219            2",
/* colors */
".. c #000000",
".# c #00ffff",
".a c #060804",
".b c #0a1409",
".c c #0b1c04",
".d c #0c1414",
".e c #112c11",
".f c #140c04",
".g c #141b1c",
".h c #141c04",
".i c #15140b",
".j c #191d14",
".k c #1c241d",
".l c #1c2c13",
".m c #1c3c24",
".n c #241c14",
".o c #241c1c",
".p c #251b0c",
".q c #26241c",
".r c #272414",
".s c #292d1c",
".t c #2a242c",
".u c #2a2f24",
".v c #2a4424",
".w c #2b312c",
".x c #2b3c24",
".y c #2c3434",
".z c #2c3c1c",
".A c #2c3c2d",
".B c #2c452c",
".C c #2c4b34",
".D c #2c4c14",
".E c #34241c",
".F c #342424",
".G c #342e1c",
".H c #343024",
".I c #34313c",
".J c #34332d",
".K c #343c24",
".L c #343c3c",
".M c #344624",
".N c #344632",
".O c #34483d",
".P c #345424",
".Q c #347414",
".R c #365434",
".S c #3a553c",
".T c #3c311c",
".U c #3c3434",
".V c #3c5944",
".W c #3c6444",
".X c #3d342c",
".Y c #404424",
".Z c #404634",
".0 c #404c3e",
".1 c #413c24",
".2 c #42433c",
".3 c #42442c",
".4 c #434444",
".5 c #44542c",
".6 c #445434",
".7 c #44594c",
".8 c #44674c",
".9 c #446b54",
"#. c #448424",
"## c #45563c",
"#a c #485844",
"#b c #4a6444",
"#c c #4a6c44",
"#d c #4a8d2b",
"#e c #4b4c4c",
"#f c #4b643c",
"#g c #4b8334",
"#h c #4c3424",
"#i c #4c342c",
"#j c #4c3c24",
"#k c #4c3c2d",
"#l c #4c442c",
"#m c #4c4434",
"#n c #4c443c",
"#o c #4c4c3e",
"#p c #4c4c54",
"#q c #4c5a4d",
"#r c #4c5c5c",
"#s c #4c684f",
"#t c #4c6a5c",
"#u c #4c7034",
"#v c #4c842c",
"#w c #4c8c3c",
"#x c #4c8d34",
"#y c #52744c",
"#z c #537454",
"#A c #543c2b",
"#B c #544424",
"#C c #54442c",
"#D c #544534",
"#E c #546444",
"#F c #546c44",
"#G c #54745c",
"#H c #54803a",
"#I c #548444",
"#J c #548c24",
"#K c #548d35",
"#L c #553c34",
"#M c #554b3c",
"#N c #554c44",
"#O c #554c4c",
"#P c #55674c",
"#Q c #556c54",
"#R c #558b2c",
"#S c #575434",
"#T c #575544",
"#U c #57942c",
"#V c #58584c",
"#W c #59543c",
"#X c #595b54",
"#Y c #5a5b5c",
"#Z c #5a695c",
"#0 c #5b6c64",
"#1 c #5c744c",
"#2 c #5c7664",
"#3 c #5c8939",
"#4 c #5d7454",
"#5 c #5d8744",
"#6 c #5f755c",
"#7 c #644c40",
"#8 c #64543c",
"#9 c #645544",
"a. c #645b52",
"a# c #645c5c",
"aa c #646754",
"ab c #64685c",
"ac c #646a64",
"ad c #647474",
"ae c #647665",
"af c #64844c",
"ag c #64845c",
"ah c #64846c",
"ai c #6c6153",
"aj c #6c645c",
"ak c #6c6464",
"al c #6c7454",
"am c #6c8050",
"an c #6d6d5c",
"ao c #6d7d63",
"ap c #6f6c6c",
"aq c #706f64",
"ar c #717f6c",
"as c #72746d",
"at c #737e7c",
"au c #738074",
"av c #746c74",
"aw c #798c64",
"ax c #798c6c",
"ay c #7b8d74",
"az c #7c6c7c",
"aA c #7c746e",
"aB c #7c7c64",
"aC c #7c7d72",
"aD c #7c807c",
"aE c #7c8d7c",
"aF c #7d7164",
"aG c #828384",
"aH c #838f84",
"aI c #847c6c",
"aJ c #847e74",
"aK c #84828c",
"aL c #84918c",
"aM c #85817c",
"aN c #858f7a",
"aO c #899c8b",
"aP c #8c8484",
"aQ c #8c8f89",
"aR c #8c9294",
"aS c #8c9c94",
"aT c #93a09c",
"aU c #95928c",
"aV c #979495",
"aW c #979f93",
"aX c #989084",
"aY c #98b390",
"aZ c #9bac9c",
"a0 c #9c9f9d",
"a1 c #a5a19b",
"a2 c #a6a7a4",
"a3 c #a6ac9c",
"a4 c #a9b4a4",
"a5 c #abacac",
"a6 c #abb4ac",
"a7 c #b2bcb9",
"a8 c #b2c6bc",
"a9 c #b4aca9",
"b. c #b4b4b4",
"b# c #b4b5ab",
"ba c #bcb4ac",
"bb c #bcbcbc",
"bc c #bcc4bc",
"bd c #bcc5c4",
"be c #beb9b4",
"bf c #c3c3c3",
"bg c #c4c4b4",
"bh c #c5c5bc",
"bi c #d0d4cc",
"bj c #d3d4d4",
"bk c #d4cccc",
"bl c #d4dcd9",
"bm c #d4dce4",
"bn c #d7ebfa",
"bo c #dcd4c8",
"bp c #dedbd9",
"bq c #e4e4ec",
"br c #e4ecf4",
"bs c #ece6da",
"bt c #ecf8fc",
"bu c #edeae4",
"bv c #edecec",
"bw c #eeecf4",
"bx c #f8f7f4",
"by c #ffffff",
/* pixels */
"#l#D#k#l#C#l#M.H#9.1#M#M#m#m#m#N#W#m#D#m#m#D#D#M#D#k#k#D#C#m#k#D#D#k#k#D#m#D#l#m",
"#m#m#l#k#k#D#k#M#k#N.1#m.Z#N#m.1.1#o#T#N.1#m#M#M#k#k#N#D#m#D#D#k#M#k#k#k#k#m#D#m",
"#D#D#k#m#m#m#l#m#m#M#m#n.1.1#n#V#V#O#o#o#M#N#M#N#n#D#M.1#m#m#m#M#D#D#k#k#l#C#m#C",
"#C#l#l#D#D#m#V#m#N#m#T#N#Xaqasanajaqaqajaqana.#9#N#M#n#m#D#m#m#m#k#m#L#m#k#m#D#k",
"#m#m#D#M.1#o#m#N.Z#Vaaaqaqajaqasasaqabanasaqaqaqan#V#n#n#n#m#M#n#k#M#k#k#k#D#D#l",
"#D#D#M#D#M#o#W#o#N#Xaqaqanan#V#o#o#T#N#o#T#XabaqasaF#V#n#M#M#M#M#D#n#D.1#k#k#m#l",
"#k#k#l.1#o#M#Vajaqaraq#X.Z.X.H.H.1.2.1.X.w.1#n.Ka.aQasana.#T#M#m.1#m#M#D.H#k#D#m",
"#k#k#o#M#T.Z#Xaqaq#T#n#n#o.H.H.U.J.a.J.F.1.X.Z#n.U#oajaAaqa.#o#M#W#M#l.1#7#S#L#k",
"#k#M#m#o#V#Xaaan#X#n.2.j.1.a.a.a.f.n.a.a.a.a.q.H.1#o.2anaqaj#V#M#o#M#l.1#k#m#m#m",
"#M#k#T#oaaac#Xab.Z.w.K.i.a.h.J.d.t.d.f.j.i.a.a.a.i.X.J#Xanasaqa.#M#M#T#M.H.1#m.1",
"#k#N#o#V#Vac#V#V.j.i.a.i.j.q.a.f.J.a.k.i.1.H.i.d.f.j.q.X#oaqaqa.#M.3#m.1#W#m.Z#T",
"#M.Z#V#V#Xaq.0.u.a.a.a.u.k.i.Uby.f.d.d.b.o.k.H.u.f.a.n.U.J#Nanaqa.#m.1.1#m#m.Z.1",
".1#V#oaa#Xaj.2.f.a.J.q.U.fbkbvbwby.a.h.1.a.j.u.o.j.n.a.k.u.2a.aqab#T#M#W.H.Z.1.H",
"#m#N#o#V#V#X#n.H.f.F.X.J.fapbyby#pbvb..a.J.u.k.J.u.t.J.a.a.j.u#Va.a.#M.1.3#m.3.1",
"#N#o#N#Vaaak.H.f.f.2.X.X.fa2bybxbqaVbx.i.s.q.q.k.u.n.t.J.j.a.i#Naqaq#T.1#m.1#m.1",
"#N#n#V#X#V.2.i.f.E.X.F.X.fasbubybybe.2.i#m.p.1.T.n.E.X.X.o.f.f.2#pa.a.#D#D#W#m.1",
"#M#n#T#X#X.X.d.n#k.X.H.1.G.abybtby.w.q.Z.H.H.H#k.r.1.f#k.E.n.a.t#n#X#V#l.T#k#m.Z",
".Z#k#o#V#V.u.i.i#k.H.X.H.H.abybybw#o.1.u.1#m.Z.r#m#k.G.G.1.o.a.q.2a.#9#n#C#D#k.1",
"#M#m#o#N##.H.j.i.1#k.Z.1.1.yaAbybybi.j.1.H.1.G#l.r.1.1#m.1.H.a.j.J#V#M#l#l#L#D#L",
"#M#n#n#o.2.q.h.G.1#M#m#m#m.J.abybwbt#X.Z#o.a.h#n#T.1#m.3#C.J.a.a.H#o#M.3#j#D#L#m",
".1#k#m.Z.1.b.a.s.X#M.Z#M#m#M.2aDbybybx.I.abebv.i.2#N.1#l.1.H.a.i.H.2#m#S#C#M#k.1",
"#m#m#n.Z.Z.j.a.q.2#M#M#N#o#V#T.abtbybybtbyaRbtbx.f.Z#m#M#l.H.a.h.J.X.1#D#l.3#l#D",
"#k#n#m.3.H.u.a.o#N#n#Va.aa#l#Vaq.abxbtbybybraGby.4#T#m#M#l.X.a.f.w.1#m#W#j.1.5#C",
"#m#j.1.1.s.o.a.oaaab#Van#naq#Wab.Z.kbybybybya7bkaA.H#V#N.1.s.a.j.w.Z.1.1#C#m#l.1",
"#D#m#m.1.H.n.j.d.0#XaaaqaiajaqaAapap.abybtbybxaQ.L#X#Oaa.q.i.a.b.q.J#o#D#C#m#m#m",
"#D#D#m.3.H.n.J.a.K#V#X#VajaaajaaabasaM.abkbybra6aM.u#N#N.q.a.a.d.j.X#N#M#D.1#l#m",
"#m#C.1.1.G.j.o.a.qac#Va.aAaqasaAaqa#aJac.J.a.wbvbx.2#e#n.a.a.i.t.o.J#N#k#i.1#m#m",
"#m#m.1.1.H.k.j.a.a#e#OakaA#Vaq#V#XaAa#aAanas#Z.Jbxbx.a.a.a.a.a.u.q.H#M.X#m#D#k#l",
"#D#D#m#m#m.H.u.b.a.d.J#Oa#akabaqa.anaAana##Vaq.jbvbv.f.a.a.a.i.u.G#k#T#k#D#m#l#k",
"#l#k.1#l.Z.q.r.1.a.a.a#n#O#o#O#Taj#X#Nanaia..U#o.j.j.a.a.a.b.j.H.1#C#D#l.X#C#D#D",
"#D#D.1.3#o.1.q.k.j.a.f.a.j.2#V#X#X#V#Ma.a.#e#V.2.f.a.a.a.d.d.j.H.3#B#D#l#M#l#m#m",
"#m#l#k.1.1.1#m.3.q.i.f.a.a.a.f.o#oa##Y#X#e.q.b.a.a.a.a.a.o.G.H.1#l#m#m.3.H#A#m.2",
"#m#k#m#l#k#o#m.H.n.i.i.a.d.f.a.a.a.a.a.a.a.a.a.a.a.f.i.i.k.H.H#m#m#m#m#m#l#W#n.1",
"#k.3#l#m#l#m.3.H.u.J.j.a.f.f.f.a.a.a.a.a.a.a.a.a.a.f.j.l.H.H.1.1#l.1#l#l#m#k.H#T",
"#l#k#m#D#D#m.3.1.1.1.s.i.j.a.a.f.a.f.a.f.a.a.a.a.d.u.H.H.1#k#m#D#k#l#m#l#l#D.X.2",
"#k#l#m#m#m#D#m.1.1.1.1.K.2.H.k.j.f.f.a.a.f.f.d.n.H.X.1.1.1#m#m#m#m#m#D#m#k#D#mab",
"#m#k#l#l#k#m#D#m#k.Z.1.1.1.u.q.j.r.u.u.q.H.J.H.s.H.G.G.1#m#L#m#k#k#l#D#l.1#D#m.1",
"#k#l#m#m#l.1#k#k#l.1#m.Z.1.H.H.1.H.Z.1.s.H.H.H.H.1.1#k#D#m#m#D#m#m#D#D#D#l#D.1.Z",
"#k.1#k#m#k#D#m#m#m.3#m#m.1.3.Z.Z.1.3.Z.1.3.3#m.3#m#k#m#M#k#k#k#D#k#k#m#C#m#k#n#n",
"#D#l#D#C#l#D#k#l#m#m#l.Z.3#m#m.1.1.H.K.K.1.1.3#k#k#m#k#A#D#k#l#k#l#m#C#D#D#D#k#M"
};
//SIMPLE  =                    T                                                  BITPIX  =                    8                                                  NAXIS   =                    2                                                  NAXIS1  =                   40                                                  NAXIS2  =                   40                                                  HISTORY Written by XV 3.10a                                                     END                                                                                                                                                                                                                                                                                                                                                                                                                                                                                                                                                                                                                                                                                                                                                                                                                                                                                                                                                                                                                                                                                                                                                                                                                                                                                                                                                                                                                                                                                                                                                                                                                                                                                                                                                                                                                                                                                                                                                                                                                                                                                                                                                                                                                                                                                                                                                                                                                                                                                             GCGECG?CDDCA?DD99/5599???D?AG?C?CDEGGG?L?9?D?GDDD?DD9?AA9?A9??D?D?DL???G??DED?EE?CDDC9??C9DA9//9/A9(////99?GDDGDDGGGCG9AD?CC?DGD?A999+#"++#/2/(/--9DCD??CGC9GD9?CDDDGD99995A/ /5999DDDDDGD?GDdC?DGGD?999(+//9?DG?CDCCG5A??CDCD?/+2"//99C9CCD?/SD?DC?ID/ //DDDDDCQE9DC?999D?#I^ZYK#-/9CDD?/ADAGG9?I9# AVYYVL\\KVA/?DGCLCDDC?9CA#"9EOIOSeYMjb\6I/9EGC5EGGGGDDD/+2O^fdm\juj^VmÏÏ+-?S?GDC?DD99/ KOfuVmVYu^ujra2ˆˆ+#/L5DG?CDE99-#gV\umrum^~g2.ÏˆAKE'2M?;9DDGGD?/25VYVececdrÅŒˇÍØÅ+MM#5MLG9CDGDD9/EYcmbemummˇÙˇˆç9YOc##2IGEDDDD=99(cdVjEmQdA ˇˇˇˇ∏Œu/VM9(.A99EDC9?ED?/+MEV\cCVmˆÙˇˇÍÇˇCSDLC5.9DQ=9HEDDEAA#ALLMIVSÙˇˇÙˇêÙˆADLC/259GC?CG9?DA9(5LALDLA~ˇˇˆ3πÏAM9C9//ADPEL?9LEEIA#-9LDDD2ˇÌÙYAIES9D?E2/IL?=GCDLDIML/9?A991uˇˇ—9/9-C"99D9/2VLCCCGCA?IVV+?/5//ˇˇÌI9+9DA"D?--9#A\WEEG?9LESYY5?5/9-ˇÙˇ.#A///?"9?('EYVC1?DAMEVYVA(5)5rÍˇˇπAD91(55AM\\GGQD9MIMVcf/A55¶ˇˆÂïˆ(## +'2MmmS9D9D9DMIVVYE/)52mˇˇMÏ¥2+ 2+'2+V\\L9?D?99VIcYeA2#6ŒÏÌˇ9+ +A\mdSLQ/A9/LAVVYmE++ 6ˇ /+62Mjm\D99DDA9?MIVVgVV#2 9/#5Imm\L?D9QDASL?SIcgYdA.52'52Yjrm\LLSL/9D9?LDIVYcjYEA9#/9IAjmeVLILC9?DDD??ILSAYmmSEEI//622)95AE6Ieum\ILQLC9RPC???C9ILVemwmYA5//9A95.9E5\çrj\SLD9DLG/?GDGGLGLIQIMYmmjjVIISMISYdmrsVELLLLGEG9??DCDDGL9IDMAVcmmemrrmdjrmmmjVEEEDLE?L???GGCECCGGDVDMDSMYmrjemmemj\WMLEDGDDD?DCD?DG?GG?DDDCDDLDE99EVVOIILMLMEGL9DDDLGG??CEDEDDC??G?L?M9DAMD99ISM9DLL??MGDGG?L????DGDCG?CECL/W9LLDDDMQDGDDGGLG??GED?GG??GDGCD                                                                                                                                                                                                                                                                                                                                                                                                                                                                                                                                                                                                                                                                                                                                                                                                                                                                                                                                                                                                                                                                                                                                                                                                                                                                                                                                
