/* XPM */
static char * datebook_xpm[] = {
"40 40 257 2",
"  	c None",
". 	c #FFFFFF",
"+ 	c #080808",
"@ 	c #101010",
"# 	c #181818",
"$ 	c #212121",
"% 	c #313131",
"& 	c #5A5A5A",
"* 	c #636363",
"= 	c #B5B5B5",
"- 	c #FFF7F7",
"; 	c #CECEC6",
"> 	c #D6E7E7",
", 	c #424A4A",
"' 	c #293131",
") 	c #394A4A",
"! 	c #000808",
"~ 	c #001010",
"{ 	c #004A5A",
"] 	c #31525A",
"^ 	c #08637B",
"/ 	c #002129",
"( 	c #004252",
"_ 	c #00394A",
": 	c #00526B",
"< 	c #009CC6",
"[ 	c #00A5D6",
"} 	c #29424A",
"| 	c #396B7B",
"1 	c #082129",
"2 	c #105A73",
"3 	c #08394A",
"4 	c #08A5D6",
"5 	c #08B5EF",
"6 	c #003142",
"7 	c #004A63",
"8 	c #006384",
"9 	c #006B8C",
"0 	c #007BA5",
"a 	c #0084AD",
"b 	c #0094C6",
"c 	c #009CCE",
"d 	c #00A5DE",
"e 	c #637B84",
"f 	c #214A5A",
"g 	c #218CB5",
"h 	c #29B5E7",
"i 	c #1884AD",
"j 	c #10A5DE",
"k 	c #001821",
"l 	c #002939",
"m 	c #00425A",
"n 	c #005A7B",
"o 	c #006B94",
"p 	c #00739C",
"q 	c #0084B5",
"r 	c #008CBD",
"s 	c #4A9CBD",
"t 	c #5ABDE7",
"u 	c #4294B5",
"v 	c #52BDE7",
"w 	c #29637B",
"x 	c #3194BD",
"y 	c #10394A",
"z 	c #21A5DE",
"A 	c #106384",
"B 	c #109CD6",
"C 	c #00638C",
"D 	c #0094CE",
"E 	c #00A5E7",
"F 	c #BDCED6",
"G 	c #C6E7F7",
"H 	c #84A5B5",
"I 	c #638494",
"J 	c #73A5BD",
"K 	c #639CB5",
"L 	c #63BDE7",
"M 	c #4A94B5",
"N 	c #428CAD",
"O 	c #317B9C",
"P 	c #215A73",
"Q 	c #318CB5",
"R 	c #216B8C",
"S 	c #219CD6",
"T 	c #082939",
"U 	c #1894CE",
"V 	c #189CD6",
"W 	c #106B94",
"X 	c #1094CE",
"Y 	c #002131",
"Z 	c #003952",
"` 	c #005A84",
" .	c #007BB5",
"..	c #008CCE",
"+.	c #E7F7FF",
"@.	c #C6D6DE",
"#.	c #9CCEE7",
"$.	c #94D6F7",
"%.	c #8CCEEF",
"&.	c #213139",
"*.	c #6394AD",
"=.	c #84C6E7",
"-.	c #395A6B",
";.	c #63A5C6",
">.	c #73C6EF",
",.	c #42738C",
"'.	c #6BBDE7",
").	c #4284A5",
"!.	c #4AADDE",
"~.	c #216384",
"{.	c #103142",
"].	c #184A63",
"^.	c #218CC6",
"/.	c #2194CE",
"(.	c #1084BD",
"_.	c #108CCE",
":.	c #086B9C",
"<.	c #088CCE",
"[.	c #001018",
"}.	c #004263",
"|.	c #006BA5",
"1.	c #0073AD",
"2.	c #0084C6",
"3.	c #CEDEE7",
"4.	c #9CC6DE",
"5.	c #9CD6F7",
"6.	c #293942",
"7.	c #94CEEF",
"8.	c #8CC6E7",
"9.	c #7BC6EF",
"0.	c #73BDE7",
"a.	c #427B9C",
"b.	c #081821",
"c.	c #3194CE",
"d.	c #298CC6",
"e.	c #2184BD",
"f.	c #0073B5",
"g.	c #D6EFFF",
"h.	c #B5CEDE",
"i.	c #ADC6D6",
"j.	c #738C9C",
"k.	c #ADD6EF",
"l.	c #9CCEEF",
"m.	c #638CA5",
"n.	c #7BADCE",
"o.	c #527B94",
"p.	c #73B5DE",
"q.	c #315A73",
"r.	c #318CC6",
"s.	c #2984BD",
"t.	c #107BBD",
"u.	c #006BAD",
"v.	c #0073BD",
"w.	c #849CAD",
"x.	c #84A5BD",
"y.	c #5A7384",
"z.	c #425A6B",
"A.	c #84B5D6",
"B.	c #8CC6EF",
"C.	c #395263",
"D.	c #6B9CBD",
"E.	c #73BDEF",
"F.	c #4A7B9C",
"G.	c #4A94C6",
"H.	c #3184BD",
"I.	c #2984C6",
"J.	c #1873B5",
"K.	c #001829",
"L.	c #BDDEF7",
"M.	c #9CBDD6",
"N.	c #8CADC6",
"O.	c #7394AD",
"P.	c #639CC6",
"Q.	c #5294C6",
"R.	c #3984BD",
"S.	c #217BBD",
"T.	c #A5CEEF",
"U.	c #84ADCE",
"V.	c #73A5CE",
"W.	c #4A8CC6",
"X.	c #4284BD",
"Y.	c #297BBD",
"Z.	c #2173B5",
"`.	c #1873BD",
" +	c #DEE7EF",
".+	c #D6E7F7",
"++	c #5A636B",
"@+	c #ADC6DE",
"#+	c #39424A",
"$+	c #5A6B7B",
"%+	c #526373",
"&+	c #314252",
"*+	c #182129",
"=+	c #317BBD",
"-+	c #A5ADB5",
";+	c #C6D6E7",
">+	c #A5B5C6",
",+	c #4A525A",
"'+	c #A5BDD6",
")+	c #94ADC6",
"!+	c #94B5D6",
"~+	c #212931",
"{+	c #5A738C",
"]+	c #84ADD6",
"^+	c #5A7B9C",
"/+	c #6394C6",
"(+	c #081018",
"_+	c #397BBD",
":+	c #3173B5",
"<+	c #2973BD",
"[+	c #081829",
"}+	c #000810",
"|+	c #001021",
"1+	c #737B84",
"2+	c #7BA5D6",
"3+	c #5A8CC6",
"4+	c #5284BD",
"5+	c #4A84C6",
"6+	c #316BAD",
"7+	c #3173BD",
"8+	c #296BB5",
"9+	c #8CADD6",
"0+	c #316BB5",
"a+	c #2963AD",
"b+	c #A5BDDE",
"c+	c #9CB5D6",
"d+	c #6B94CE",
"e+	c #396BAD",
"f+	c #3163A5",
"g+	c #215AA5",
"h+	c #BDCEE7",
"i+	c #7B9CCE",
"j+	c #295AA5",
"k+	c #21529C",
"l+	c #9CB5DE",
"m+	c #8CA5CE",
"n+	c #9CA5B5",
"o+	c #315AA5",
"p+	c #29529C",
"q+	c #A5B5D6",
"r+	c #D6DEEF",
"s+	c #31394A",
"t+	c #31529C",
"u+	c #9CADD6",
"v+	c #39529C",
"w+	c #C6CEE7",
"x+	c #E7E7EF",
"y+	c #EFEFF7",
"z+	c #B5B5BD",
"A+	c #DEDEEF",
"B+	c #4A4A52",
"C+	c #313139",
"D+	c #181821",
"E+	c #080810",
"F+	c #000008",
"G+	c #F7E7EF",
"H+	c #000000",
"L '.9.=.8.7.#.l.#.T.T.T.l.l.4.w.$+B+% D+$ % B+$+m.S E E d 4 j S S /.U U d.^.e.Y.",
"L 0.=.8.7.#.#.#.k.k.k.@+1++ H+H+H+H+H+H+H+H+H+H+H+H+H+$+z [ [ V V X U ^.^.^.I.e.",
"0.0.B.8.8.#.k.k.k.L.& H+H+H+H+H+H+H+# ~+D+@ H+H+H+H+H+H+H+B+d [ S /.U _.^.^.I.=+",
"'.=.8.7.#.T.h+#.n+H+H+H+H+H+C+~.0 a r q q a p n _ E+H+H+H+H+H+m.D S U /.^.I.^.e.",
"0.=.8.7.#.T.l.* H+H+H+H+] q [ b q q a a r A.r+. . =.: {.H+H+E+H+-.D U U d.^.e.s.",
"0.=.=.8.T.l.% H+H+H+6.r [ b g q q P.h+. - - - . - . 4.9 n T ~ b.H+&.X /.^.^.^.S.",
"0.0.=.#.%.% H+H+H+~.d b Q f.S.)+y+. . - - - - - - -  +9 8 8 m / Y }+3 d./.^.I.^.",
"0.9.8.E.++H+H+H+0 [ s.1.v.h.- . - - - - - . . h.U p 9 C n : n m 6 6 [.: r.d.e.Y.",
"'.=.0.w.H+H+H+0 c 1.1.9+. . - - - - . . - m+ .1.o p 9 o D.n : 7 Z _ _ F+1.r.^.^.",
"L E.0.H+H+H+9 c 1.i+. . - - - - . - > d+ .r t.g q ;. +. . K m : m _ }.Z k c.I.Y.",
"t v & H+H+&+D u G+. - - - - - . 3.V.R.X.Y.W. .Y.. . - - - - n }.m 6 ( : _ n _+^.",
"v p.H+H+H+q #.. . - - - - . r+i+/+/+5+V.3.. i.1.U.. - . - . . 7 m _ Y : : _ s.s.",
"h e H+H+P r a - - - - - - i+/+m+i+!+x+- . - . X.|. +. - . > K : m Z K._ ` m p _+",
"E H+H+H+a 0 1. .. . . h+X.3+i+i+x+- - - - - - -  . .. n.9 : m m ( Z 6 [.8 n : _+",
"!.H+H+} q p q  .G.- i+t.X.c+u+/+q+. - y+- - . - d+1.p 9 8 C K . K Y 6 }+{ o m `.",
"m.H+H+8 a p q t. .t.(.H.3.- - m+3+b+. - . - !+(.1. .0 u x+- . - . _ l [.*+0 n 1.",
"$+H+H+o p p a t.(.i 3+. . . .  +3+X.r+- M.t.1.1.r.c+o U.- . - - . ~.K.b.H+p o p ",
", H+D+p o p 0  .`.(.s. +c+H.Z.W.X.W.X.R.`.e.V. +. . 0 n - - - - -  +k 1 H+9 a p ",
"' H+~+o o o 0  . .t.g  . .H.d+U.!+V.X. .t.Q.. - - - h+: K . - - 3.6 k b.H+w q p ",
"# H+&.9 9 p p 1. . .f.R.w+- . . . . . > G.1.1. +. - . o : - - 8 ! [+( E+H+q.r 0 ",
"D+H+~+9 8 9 p p q u.V.. - . - - -  +y+- . !+|.u.x+. - ;+m R ( k / . F H+H+q.< 0 ",
"' H+~+8 n 8 o o o !+. - - - - - -  .|.@+. . @+p 9 . - N : 7 l O.. . x+H+H+| c 1.",
", H+D+: n n 8 9 g . - - y+- - . r+1.1.;+- - . s n o : m m m - . . - - H+H+O c a ",
"%+H+! : : n n n  +- . - - . - . V.1. .- - - . . C n : x.a./ . - - - . H+H+g <  .",
"^+H+H+m : : : o . - . x+h.- . -  .1.s . . - - - ).m F . '+}+)+- . - = H+H+d x Z.",
"c.H+H+T : }.{ J - - - 0 n o i g 9 n h.. - y+- . F _ K -  +[.o.- - ,+H+H+) 5 M 8+",
"D H+H+H+m m Z '+. - - : n n n 8 8 8 G+- - - - . x+l ^ - . ~ {+y+H+H+H+H+K L s a+",
"D $+H+H+6 Z 6 i.- - - @.a.n : : 7 9 . - - y+- - . k : . . f H+H+H+H+H+H+>.n.X.g+",
"<.r.H+H+(+6 Y !+- - - - . . x+N.W i.. - - - - . > F+,.. @.1 + H+H+H+H+x.5.N.a+j+",
"^.2.B+H+E+Y [.o.. - y+- - - - . - . - y+- y+- - x.! O.O.H+H+H+H+H+H+' L.4.P.g+6+",
"^.U ..H+E+b.[.6 . - - - y+- - - - - - - y+- - . ].[.b.H+! H+H++ H+H+G L.i.g+a+f+",
"Y.^.r ^+H+1 T H+>+- - y+- - - - - y+- y+- - - @.H+(++ H+H+H+H+H+H+>+.+@.4+g+j+o+",
"e.^.S.v.z.H+l k + . . - - - y+- - - - - - - . &.H++ H+H++ H+H+H+-++.> U.k+j+j+f+",
"S.Y.e.^.f.6.F+_ [.$ - - - y+- y+- - y+- . - ) H+H+H+H+H+H+H+H+>+y+> M.p+a+f+f+t+",
"Y.Y.Y.Y.s.S.y }+{ l H+@.- - - . - . - - y+D+H+H+! H+H+H+H+# h+G 3.M.g+j+o+f+o+j+",
"Y.:+Y.Z.S.Y.7+: F+m 7 E+$ = - - - . ; & H+H+H+H+H+H+H+H+j.5.L.@.U.p+g+o+o+o+j+t+",
"Z.Y.Z.Z.Y.:+S.0+:./ _ n n b.H+H+H+H+H+H+H+H+H+H+H+# I >.$.'+'+4+k+o+j+f+t+t+t+v+",
"a+a+Y.:+Z.8+Y.8+:+=+n 6 { 9 p 9 2 f s+6.6.#+z.a.d.5 v n.n.;.j+p+j+f+o+t+f+t+t+t+",
"a+:+a+8+8+:+a+Y.8+:+e+J.o : 7 8 p a r r b c c c < u s X.e+p+g+f+o+o+t+v+p+t+v+t+",
"a+:+6+6+6+a+Y.a+6+8+:+0+e+6+a+|.p p p 0 0 a a 1.Y.a+j+p+j+j+o+o+o+t+v+t+t+t+t+t+"};
