/* XPM */
static char * datebook_xpm[] = {
"40 40 158 2",
"  	c None",
". 	c #3A3A3C",
"+ 	c #828E94",
"@ 	c #5E666C",
"# 	c #A6B6BC",
"$ 	c #727A84",
"% 	c #4E5254",
"& 	c #96A2A4",
"* 	c #6A7274",
"= 	c #424644",
"- 	c #7A868C",
"; 	c #5A5E5C",
"> 	c #929A9C",
", 	c #C2CACC",
"' 	c #A2AEAC",
") 	c #6A6664",
"! 	c #8E928C",
"~ 	c #7E7A7C",
"{ 	c #9EAAAC",
"] 	c #5A565C",
"^ 	c #767274",
"/ 	c #4E4A4C",
"( 	c #3E4244",
"_ 	c #B2BEC4",
": 	c #9EA2A4",
"< 	c #625E5C",
"[ 	c #82868C",
"} 	c #6A6E6C",
"| 	c #565A5C",
"1 	c #666E74",
"2 	c #7A8284",
"3 	c #72726C",
"4 	c #4A4E4C",
"5 	c #CAD6D4",
"6 	c #8E9694",
"7 	c #423E3C",
"8 	c #666664",
"9 	c #565254",
"0 	c #8A969C",
"a 	c #AEB6B4",
"b 	c #7A7A7C",
"c 	c #4A464C",
"d 	c #5E6264",
"e 	c #9A9A9C",
"f 	c #AAAEAC",
"g 	c #9EA6A4",
"h 	c #828A8C",
"i 	c #3A3E3C",
"j 	c #8A8E94",
"k 	c #9AA6AC",
"l 	c #C6D2D4",
"m 	c #6A6A64",
"n 	c #7E8284",
"o 	c #BAC2C4",
"p 	c #626264",
"q 	c #726E6C",
"r 	c #525654",
"s 	c #6E767C",
"t 	c #464A4C",
"u 	c #7E8A8C",
"v 	c #5E5E5C",
"w 	c #969EA4",
"x 	c #92928C",
"y 	c #767674",
"z 	c #4E4E4C",
"A 	c #464244",
"B 	c #B6C2C4",
"C 	c #6E6E6C",
"D 	c #727674",
"E 	c #929694",
"F 	c #666A6C",
"G 	c #B2BABC",
"H 	c #A2A6A4",
"I 	c #868A8C",
"J 	c #626664",
"K 	c #767E84",
"L 	c #9AA2A4",
"M 	c #6E7274",
"N 	c #464644",
"O 	c #7E868C",
"P 	c #969AA4",
"Q 	c #C2CED4",
"R 	c #A6AEB4",
"S 	c #7E7E7C",
"T 	c #5A5A5C",
"U 	c #42423C",
"V 	c #CEDADC",
"W 	c #565654",
"X 	c #B2B6BC",
"Y 	c #7A7E7C",
"Z 	c #AAB2B4",
"` 	c #3E3E3C",
" .	c #8A9294",
"..	c #6E6A6C",
"+.	c #666264",
"@.	c #7A7674",
"#.	c #524E54",
"$.	c #3E3A3C",
"%.	c #868E94",
"&.	c #AAB6BC",
"*.	c #767A7C",
"=.	c #525254",
"-.	c #5A5E64",
";.	c #929AA4",
">.	c #A2AEB4",
",.	c #6A666C",
"'.	c #8E9294",
").	c #A2AAAC",
"!.	c #B6BEC4",
"~.	c #A2A2A4",
"{.	c #625E64",
"].	c #868684",
"^.	c #6A6E74",
"/.	c #565A64",
"(.	c #7A828C",
"_.	c #727274",
":.	c #4A4E54",
"<.	c #CED6DC",
"[.	c #8E969C",
"}.	c #423E44",
"|.	c #66666C",
"1.	c #AEB6BC",
"2.	c #4A4A4C",
"3.	c #5E626C",
"4.	c #9A9EA4",
"5.	c #9EA6AC",
"6.	c #828A94",
"7.	c #9AA6B4",
"8.	c #CAD2D4",
"9.	c #6A6A6C",
"0.	c #82827C",
"a.	c #AEB2AC",
"b.	c #C6CED4",
"c.	c #827E7C",
"d.	c #5E5A5C",
"e.	c #62626C",
"f.	c #52565C",
"g.	c #5E5E64",
"h.	c #929294",
"i.	c #76767C",
"j.	c #4E4E54",
"k.	c #B6C2CC",
"l.	c #6E6E74",
"m.	c #72767C",
"n.	c #92969C",
"o.	c #666A74",
"p.	c #A2A6AC",
"q.	c #868A94",
"r.	c #62666C",
"s.	c #9AA2AC",
"t.	c #6E727C",
"u.	c #46464C",
"v.	c #7E8694",
"w.	c #424244",
"x.	c #56565C",
"y.	c #7A7E84",
"z.	c #3E3E44",
"A.	c #8A929C",
"=.r x.=.=.W =.=.r x.W r r r r % j.z z 2.2.4 z % =.=.=.| | x.W x.W r x.x.=.f.| x.",
"=.=.=.W =.j.=.f.9 =.=.9 #.#.2.c A z.` ` ` ` z.7 w.t j.=.W r =.=.=.9 =.r =.9 r =.",
"=.=.=.r =.r =.% f.=.% j.t A ( ` ` z.z.z.}.( ( ` ` ( U A / f.=.f.| r T x.r x.x.| ",
"=.% =.=.=.=.W 9 =.j.2.N U ( }.= = w.N = = = N = w.A w.( = t % =.x.9 f.f.x.T r x.",
"=.% #.=.9 =.f.=.=.2.w.w.w.= = u.2.t 2.4 2.t 2.4 t u.u.w.A A N j.f.W W r f.] W f.",
"9 =.x.% % =.% z t A = w.N t 2.2.2.4 j./ #.z j.:.2.2.2.2.N = N N j.x.=.=.x.r r x.",
"=.f.=.=.r #.=.2.= A N u.2.2.4 4 c A ` . . . 7 w.2.% z 2.2.u.u.N u.=.x.T ] T =.=.",
"r f.=.=.=.r 2.N N = 2.2.2.z c ` . = % | T W % 2.$.7 u.:.:.4 t N N t % =.f.=.=.| ",
"=.=.f.=.=.2.u.= u.u.z z 2.w.$.= x.+...C _.q 3 9.p =.` A z z z 2.c N 4 =.r T W x.",
"W | x.=.=.2.N 2.z z 4 j.w.i r |.C m._.y y i.*.b y C T w.w.j.j.4 2.2.c j.=.% =.; ",
"=.=.% =.z c u.t 4 2.4 U $.% 9._.D D M m.D b y i.b *._.< N ( z 4 2.4 4 2.=.| 9 =.",
"W r =.% 4 t 2./ / j.N $.% |.D M ^ l.9.9.^.9.m._.*.@.*.M T 7 u.j.j.2.2.2.j.=.f.r ",
"=.=.=.j.t t 4 4 j./ $.2.p l._.9.|.9.F |.K & # Z t.9.9.3 _.] 7 2.% z :.2.4 =.x.T ",
"=.% =.z 2.z 2./ 4 w.( T 8 F p e.J 1 A._ V <.8.l P p F } M p 2.N j.=.z 4 / r 9 r ",
"r =.% 2.2.4 j.=.z $.4 p d d d |.(.k.Q b.l a.x ) F K e.g.d 8 T A z / z j.:.j.=.=.",
"=.r #.z 2./ z j.t ` x.d v v s >., o o ~.q g.r.7.Q <.b v T g.v t u.% #.4 / % =.=.",
"=.% z 4 4 j.% z c 2.x.| T O _ !.!.f y g.(.{ p 4.b.o H v | T v =.N % =.% / % % r ",
"z % j./ / % =.z ( 2.T x.x.l.Z Z ].{.g.k o , L p E y d d W | x.r w.j.=.#.% z =.x.",
"j.% % 4 2.=.z =.7 z W W r r } ) @ + d w B X ! T ; O >.5.W | W =.N % r =.j.=.=.r ",
"=.#.=.#.=.% % z ` z =.f.x.=.9 r.4.j < p 0.J 3.+ g.L !.G 9.=.W r N j.r =.=.% =.x.",
"% z r =.=.9 j.j.` z =.% =.f.r W v * 2 - |.W ;.o ].|.g c.x.=.#.j.N j.x.W W =.W x.",
"=.% 9 r =.=.=.4 ` 2.z =.=.=.9 1 w >.&.: R y.v > ' T T o. .9 % z N r W =.=.f.W =.",
"r % =.=.f.=.9 =.z.u.z % z % d & p.H 6 | w &.I T C =.o.{ L v j./ A % x.T W =.r ; ",
"x.=.% W W | f.% U N 4 z j.=.6.w [.w S x.w : ).p r.D r.p.w {.z 4 u.=.; T ] ; x.9 ",
"z #.=.=.=.] ] T 4 w.2.z z r  .6 T g.v @ & > s.*.t.6 | 6 8 j.2.t t f.r T x.| | =.",
"% % =.x.W | ; =./ ` 2.4 :.=.0 0 n 1 | $ 0 A.w Y 1 6 =.=./ 2.2.A / ] v d 9 9 =.=.",
"j.% =.r | F T -.9 w.w.2.2.z [ h j 6 '.'. . .[.} |.} 2.4 2.2.2.= % x.T T T | =.=.",
"r z % 9 < +.p d f.4 }.2.2.4 1 h O 6.O 6.h [ %.9 2.2.2.2.2.2.w.z p g.v | ; =.=.=.",
"% z % % ; p < 9.g.d U w.c 2.% 2 O h O O 2 h } 4 2.2.N 2.t N w.f.v p p T p =.=.% ",
"z % =.=.d.p 8 d p T -.w.= t 2.=.M y.y.y.2 9./ u.N t 2.N N w.f.v r.J T v W r % 9 ",
"#.4 j.% =.g.8 C l.8 p W 7 w.u.t 2.=.d ; z t 2.2.N N u.u.U j.F C 9.p d d =.=.% =.",
"z #.=.% j.-.9.8 C _.9.|.| A = N N t N u.N N N N u.= N U f.|.9.9.+.v p 9 =.=.x.=.",
"r % #.=.W z r.8 9.D l._.F v w.w.w.N N u.N u.= = A w.w.=.F |.q 8 v p d =.=.=.% =.",
"z #.% j.z =.=.p ....q l.D M D | N z.w.w.w.w.w.w.w.f.r.M @._.} p {.p =.=.z =.=.% ",
"% #.% =.z % % T C 8 m ..@.b _.y 9.d r % 4 j.% @ F l.b D 9.,.) v 8 9 % =.r =.=.% ",
"z % z % =.#.#.j.x._.|.,.9.q _.Y S @._.l.m.Y @.y y n @...8 v p 8 T % z j.#.j.=.=.",
"z =.=.z % % % z z W 9.^ m ) ..3 ^ b c.^ i.~ b ^ @.y ) p < |.p =.j.=.% % % =.z =.",
"j.z z z z z #.r =.% =.v 9.p p p C +.F C m m +.C +.< v p F T =.=.=.z #.#.=.=.T =.",
"4 :.=.j.% % z j.#.z % j.r p ..) p +.< p p 8 p 8 +.F +.< W =.j.=.% % % =.=.=.% =.",
"j.z 4 z j.z % z z % #.=.=.j.=.| } 9._.M F l._.8 d ] =.% j.z % z #.=.=.j.=.z =.=."};
