/* XPM */
static char * datebook_xpm[] = {
"40 40 189 2",
"  	c None",
". 	c #849CAD",
"+ 	c #5A6B7B",
"@ 	c #4A4A52",
"# 	c #313131",
"$ 	c #181821",
"% 	c #212121",
"& 	c #080808",
"* 	c #000000",
"= 	c #5A5A5A",
"- 	c #181818",
"; 	c #212931",
"> 	c #101010",
", 	c #313139",
"' 	c #216384",
") 	c #007BA5",
"! 	c #0084AD",
"~ 	c #008CBD",
"{ 	c #0084B5",
"] 	c #00739C",
"^ 	c #005A7B",
"/ 	c #00394A",
"( 	c #080810",
"_ 	c #636363",
": 	c #31525A",
"< 	c #00A5D6",
"[ 	c #0094C6",
"} 	c #84B5D6",
"| 	c #D6DEEF",
"1 	c #FFFFFF",
"2 	c #84C6E7",
"3 	c #00526B",
"4 	c #103142",
"5 	c #395A6B",
"6 	c #293942",
"7 	c #218CB5",
"8 	c #639CC6",
"9 	c #BDCEE7",
"0 	c #FFF7F7",
"a 	c #9CC6DE",
"b 	c #006B8C",
"c 	c #082939",
"d 	c #001010",
"e 	c #081821",
"f 	c #213139",
"g 	c #00A5DE",
"h 	c #318CB5",
"i 	c #0073B5",
"j 	c #217BBD",
"k 	c #94ADC6",
"l 	c #EFEFF7",
"m 	c #DEE7EF",
"n 	c #006384",
"o 	c #00425A",
"p 	c #002129",
"q 	c #002131",
"r 	c #000810",
"s 	c #08394A",
"t 	c #5A636B",
"u 	c #2984BD",
"v 	c #0073AD",
"w 	c #0073BD",
"x 	c #B5CEDE",
"y 	c #1894CE",
"z 	c #00638C",
"A 	c #003142",
"B 	c #001018",
"C 	c #009CCE",
"D 	c #8CADD6",
"E 	c #8CA5CE",
"F 	c #007BB5",
"G 	c #006B94",
"H 	c #6B9CBD",
"I 	c #004A63",
"J 	c #003952",
"K 	c #000008",
"L 	c #7B9CCE",
"M 	c #D6E7E7",
"N 	c #6B94CE",
"O 	c #107BBD",
"P 	c #63A5C6",
"Q 	c #639CB5",
"R 	c #004263",
"S 	c #001821",
"T 	c #314252",
"U 	c #0094CE",
"V 	c #4294B5",
"W 	c #F7E7EF",
"X 	c #CEDEE7",
"Y 	c #73A5CE",
"Z 	c #3984BD",
"` 	c #4284BD",
" .	c #297BBD",
"..	c #4A8CC6",
"+.	c #004252",
"@.	c #9CCEE7",
"#.	c #6394C6",
"$.	c #4A84C6",
"%.	c #ADC6D6",
"&.	c #84ADCE",
"*.	c #215A73",
"=.	c #94B5D6",
"-.	c #E7E7EF",
";.	c #006BA5",
">.	c #001829",
",.	c #005A84",
"'.	c #5A8CC6",
").	c #7BADCE",
"!.	c #29424A",
"~.	c #4A94C6",
"{.	c #9CB5D6",
"].	c #9CADD6",
"^.	c #A5B5D6",
"/.	c #004A5A",
"(.	c #638CA5",
"_.	c #1084BD",
":.	c #3184BD",
"<.	c #A5BDDE",
"[.	c #002939",
"}.	c #182129",
"|.	c #1884AD",
"1.	c #9CBDD6",
"2.	c #318CC6",
"3.	c #424A4A",
"4.	c #1873BD",
"5.	c #2173B5",
"6.	c #2184BD",
"7.	c #082129",
"8.	c #293131",
"9.	c #5294C6",
"0.	c #29637B",
"a.	c #C6CEE7",
"b.	c #000808",
"c.	c #081829",
"d.	c #315A73",
"e.	c #006BAD",
"f.	c #C6D6E7",
"g.	c #216B8C",
"h.	c #BDCED6",
"i.	c #009CC6",
"j.	c #ADC6DE",
"k.	c #428CAD",
"l.	c #7394AD",
"m.	c #396B7B",
"n.	c #4A9CBD",
"o.	c #317B9C",
"p.	c #526373",
"q.	c #84A5BD",
"r.	c #427B9C",
"s.	c #5A7B9C",
"t.	c #4284A5",
"u.	c #A5BDD6",
"v.	c #B5B5B5",
"w.	c #3194BD",
"x.	c #73A5BD",
"y.	c #527B94",
"z.	c #4A525A",
"A.	c #394A4A",
"B.	c #08B5EF",
"C.	c #4A94B5",
"D.	c #08637B",
"E.	c #5A738C",
"F.	c #63BDE7",
"G.	c #C6D6DE",
"H.	c #214A5A",
"I.	c #73C6EF",
"J.	c #081018",
"K.	c #8CADC6",
"L.	c #106B94",
"M.	c #42738C",
"N.	c #9CD6F7",
"O.	c #BDDEF7",
"P.	c #184A63",
"Q.	c #C6E7F7",
"R.	c #A5B5C6",
"S.	c #D6E7F7",
"T.	c #425A6B",
"U.	c #A5ADB5",
"V.	c #E7F7FF",
"W.	c #10394A",
"X.	c #CECEC6",
"Y.	c #738C9C",
"Z.	c #638494",
"`.	c #94D6F7",
" +	c #105A73",
".+	c #31394A",
"++	c #39424A",
"@+	c #298CC6",
"#+	c #52BDE7",
"                                + @ # $ % # @ +                                 ",
"                          & * * * * * * * * * * * * * +                         ",
"                      * * * * * * * - ; $ > * * * * * * * @                     ",
"                  * * * * * , ' ) ! ~ { { ! ] ^ / ( * * * * *                   ",
"              _ * * * * : { < [ { { ! ! ~ } | 1 1 2 3 4 * * ( * 5               ",
"            # * * * 6 ~ < [ 7 { { 8 9 1 0 0 0 1 0 1 a b ^ c d e * f             ",
"          # * * * ' g [ h i j k l 1 1 0 0 0 0 0 0 0 m b n n o p q r s           ",
"        t * * * ) < u v w x 0 1 0 0 0 0 0 1 1 x y ] b z ^ 3 ^ o A A B 3         ",
"        * * * ) C v v D 1 1 0 0 0 0 1 1 0 E F v G ] b G H ^ 3 I J / / K         ",
"      * * * b C v L 1 1 0 0 0 0 1 0 M N F ~ O 7 { P m 1 1 Q o 3 o / R J S       ",
"    = * * T U V W 1 0 0 0 0 0 1 X Y Z `  ...F  .1 1 0 0 0 0 ^ R o A +.3 / ^     ",
"    * * * { @.1 1 0 0 0 0 1 | L #.#.$.Y X 1 %.v &.1 0 1 0 1 1 I o / q 3 3 /     ",
"    * * *.~ ! 0 0 0 0 0 0 L #.E L =.-.0 1 0 1 ` ;.m 1 0 1 M Q 3 o J >./ ,.o     ",
"  * * * ! ) v F 1 1 1 9 ` '.L L -.0 0 0 0 0 0 0 F F 1 ).b 3 o o +.J A B n ^ 3   ",
"  * * !.{ ] { F ~.0 L O ` {.].#.^.1 0 l 0 0 1 0 N v ] b n z Q 1 Q q A r /.G o   ",
"(.* * n ! ] { O F O _.:.X 0 0 E '.<.1 0 1 0 =._.v F ) V -.0 1 0 1 / [.B }.) ^   ",
"+ * * G ] ] ! O _.|.'.1 1 1 1 m '.` | 0 1.O v v 2.{.G &.0 1 0 0 1 ' >.e * ] G   ",
"3.* $ ] G ] ) F 4._.u m {.:.5...` ..` Z 4.6.Y m 1 1 ) ^ 0 0 0 0 0 m S 7.* b ! ] ",
"8.* ; G G G ) F F O 7 F F :.N &.=.Y ` F O 9.1 0 0 0 9 3 Q 1 0 0 X A S e * 0.{ ] ",
"- * f b b ] ] v F F i Z a.0 1 1 1 1 1 M ~.v v m 1 0 1 G 3 0 0 n b.c.+.( * d.~ ) ",
"$ * ; b n b ] ] { e.Y 1 0 1 0 0 0 m l 0 1 =.;.e.-.1 0 f.o g.+.S p 1 h.* * d.i.) ",
"8.* ; n ^ n G G G =.1 0 0 0 0 0 0 F ;.j.1 1 j.] b 1 0 k.3 I [.l.1 1 -.* * m.C v ",
"3.* $ 3 ^ ^ n b 7 1 0 0 l 0 0 1 | v v f.0 0 1 n.^ G 3 o o o 0 1 1 0 0 * * o.C ! ",
"p.* b.3 3 ^ ^ ^ m 0 1 0 0 1 0 1 Y v F 0 0 0 1 1 z ^ 3 q.r.p 1 0 0 0 1 * * 7 i.F ",
"s.* * o 3 3 3 G 1 0 1 -.x 0 1 0 F v n.1 1 0 0 0 t.o h.1 u.r k 0 1 0 v.* * g w.5.",
"  * * c 3 R /.x.0 0 0 ) ^ G |.7 b ^ x 1 0 l 0 1 h./ Q 0 m B y.0 0 z.* * A.B.C.  ",
"  * * * o o J u.1 0 0 3 ^ ^ ^ n n n W 0 0 0 0 1 -.[.D.0 1 d E.l * * * * Q F.n.  ",
"  + * * A J A %.0 0 0 G.r.^ 3 3 I b 1 0 0 l 0 0 1 S 3 1 1 H.* * * * * * I.).`   ",
"    * * J.A q =.0 0 0 0 1 1 -.K.L.%.1 0 0 0 0 1 M K M.1 G.7.& * * * * q.N.K.    ",
"    @ * ( q B y.1 0 l 0 0 0 0 1 0 1 0 l 0 l 0 0 q.b.l.l.* * * * * * 8.O.a 8     ",
"      * ( e B A 1 0 0 0 l 0 0 0 0 0 0 0 l 0 0 1 P.B e * b.* * & * * Q.O.%.      ",
"      s.* 7.c * R.0 0 l 0 0 0 0 0 l 0 l 0 0 0 G.* J.& * * * * * * R.S.G.        ",
"        T.* [.S & 1 1 0 0 0 l 0 0 0 0 0 0 0 1 f * & * * & * * * U.V.M &.        ",
"          6 K / B % 0 0 0 l 0 l 0 0 l 0 1 0 A.* * * * * * * * R.l M 1.          ",
"            W.r /.[.* G.0 0 0 1 0 1 0 0 l $ * * b.* * * * - 9 Q.X 1.            ",
"              3 K o I ( % v.0 0 0 1 X.= * * * * * * * * Y.N.O.G.                ",
"                  p / ^ ^ e * * * * * * * * * * * - Z.I.`.u.u.                  ",
"                    ^ A /.b ] b  +H..+6 6 ++T.r.@+B.#+).).P                     ",
"                          3 I n ] ! ~ ~ [ C C C i.V n.`                         ",
"                                ] ] ] ) ) ! !                                   "};
