/* XPM */
static char * datebook_xpm[] = {
"40 40 63 1",
" 	c None",
".	c #020202",
"+	c #E6E6E6",
"@	c #8E8E8E",
"#	c #2A2A2A",
"$	c #626262",
"%	c #CACACA",
"&	c #363636",
"*	c #1E1E1E",
"=	c #424242",
"-	c #AEAEAE",
";	c #7A7A7A",
">	c #4A4A4A",
",	c #161616",
"'	c #EEEEEE",
")	c #4E4E4E",
"!	c #727272",
"~	c #F2F2F2",
"{	c #A2A2A2",
"]	c #525252",
"^	c #0E0E0E",
"/	c #DADADA",
"(	c #C2C2C2",
"_	c #5E5E5E",
":	c #6E6E6E",
"<	c #FEFEFE",
"[	c #969696",
"}	c #868686",
"|	c #0A0A0A",
"1	c #2E2E2E",
"2	c #BABABA",
"3	c #3A3A3A",
"4	c #D2D2D2",
"5	c #5A5A5A",
"6	c #666666",
"7	c #222222",
"8	c #7E7E7E",
"9	c #B2B2B2",
"0	c #E2E2E2",
"a	c #AAAAAA",
"b	c #767676",
"c	c #9A9A9A",
"d	c #565656",
"e	c #060606",
"f	c #323232",
"g	c #1A1A1A",
"h	c #121212",
"i	c #464646",
"j	c #262626",
"k	c #FAFAFA",
"l	c #A6A6A6",
"m	c #6A6A6A",
"n	c #B6B6B6",
"o	c #828282",
"p	c #DEDEDE",
"q	c #8A8A8A",
"r	c #D6D6D6",
"s	c #9E9E9E",
"t	c #3E3E3E",
"u	c #CECECE",
"v	c #BEBEBE",
"w	c #929292",
"x	c #C6C6C6",
"                6>fg7f>6                ",
"             |.............6            ",
"           .......,j,^.......>          ",
"         .....1]5_6$$$]=je.....         ",
"       $....i$bm$$__6a/<<93j..|.]       ",
"      f...f6;:!$$@%<kkk<k<v)=*|h.1      ",
"     f...];mbd6l~<<~kkkkk~+)>if,,e1     ",
"    $...5;:ddxk<~kkkk<<xbd)i=t=1jj|t    ",
"    ...5!ddl<<kkkk<<k{_d]d))@=t&##j.    ",
"   ...)!d[<<kkkk<k0@5m$!_[+<<q131#f#h   ",
"  5..tm8+<kkkkk</c!b685m<<kkkk=f1j13#=  ",
"  ..._(<<kkkk<pcqq;c/<(d{<k<k<<&fj,t3#  ",
"  ..)6$kkk~kk[q{[-+k<~<b]0<k<0@3f#h#=f  ",
" ..._5d_<<<%bo[[+kkkkkkk__<s)t1f1#7^>=t ",
" ..3$d__ok[$b9-@9<k~kk<~@dd)i>q<@g7ef)f ",
"o..>$]$$_$m:/k~{o2<~<k9md_5o+k<k<#*|75= ",
"6..)dd_$66}<<<<+obpk9$ddb9)l~<kk<]hh.]) ",
"i.,d)d55$6:+9!$8b8bb$mc+<<5=kkkkk+hg.)$d",
"1.j]))55_$!5_!@l-cb5$}<kkk%t@<k~/7hh.]$d",
",.1))ddd55dbu~<<<<<0odd+<~<)3kk>e,1|.]65",
",.j)>)dd$]c<k<kkk+'k<-]]+<kr1d1h,<x..)!5",
"1.ji=>)))-<kkkkkk5](<<vd]<kbt&*q<<+.._!d",
"i.g3==>):<kk'~k<pdd4kk<}=)t1ffk<<k~..6!$",
"_.et3===+k<kk<k<cd5kkk<<>=3sm,<kkk<..!!5",
"!..ft3t)<k<+%k<k5d}<<kkk!f%<2eak<k9..;;$",
" ..*3ffckkk_=)m:)=%<k'k<%#qk0^:kk]..=}o ",
" ...ff#n<~k3===>>i'kk~k<+*>k<^:'....@l} ",
" 6..7#7(kkk4:=t3&)<~k~kk<ht<<t......-{b ",
"  ..^j,-k~<~<<+ld(<kkkk<0.m<4ge....sxl  ",
"  >.e,^!<k'kkkk<k<k~~~~ks.q@......1rv@  ",
"   .|h|j<kkk'kk~kkkk'kk<t^h....e..pr(   ",
"   !.g7.9kk'kkkkk~~~kkk4.^|......904    ",
"    d.*he<<~k~~k~<kkkk<#.e..e...a~pl    ",
"     f.#^7kkk~k'kk'~<~i........9'0n     ",
"      1e&*.4kkk<~<kk~,..e....,%p/n      ",
"       3.f&|*9kkk<u5........}%r4        ",
"         ,j==h...........,;-(n2         ",
"          =j&)d)it&fft]m!}{{{[          ",
"             3&id$mm:!!!!8}b            ",
"                ]d]55$$                 "};
