/* XPM */
static char * memo_xpm[] = {
"40 40 159 2",
"  	c None",
". 	c #3A3634",
"+ 	c #868E94",
"@ 	c #5E6264",
"# 	c #AEBAC4",
"$ 	c #767A7C",
"% 	c #4A4E4C",
"& 	c #9AA6AC",
"* 	c #666E74",
"= 	c #565A5C",
"- 	c #8E9AA4",
"; 	c #3E4244",
"> 	c #7E868C",
", 	c #C2CED4",
"' 	c #726E6C",
") 	c #A6B2B4",
"! 	c #6A6664",
"~ 	c #7E7A7C",
"{ 	c #565254",
"] 	c #4A4644",
"^ 	c #8A969C",
"/ 	c #BEC6D4",
"( 	c #666A6C",
"_ 	c #5E5A5C",
": 	c #9A9E9C",
"< 	c #A6AAAC",
"[ 	c #6E767C",
"} 	c #666264",
"| 	c #B6C2C4",
"1 	c #7A828C",
"2 	c #525654",
"3 	c #6E6E6C",
"4 	c #464A4C",
"5 	c #727674",
"6 	c #3E3E3C",
"7 	c #8E9294",
"8 	c #727A84",
"9 	c #464244",
"0 	c #524E54",
"a 	c #A2AEB4",
"b 	c #86868C",
"c 	c #D2DAE4",
"d 	c #626664",
"e 	c #B6BEC4",
"f 	c #A2A6AC",
"g 	c #5A5E5C",
"h 	c #96A2AC",
"i 	c #AEB6BC",
"j 	c #8A9294",
"k 	c #AEBEC4",
"l 	c #4E5254",
"m 	c #969A9C",
"n 	c #424644",
"o 	c #CED6DC",
"p 	c #AAB6BC",
"q 	c #7E8284",
"r 	c #5E5E5C",
"s 	c #9AA2AC",
"t 	c #6E726C",
"u 	c #7A767C",
"v 	c #3A3A34",
"w 	c #5E626C",
"x 	c #7A7E7C",
"y 	c #4E4E4C",
"z 	c #6A727C",
"A 	c #5A5A5C",
"B 	c #7E8A94",
"C 	c #CAD2D4",
"D 	c #727274",
"E 	c #AAB2B4",
"F 	c #6A6A64",
"G 	c #565654",
"H 	c #4A4A4C",
"I 	c #92969C",
"J 	c #767674",
"K 	c #423E3C",
"L 	c #7A7E84",
"M 	c #625E5C",
"N 	c #8A8E8C",
"O 	c #62625C",
"P 	c #B2BABC",
"Q 	c #7A7A74",
"R 	c #9EAAB4",
"S 	c #6A6E6C",
"T 	c #929A9C",
"U 	c #42423C",
"V 	c #7E7E7C",
"W 	c #8E969C",
"X 	c #BECAD4",
"Y 	c #A6AEB4",
"Z 	c #666664",
"` 	c #BAC2C4",
" .	c #929294",
"..	c #767E8C",
"+.	c #464644",
"@.	c #868A8C",
"#.	c #A2AAAC",
"$.	c #9EA2A4",
"%.	c #6E727C",
"&.	c #3E3A3C",
"*.	c #828A8C",
"=.	c #76726C",
"-.	c #6E6A6C",
";.	c #5A565C",
">.	c #4A4E54",
",.	c #9EA6AC",
"'.	c #565A64",
").	c #C2CEDC",
"!.	c #A6B2BC",
"~.	c #4A464C",
"{.	c #666A74",
"].	c #9A9EA4",
"^.	c #52565C",
"/.	c #6E6E74",
"(.	c #72767C",
"_.	c #3E3E44",
":.	c #8E929C",
"<.	c #767A84",
"[.	c #525254",
"}.	c #CEDEE4",
"|.	c #62666C",
"1.	c #5A5E64",
"2.	c #8A929C",
"3.	c #B2BEC4",
"4.	c #969EA4",
"5.	c #42464C",
"6.	c #828284",
"7.	c #5E5E64",
"8.	c #6E7274",
"9.	c #C2CACC",
"0.	c #4E4A4C",
"a.	c #AAAEB4",
"b.	c #3A3A3C",
"c.	c #4E4E54",
"d.	c #5A5A64",
"e.	c #CAD2DC",
"f.	c #AAB2BC",
"g.	c #6A6A6C",
"h.	c #56565C",
"i.	c #76767C",
"j.	c #423E44",
"k.	c #625E64",
"l.	c #8A8E94",
"m.	c #626264",
"n.	c #B2BAC4",
"o.	c #7A7A7C",
"p.	c #6A6E74",
"q.	c #929AA4",
"r.	c #424244",
"s.	c #7E7E84",
"t.	c #8E96A4",
"u.	c #66666C",
"v.	c #BAC2CC",
"w.	c #46464C",
"x.	c #868A94",
"y.	c #A2AAB4",
"z.	c #9EA2AC",
"A.	c #828A94",
"B.	c #767274",
"[.[.2 h.h.h.2 [.2 [.h.[.[.G G [.l H H H H H y [.[.[.[.2 [.2 h.[.[.[.[.[.[.[.h.[.",
"^.^.[.[.l [.h.2 h.@ 2 [.= c.H +.j.U 6 b.b.&.6 6 r.w.H 0 [.[.2 h.2 2 h.^.l [.l [.",
"G d.= h.2 ^.[.= [.[.2 c.H r.6 6 _._.; ; 6 _._.6 6 6 6 r.H c.2 [.{ h.{ [.2 { 2 h.",
"{ [.G G ;.G h.{ [.c.0.+.K r.j.n n n 9 9 5.n r.r.r.r.; r.r.] c.[.l 2 l [.[.l { [.",
"[.[.[.[.{ [.^.2 l H r.r.r.n w.w.H % H % H 4 H 4 4 w.r.r.; r.+.c.c.[.2 [.h.= [.[.",
"2 ^.h.= = = G [.H n 9 5.+.H 4 H % c.% 0.y y c.y H H 4 +.w.r.; +.y [.l ^.[.c.l h.",
"[.= [.[.[.[.c.H r.n 4 4 H 0.y H U 6 b.. b.v 6 +.y y H H +.+.r.r.+.c.[.[.2 { [.[.",
"{ h.G h.h.l 0.+.+.4 H y c.% r.. _.4 [.= 2 l H &.. 9 c.y y H w.r.r.+.c.^.[.[.2 l ",
"h.l 2 [.[.l w.4 H 0.y y 9 . _.[.m.g.3 ' /.' p.d [.6 _.H 0.% H 4 +.+.H [.[.[.[.[.",
"[.{ h.= [.H H H H y l +.v 4 r 3 i.$ i.$ J L s.o.5 @ +.&.H 0.y H w.5.+.% l ^.[.h.",
"[.G 0 [.0.4 H H % c.r.b.% |.i.5 i.5 D (.$ V o.o.V i.( H 6 H 0.H H 4 w.H 0 [.[.[.",
"^.l 2 [.H 4 H y l 0.6 H m.J $ D 5 p.p./.3 p.D D $ Q D d w.r.l y % ~.+.4 % [.= [.",
"[.[.[.l H H y 0 c.K H 7./.5 /.g.|.( d p.%./.( u.g.p.3 t k.9 H y % c.H H H c.l [.",
"[.l l H H y % l H r.A g.u.u.u.m.%.L t.}.c 2.} ( |.Z p./.F [.U 0.0 y H 4 H l [.[.",
"[.{ [.y H 0 0 y 6 % m.Z m.m.z .., o o : b : } 7.m.m.m.@ d 7.+.4 % y 0.H H y [.[.",
"[.2 y H l [.2 H K h.@ 7.@ h , C P $ s :.k g.|.r d.m.|.m.7.O H r.y c.% % H [.[.l ",
"l h.[.y c.% c.w.+.= = A ( n.4.+ > , N A.e <.,.r = %.3.f.p.r G j.l 0 y H 4 c.0 [.",
"[.l c.0.2 h.[.r.H A G h.7.!., < ' e l.Y 9.X / 8.{.p $.,.4.= G 9 0.c.y [.0.y l [.",
"G l l c.{ 2 [.r.0.h.[.[.G u e s t.v.# a.m ~ z.m t.,.O :.f A 2 +.4 c.y % % y y l ",
"h.[.0 [.2 [.[.6 y l 2 [.[.h.l.n.p f 6.@ w > p Y #.-.[ ) 3 [.G 9 y [.l y c.c.l 0 ",
"[.2 [.c.{ [.[.; 0.0 [.c.l [.7.Y T r * - y.s b a V |.s V G [.y +.4 c.[.c.y 0 l [.",
"[.[.2 G = = l K y y y l [.[.G b z.t.E @.3 g B m 1.:.T h.c.c.l r.0.[.l [.l l 0 c.",
"h.[.[.G h.G ^.6 H >.y y c.c.l d )  ._ @ > R y.3 [ 4.m.y c.y y r.% [.2 G [.= l y ",
"2 A = [.h.G { U 4 0.H H y c.y [.l.+ + R 7 W + p.h Q 0 c.y c.H r.c.[.{ G [.[.0 [.",
"A 0 h.G A g ;.+.; H y H % H c.c.8 ,.@.m.{.I u.2.,.8.y y y % H 9 l = h.2 [.[.y l ",
"G g G A = _ = 0.K H H H H y H y 7.T |.z T $ 8 4.W L y H H H n 4 [.= r h.2 l l 0 ",
"c.[.[.;.@ h.@ G 6 n H H 4 H H H [.W T q.:.q W W + L y H H ] 6 [.h.1._ A A [.l l ",
"G l [.= A O @ 1.H j.w.H H H H H H 1 W j + x.+ *.q A 4 4 +.r.H ^.A m.d k.G y y 0 ",
"0 [.0 h.h.M 7.m.^.U U +.4 4 H H H %.j > B > q Z % H H H +.r.G = S m.@ r [.[.y c.",
"= y = = m.7.Z Z Z c.&.9 +.4 +.4 w.( *.> i.r H 4 w.w.+.+.r.l 1.m.} O m.A [.c.c.y ",
"l c.[.[.= g m.g.g.1.H K 9 +.+.+.+.( 3 [.H 4 +.] +.w.n _.H 1.u.|.-.} Z G c.y [.c.",
"{ l [.c.= _ @ r ( g.( w.6 r.9 +.w.+.w.+.r.+.w.w.n n j.y 7.g.$ J 3 Z A c.y l y l ",
"l y l [.[.;.7._ Z g.g.7.A _.r.r.r.9 n +.9 9 r.9 K n l |.S 8.-.3 u.! G l y c.y l ",
"[.[.0 y y [.Z m.Z Z 3 5 d @ H 6 K ; r.; r.U ; ; c.w p.8.s.B.F g.' G c.c.0 y c.y ",
"l l l [.[.l [.1.m.r Z u D D S d A H +.r.5.>.= p.D D u ' =.3 Z g.= y 0 l l y c.c.",
"[.[.0 y l [.[._ m.m._ } g.=.B.i.D 5 $ [ (.$ s.V V 3 =.! g.! D = y l y y 0.c.y y ",
"l l l l [.y c.y l m.d M @ m.3 D ' ' ' ' u 3 ' ' ' g.m.m.( ! ;.[.y c.c.l y c.c.y ",
"0 y 0 0 c.[.2 c.{ [.A Z k.r k.m.m.m.Z F } M |.Z m.r g.B.} [.y % c.y l y c.y % l ",
"[.l l [.c.c.[.l c.y l = |.S -.k.r 7.A r m.M _ m.D ( g [.y c.c.y l 0.c.l y c.0.y ",
"l l l l [.l l y l c.c.y y [.G m.-.B.B.i.D g.d M A { 0 y c.y y c.0.y y 0.c.y c.>."};
