/* XPM */
static char * memo_xpm[] = {
"40 40 257 2",
"  	c None",
". 	c #FFFFFF",
"+ 	c #080808",
"@ 	c #292929",
"# 	c #313131",
"$ 	c #4A4A4A",
"% 	c #636363",
"& 	c #C6C6C6",
"* 	c #F7F7F7",
"= 	c #F7EFEF",
"- 	c #FFF7F7",
"; 	c #FFFFF7",
"> 	c #E7EFEF",
", 	c #E7F7F7",
"' 	c #D6E7E7",
") 	c #525A5A",
"! 	c #4A5252",
"~ 	c #424A4A",
"{ 	c #293131",
"] 	c #394A4A",
"^ 	c #182121",
"/ 	c #002931",
"( 	c #002129",
"_ 	c #183942",
": 	c #08B5E7",
"< 	c #007394",
"[ 	c #007B9C",
"} 	c #009CC6",
"| 	c #00A5D6",
"1 	c #00ADDE",
"2 	c #BDD6DE",
"3 	c #8CA5AD",
"4 	c #73A5B5",
"5 	c #29424A",
"6 	c #396B7B",
"7 	c #082129",
"8 	c #105A73",
"9 	c #08394A",
"0 	c #08A5D6",
"a 	c #004A63",
"b 	c #006384",
"c 	c #006B8C",
"d 	c #007BA5",
"e 	c #0084AD",
"f 	c #0094C6",
"g 	c #009CCE",
"h 	c #00A5DE",
"i 	c #00B5EF",
"j 	c #637B84",
"k 	c #184252",
"l 	c #39A5CE",
"m 	c #29B5E7",
"n 	c #10A5DE",
"o 	c #086384",
"p 	c #001821",
"q 	c #002939",
"r 	c #00425A",
"s 	c #005A7B",
"t 	c #006B94",
"u 	c #00739C",
"v 	c #0084B5",
"w 	c #008CBD",
"x 	c #94CEE7",
"y 	c #5A94AD",
"z 	c #4A849C",
"A 	c #39738C",
"B 	c #4A9CBD",
"C 	c #4294B5",
"D 	c #52BDE7",
"E 	c #29637B",
"F 	c #398CAD",
"G 	c #4ABDEF",
"H 	c #3194BD",
"I 	c #21A5DE",
"J 	c #109CD6",
"K 	c #0884B5",
"L 	c #005273",
"M 	c #00638C",
"N 	c #0094CE",
"O 	c #00A5E7",
"P 	c #D6E7EF",
"Q 	c #C6E7F7",
"R 	c #5A6B73",
"S 	c #A5C6D6",
"T 	c #52636B",
"U 	c #6B8C9C",
"V 	c #638494",
"W 	c #7BC6E7",
"X 	c #294A5A",
"Y 	c #5AA5C6",
"Z 	c #529CBD",
"` 	c #63BDE7",
" .	c #4A94B5",
"..	c #317B9C",
"+.	c #215A73",
"@.	c #2984AD",
"#.	c #2994C6",
"$.	c #18739C",
"%.	c #219CD6",
"&.	c #082939",
"*.	c #105A7B",
"=.	c #1894CE",
"-.	c #1094CE",
";.	c #002131",
">.	c #003952",
",.	c #004A6B",
"'.	c #006B9C",
").	c #007BB5",
"!.	c #008CCE",
"~.	c #C6D6DE",
"{.	c #63737B",
"].	c #ADDEF7",
"^.	c #A5D6EF",
"/.	c #94D6F7",
"(.	c #213139",
"_.	c #84C6E7",
":.	c #395A6B",
"<.	c #73C6EF",
"[.	c #6BBDE7",
"}.	c #4284A5",
"|.	c #52A5CE",
"1.	c #4AADDE",
"2.	c #18394A",
"3.	c #103142",
"4.	c #184A63",
"5.	c #2194CE",
"6.	c #188CC6",
"7.	c #086B9C",
"8.	c #00314A",
"9.	c #0073AD",
"0.	c #007BBD",
"a.	c #0084C6",
"b.	c #6B7B84",
"c.	c #9CC6DE",
"d.	c #7BA5BD",
"e.	c #293942",
"f.	c #94CEEF",
"g.	c #73ADCE",
"h.	c #7BC6EF",
"i.	c #73BDE7",
"j.	c #427B9C",
"k.	c #52A5D6",
"l.	c #296384",
"m.	c #081821",
"n.	c #3194CE",
"o.	c #298CC6",
"p.	c #188CCE",
"q.	c #087BBD",
"r.	c #0073B5",
"s.	c #D6EFFF",
"t.	c #ADD6EF",
"u.	c #9CCEEF",
"v.	c #638CA5",
"w.	c #7BADCE",
"x.	c #63A5CE",
"y.	c #315A73",
"z.	c #428CBD",
"A.	c #318CC6",
"B.	c #2984BD",
"C.	c #217BB5",
"D.	c #1884C6",
"E.	c #107BBD",
"F.	c #006BAD",
"G.	c #BDD6E7",
"H.	c #C6E7FF",
"I.	c #849CAD",
"J.	c #7B94A5",
"K.	c #A5C6DE",
"L.	c #5A7384",
"M.	c #A5D6F7",
"N.	c #425A6B",
"O.	c #8CC6EF",
"P.	c #395263",
"Q.	c #6B9CBD",
"R.	c #6394B5",
"S.	c #73BDEF",
"T.	c #4A7B9C",
"U.	c #4A94C6",
"V.	c #318CCE",
"W.	c #2984C6",
"X.	c #2184C6",
"Y.	c #187BBD",
"Z.	c #001829",
"`.	c #B5D6EF",
" +	c #9CBDD6",
".+	c #94B5CE",
"++	c #5A84A5",
"@+	c #5A9CCE",
"#+	c #3984BD",
"$+	c #A5CEEF",
"%+	c #5A94C6",
"&+	c #4A8CC6",
"*+	c #297BBD",
"=+	c #B5C6D6",
"-+	c #5A636B",
";+	c #ADC6DE",
">+	c #39424A",
",+	c #2973B5",
"'+	c #A5ADB5",
")+	c #CEDEEF",
"!+	c #C6D6E7",
"~+	c #ADBDCE",
"{+	c #4A525A",
"]+	c #293139",
"^+	c #9CBDDE",
"/+	c #212931",
"(+	c #7BA5CE",
"_+	c #5A7B9C",
":+	c #6B9CCE",
"<+	c #6394C6",
"[+	c #528CC6",
"}+	c #081018",
"|+	c #4284C6",
"1+	c #397BBD",
"2+	c #3173B5",
"3+	c #296BAD",
"4+	c #000810",
"5+	c #D6DEE7",
"6+	c #313942",
"7+	c #7BA5D6",
"8+	c #5A8CC6",
"9+	c #2963A5",
"0+	c #296BB5",
"a+	c #2163AD",
"b+	c #8CADD6",
"c+	c #84A5CE",
"d+	c #739CCE",
"e+	c #2963AD",
"f+	c #B5C6DE",
"g+	c #A5BDDE",
"h+	c #396BAD",
"i+	c #3163A5",
"j+	c #215AA5",
"k+	c #BDCEE7",
"l+	c #295AA5",
"m+	c #9CA5B5",
"n+	c #3963AD",
"o+	c #315AA5",
"p+	c #29529C",
"q+	c #ADBDDE",
"r+	c #2952A5",
"s+	c #CED6E7",
"t+	c #A5B5DE",
"u+	c #39529C",
"v+	c #C6CEE7",
"w+	c #B5BDDE",
"x+	c #E7E7EF",
"y+	c #EFEFF7",
"z+	c #F7F7FF",
"A+	c #E7E7F7",
"B+	c #4A4A52",
"C+	c #292931",
"D+	c #181821",
"E+	c #101018",
"F+	c #000008",
"G+	c #F7EFF7",
"H+	c #000000",
"` [.h._._.f.x u.$+^.$+^.u.u.c.I.{.B+# D+^ # B+R v.I O O 1 0 n %.%.5.=.p.o.X.B.Y.",
"` i.W _.u.x $+$+k+t.t.;+b.+ H+H+H+H+H+H+H+H+H+H+H+H+H+{.I | | J J =.=.6.X.6.A.*+",
"[.W O.x x x t.t.`.].) H+H+H+H+H+H+H+D+@ ^ E+H+H+H+H+H+H+H+B+h 0 %.5.=.-.#.X.W.B.",
"[._._.O.c.$+k+t.3 H+H+H+H+H+]+l.d d e e e v d c 4.^ H+H+H+H+H+++N %.=.5.X.o.D.B.",
"i._._.u.f.t.x % H+H+H+H+X v g f v y+. . x.[ e 9.e d c _ H+H+4+H+N.N =.=.X.X.B.B.",
"i._._.x $+u.# H+H+H+6+v 1 |.B K ; . K.- . G.[ d [ t c u s &.}+p H+_ -.5.#.X.X.B.",
"i.W _.x O.# H+H+H+o | |.- . . = . v+9.9.> ;+d 9.d [ t b b b r ( ;.4+9 o.5.X.o.X.",
"i.h._.S.-+H+H+H+v 1 z.- . > P . ; ;+9.<+[+).K d e d u c b L L >.q 8.4+L A.X.B.B.",
"[.W W I.H+H+H+<.. . . ; - B.r.q+)+<+x+. :+E. +v d d u < M L r L q 8.8.F+9.A.X.X.",
"` S.i.H+H+H+l . ; P - . f+r.:+~.,+:+. .+r.z.. c+9.d d < b s y+; P q >.>.p V.o.B.",
"D D ) H+H+3.y+. %+'.|+f+&+> . . z.d+. b+C.- ; . ).d d < c . ; . ; * / ,.8.s 1+X.",
"D i.H+H+H+e ; . #+|+k+).<+. ; <+8+v+; y+- ; * . S 9.d M P ; P L 5+. U >.,.8.B.B.",
"m j H+H++.v P . > . ; *+d+. ; d+w+- - ; - . . - . 9.< Y ; . ,.8.a . ; }+b r u 1+",
": H+H+H+e [ ;+; ; ; ).E.v+; - * ; ; . . P f+!+. . d+u . . t L >.z ; . H+b s ,.1+",
"1.H+H+5 v u 9.y+. . #+b+. * * * ; . q+<+|+Y.9.~.; P  +.  +L ,.L . ; T.H+r < r Y.",
"v.H+H+b 9.[ e r.. - . ; * - ; . v+<+[+8+z.Y.K y+; . . ; c b r > ; . }+4+/+d s 9.",
"R H+H+< [ u 9.).d+; ; * - . s+<+[+8+z.[+(+P . ; * - ; Z b a d.. - r Z.m.H+u < u ",
"B+H+D+u < [ e ).9.k+. - - b+C.|+#+c+!+; . - q+).s+. P M s $.. ; o ( q 7 H+c e u ",
"{ H+/+< t t d ).).9.. ; !+F.z.g+* . . = (+K 9.F.* . d c L . . d.Z.8.q m.H+E v u ",
"D+H+(.c M u [ 9.r.).(+. * x+; . . k+#+).).9.).> . 2 b L .+. > / >.q ;.m.H+y.w d ",
"D+H+/+M b c u [ ).).9.x+; . . v+).).).r.U.P . ; ; t b c ; ; r >.8.q 7 E+H+y.} d ",
"@ H+/+b s b t < d ).9.H . ; g+d r.9.%+x+; . - ; w.b L y+. b 8.8.8./ 7 }+H+6 g 9.",
"B+H+^ L s s b t < d ).F.x+. @+'.B.k+. ; k+&+; . M L R.. =+8.r 8.q ;.E+H+H+..g e ",
"R H+F+,.,.L b M t < u d [+; * s+. . - [+'.@.. Z s s ; . > 8.8.q ;.^ }+H+H+@.} ).",
"_+H+H+r ,.L L s c c t t u - ; . . c+d '.b . ; s r > . - ; r q q 7 }++ H+H+1 H C.",
"n.H+H+&.a a ,.L s b b c s K.. ; d b b L 5+. d.>.y . * - . A p 7 m.+ H+H+~ i  .,+",
"N H+H+F+r r a ,.,.L s b s }.; S r s t > . ; >.L . - * * ; ~+H+m.E+H+H+H+Q.` B e+",
"N R H+H+8.>.>.r ,.,.,.L L s . . d.=+. ; ; }.;.; . * - - . . }++ H+H+H+H+<.w.z.j+",
"!.A.H+H+}+8.8.>.r r a ,.,.>.2 . ; . - * . =+~.. = - * * ; - ] H+H+H+H+d.M.c+3+9+",
"6.a.{+H++ 7 q 8.8.8.r r a 8.4 - - * * - * . - - * * ; . * T H+H+H+H+# ].S <+j+e+",
"o.p.a.H+}+m.7 / q 8.8.8.>.q A ; * * * * - * ; * ; ; - I.H+H+H++ H+H+Q Q K.j+9+i+",
"B.Y.a._+H+7 / E+7 / / q q ;.*.. - * * - * * - . * 3 H+H+H+H+H+H+H+~+P ~. .j+i+o+",
"B.X.X.0.P.H+q / H+E+7 ;.7 p 4.; . - * * ; . , J.H+H+H+H+H+H+H+H+'+, 5+c+p+e+9+o+",
"Y.B.B.B.0.(.F+8.&.H+H+m.m.F+e.; - * . ; 5+j 4+H+H+H+H+H+H+H+H+~+A+5+^+p+e+o+i+o+",
"*+*+*+*+W.*+>.4+r r + H+H+H+~ ; . - & B+H+H+H+H+H+H+H+H+H+E+G.Q s+ +j+l+o+l+o+l+",
",+2+Y.C.*+*+2+L F+r L 2.H+H+$ . & + H+H+H+H+H+H+H+H+H+H+U M.Q ~.c+p+j+i+o+o+o+p+",
"C.*+,+Y.,+*+,+2+7.( 8.L b k H+H+H+H+H+H+H+H+H+H+H+D+V <./.S  + .p+i+l+o+o+o+p+u+",
"0+3+,+2+,+,+,+,+2+*+s 8.r c u c 8 X 6+e.]+>+N.j.H : D w.w.Q.l+r+l+o+o+o+o+p+u+p+",
"3+2+3+,+,+2+,+,+,+2+h+C.t ,.a b u v w f f g | g f C B z.h+p+9+o+i+o+o+u+p+p+u+p+",
"3+2+3+3+3+0+3+,+3+,+3+2+n+3+3+'.u < u d d e 9.9.,+e+l+p+j+9+o+p+o+o+u+p+p+u+p+p+"};
