/* XPM */
static char * memo_xpm[] = {
"40 40 182 2",
"  	c None",
". 	c #849CAD",
"+ 	c #63737B",
"@ 	c #4A4A52",
"# 	c #313131",
"$ 	c #181821",
"% 	c #182121",
"& 	c #5A6B73",
"* 	c #638CA5",
"= 	c #6B7B84",
"- 	c #080808",
"; 	c #000000",
"> 	c #525A5A",
", 	c #292929",
"' 	c #101018",
") 	c #8CA5AD",
"! 	c #293139",
"~ 	c #296384",
"{ 	c #007BA5",
"] 	c #0084AD",
"^ 	c #0084B5",
"/ 	c #006B8C",
"( 	c #184A63",
"_ 	c #5A84A5",
": 	c #636363",
"< 	c #294A5A",
"[ 	c #009CCE",
"} 	c #0094C6",
"| 	c #EFEFF7",
"1 	c #FFFFFF",
"2 	c #63A5CE",
"3 	c #007B9C",
"4 	c #0073AD",
"5 	c #183942",
"6 	c #000810",
"7 	c #425A6B",
"8 	c #313942",
"9 	c #00ADDE",
"0 	c #52A5CE",
"a 	c #4A9CBD",
"b 	c #0884B5",
"c 	c #FFFFF7",
"d 	c #A5C6DE",
"e 	c #FFF7F7",
"f 	c #BDD6E7",
"g 	c #006B94",
"h 	c #00739C",
"i 	c #005A7B",
"j 	c #082939",
"k 	c #081018",
"l 	c #001821",
"m 	c #086384",
"n 	c #00A5D6",
"o 	c #F7EFEF",
"p 	c #C6CEE7",
"q 	c #E7EFEF",
"r 	c #ADC6DE",
"s 	c #006384",
"t 	c #00425A",
"u 	c #002129",
"v 	c #002131",
"w 	c #08394A",
"x 	c #5A636B",
"y 	c #428CBD",
"z 	c #D6E7EF",
"A 	c #6394C6",
"B 	c #528CC6",
"C 	c #007BB5",
"D 	c #005273",
"E 	c #003952",
"F 	c #002939",
"G 	c #00314A",
"H 	c #73C6EF",
"I 	c #2984BD",
"J 	c #0073B5",
"K 	c #ADBDDE",
"L 	c #CEDEEF",
"M 	c #E7E7EF",
"N 	c #6B9CCE",
"O 	c #107BBD",
"P 	c #9CBDD6",
"Q 	c #007394",
"R 	c #00638C",
"S 	c #000008",
"T 	c #39A5CE",
"U 	c #B5C6DE",
"V 	c #C6D6DE",
"W 	c #2973B5",
"X 	c #94B5CE",
"Y 	c #84A5CE",
"Z 	c #103142",
"` 	c #5A94C6",
" .	c #006B9C",
"..	c #4284C6",
"+.	c #4A8CC6",
"@.	c #739CCE",
"#.	c #8CADD6",
"$.	c #217BB5",
"%.	c #F7F7F7",
"&.	c #002931",
"*.	c #004A6B",
"=.	c #3984BD",
"-.	c #BDCEE7",
";.	c #5A8CC6",
">.	c #A5C6D6",
",.	c #D6DEE7",
"'.	c #6B8C9C",
").	c #637B84",
"!.	c #215A73",
"~.	c #297BBD",
"{.	c #B5BDDE",
"].	c #5AA5C6",
"^.	c #004A63",
"/.	c #C6D6E7",
"(.	c #4A849C",
"_.	c #29424A",
":.	c #187BBD",
"<.	c #4A7B9C",
"[.	c #212931",
"}.	c #CED6E7",
"|.	c #7BA5CE",
"1.	c #529CBD",
"2.	c #7BA5BD",
"3.	c #001829",
"4.	c #081821",
"5.	c #18739C",
"6.	c #082129",
"7.	c #293131",
"8.	c #006BAD",
"9.	c #A5BDDE",
"0.	c #29637B",
"a.	c #213139",
"b.	c #BDD6DE",
"c.	c #315A73",
"d.	c #008CBD",
"e.	c #4A94C6",
"f.	c #009CC6",
"g.	c #3194BD",
"h.	c #7BADCE",
"i.	c #396B7B",
"j.	c #5A9CCE",
"k.	c #6394B5",
"l.	c #B5C6D6",
"m.	c #317B9C",
"n.	c #2984AD",
"o.	c #5A94AD",
"p.	c #39738C",
"q.	c #424A4A",
"r.	c #00B5EF",
"s.	c #4A94B5",
"t.	c #4284A5",
"u.	c #ADBDCE",
"v.	c #6B9CBD",
"w.	c #63BDE7",
"x.	c #394A4A",
"y.	c #A5D6F7",
"z.	c #4A525A",
"A.	c #73A5B5",
"B.	c #52636B",
"C.	c #ADDEF7",
"D.	c #C6E7F7",
"E.	c #5A7B9C",
"F.	c #105A7B",
"G.	c #395263",
"H.	c #E7F7F7",
"I.	c #7B94A5",
"J.	c #A5ADB5",
"K.	c #293942",
"L.	c #E7E7F7",
"M.	c #9CBDDE",
"N.	c #C6C6C6",
"O.	c #18394A",
"P.	c #4A4A4A",
"Q.	c #184252",
"R.	c #638494",
"S.	c #94D6F7",
"T.	c #105A73",
"U.	c #39424A",
"V.	c #427B9C",
"W.	c #08B5E7",
"X.	c #52BDE7",
"Y.	c #4294B5",
"                              + + @ # $ % # @ &                                 ",
"                          - ; ; ; ; ; ; ; ; ; ; ; ; ; +                         ",
"                    > ; ; ; ; ; ; ; $ , % ' ; ; ; ; ; ; ; @                     ",
"                  ; ; ; ; ; ! ~ { { ] ] ] ^ { / ( % ; ; ; ; ; _                 ",
"              : ; ; ; ; < ^ [ } ^ | 1 1 2 3 ] 4 ] { / 5 ; ; 6 ; 7               ",
"            # ; ; ; 8 ^ 9 0 a b c 1 d e 1 f 3 { 3 g / h i j k l ; 5             ",
"          # ; ; ; m n 0 e 1 1 o 1 p 4 4 q r { 4 { 3 g s s s t u v 6 w           ",
"        x ; ; ; ^ 9 y e 1 q z 1 c r 4 A B C b { ] { h / s D D E F G 6 D         ",
"      x ; ; ; H 1 1 1 c e I J K L A M 1 N O P ^ { { h Q R D t D F G G S 4       ",
"      ; ; ; T 1 c z e 1 U J N V W N 1 X J y 1 Y 4 { { Q s i | c z F E E l       ",
"    > ; ; Z | 1 `  ...U +.q 1 1 y @.1 #.$.e c 1 C { { Q / 1 c 1 c %.&.*.G i     ",
"    ; ; ; ] c 1 =...-.C A 1 c A ;.p c | e c %.1 >.4 { R z c z D ,.1 '.E *.G     ",
"  ).; ; !.^ z 1 q 1 c ~.@.1 c @.{.e e c e 1 1 e 1 4 Q ].c 1 *.G ^.1 c k s t     ",
"  ; ; ; ] 3 r c c c C O p c e %.c c 1 1 z U /.1 1 @.h 1 1 g D E (.c 1 ; s i *.  ",
"  ; ; _.^ h 4 | 1 1 =.#.1 %.%.%.c 1 K A ..:.4 V c z P 1 P D *.D 1 c <.; t Q t   ",
"  ; ; s 4 3 ] J 1 e 1 c %.e c 1 p A B ;.y :.b | c 1 1 c / s t q c 1 k 6 [.{ i   ",
"& ; ; Q 3 h 4 C @.c c %.e 1 }.A B ;.y B |.z 1 c %.e c 1.s ^.2.1 e t 3.4.; h Q   ",
"@ ; $ h Q 3 ] C 4 -.1 e e #.$...=.Y /.c 1 e K C }.1 z R i 5.1 c m u F 6.; / ] h ",
"7.; [.Q g g { C C 4 1 c /.8.y 9.%.1 1 o |.b 4 8.%.1 { / D 1 1 2.3.G F 4.; 0.^ h ",
"$ ; a./ R h 3 4 J C |.1 %.M c 1 1 -.=.C C 4 C q 1 b.s D X 1 q &.E F v 4.; c.d.{ ",
"$ ; [.R s / h 3 C C 4 M c 1 1 p C C C J e.z 1 c c g s / c c t E G F 6.' ; c.f.{ ",
", ; [.s i s g Q { C 4 g.1 c 9.{ J 4 ` M c 1 e c h.s D | 1 s G G G &.6.k ; i.[ 4 ",
"@ ; % D i i s g Q { C 8.M 1 j. .I -.1 c -.+.c 1 R D k.1 l.G t G F v ' ; ; m.[ ] ",
"& ; S *.*.D s R g Q h { B c %.}.1 1 e B  .n.1 1.i i c 1 q G G F v % k ; ; n.f.  ",
"  ; ; t *.D D i / / g g h e c 1 1 Y {  .s 1 c i t q 1 e c t F F 6.k - ; ; 9 g.  ",
"  ; ; j ^.^.*.D i s s / i d 1 c { s s D ,.1 2.E o.1 %.e 1 p.l 6.4.- ; ; q.r.s.  ",
"  ; ; S t t ^.*.*.D i s i t.c >.t i g q 1 c E D 1 e %.%.c u.; 4.' ; ; ; v.w.a   ",
"  & ; ; G E E t *.*.*.D D i 1 1 2.l.1 c c t.v c 1 %.e e 1 1 k - ; ; ; ; H h.y   ",
"    ; ; k G G E t t ^.*.*.E b.1 c 1 e %.1 l.V 1 o e %.%.c e x.; ; ; ; 2.y.Y     ",
"    z.; - 6.F G G G t t ^.G A.e e %.%.e %.1 e e %.%.c 1 %.B.; ; ; ; # C.>.A     ",
"      ; k 4.6.&.F G G G E F p.c %.%.%.%.e %.c %.c c e . ; ; ; - ; ; D.D.d       ",
"      E.; 6.&.' 6.&.&.F F v F.1 e %.%.e %.%.e 1 %.) ; ; ; ; ; ; ; u.z V s.      ",
"        G.; F &.; ' 6.v 6.l ( c 1 e %.%.c 1 H.I.; ; ; ; ; ; ; ; J.H.,.Y         ",
"          a.S G j ; ; 4.4.S K.c e %.1 c ,.).6 ; ; ; ; ; ; ; ; u.L.,.M.          ",
"            E 6 t t - ; ; ; q.c 1 e N.@ ; ; ; ; ; ; ; ; ; ' f D.}.P             ",
"              D S t D O.; ; P.1 N.- ; ; ; ; ; ; ; ; ; ; '.y.D.V Y               ",
"                  u G D s Q.; ; ; ; ; ; ; ; ; ; ; $ R.H S.>.P s.                ",
"                    i G t / h / T.< 8 K.! U.7 V.g.W.X.h.h.v.                    ",
"                        g *.^.s h ^ d.} } [ n [ } Y.a y                         ",
"                                h Q h { { ] 4 4                                 "};
