/* XPM */
static char *memo_xpm[] = {
/* width height num_colors chars_per_pixel */
"    40    40      219            2",
/* colors */
".. c #000000",
".# c #00ffff",
".a c #060804",
".b c #0a1409",
".c c #0b1c04",
".d c #0c1414",
".e c #112c11",
".f c #140c04",
".g c #141b1c",
".h c #141c04",
".i c #15140b",
".j c #191d14",
".k c #1c241d",
".l c #1c2c13",
".m c #1c3c24",
".n c #241c14",
".o c #241c1c",
".p c #251b0c",
".q c #26241c",
".r c #272414",
".s c #292d1c",
".t c #2a242c",
".u c #2a2f24",
".v c #2a4424",
".w c #2b312c",
".x c #2b3c24",
".y c #2c3434",
".z c #2c3c1c",
".A c #2c3c2d",
".B c #2c452c",
".C c #2c4b34",
".D c #2c4c14",
".E c #34241c",
".F c #342424",
".G c #342e1c",
".H c #343024",
".I c #34313c",
".J c #34332d",
".K c #343c24",
".L c #343c3c",
".M c #344624",
".N c #344632",
".O c #34483d",
".P c #345424",
".Q c #347414",
".R c #365434",
".S c #3a553c",
".T c #3c311c",
".U c #3c3434",
".V c #3c5944",
".W c #3c6444",
".X c #3d342c",
".Y c #404424",
".Z c #404634",
".0 c #404c3e",
".1 c #413c24",
".2 c #42433c",
".3 c #42442c",
".4 c #434444",
".5 c #44542c",
".6 c #445434",
".7 c #44594c",
".8 c #44674c",
".9 c #446b54",
"#. c #448424",
"## c #45563c",
"#a c #485844",
"#b c #4a6444",
"#c c #4a6c44",
"#d c #4a8d2b",
"#e c #4b4c4c",
"#f c #4b643c",
"#g c #4b8334",
"#h c #4c3424",
"#i c #4c342c",
"#j c #4c3c24",
"#k c #4c3c2d",
"#l c #4c442c",
"#m c #4c4434",
"#n c #4c443c",
"#o c #4c4c3e",
"#p c #4c4c54",
"#q c #4c5a4d",
"#r c #4c5c5c",
"#s c #4c684f",
"#t c #4c6a5c",
"#u c #4c7034",
"#v c #4c842c",
"#w c #4c8c3c",
"#x c #4c8d34",
"#y c #52744c",
"#z c #537454",
"#A c #543c2b",
"#B c #544424",
"#C c #54442c",
"#D c #544534",
"#E c #546444",
"#F c #546c44",
"#G c #54745c",
"#H c #54803a",
"#I c #548444",
"#J c #548c24",
"#K c #548d35",
"#L c #553c34",
"#M c #554b3c",
"#N c #554c44",
"#O c #554c4c",
"#P c #55674c",
"#Q c #556c54",
"#R c #558b2c",
"#S c #575434",
"#T c #575544",
"#U c #57942c",
"#V c #58584c",
"#W c #59543c",
"#X c #595b54",
"#Y c #5a5b5c",
"#Z c #5a695c",
"#0 c #5b6c64",
"#1 c #5c744c",
"#2 c #5c7664",
"#3 c #5c8939",
"#4 c #5d7454",
"#5 c #5d8744",
"#6 c #5f755c",
"#7 c #644c40",
"#8 c #64543c",
"#9 c #645544",
"a. c #645b52",
"a# c #645c5c",
"aa c #646754",
"ab c #64685c",
"ac c #646a64",
"ad c #647474",
"ae c #647665",
"af c #64844c",
"ag c #64845c",
"ah c #64846c",
"ai c #6c6153",
"aj c #6c645c",
"ak c #6c6464",
"al c #6c7454",
"am c #6c8050",
"an c #6d6d5c",
"ao c #6d7d63",
"ap c #6f6c6c",
"aq c #706f64",
"ar c #717f6c",
"as c #72746d",
"at c #737e7c",
"au c #738074",
"av c #746c74",
"aw c #798c64",
"ax c #798c6c",
"ay c #7b8d74",
"az c #7c6c7c",
"aA c #7c746e",
"aB c #7c7c64",
"aC c #7c7d72",
"aD c #7c807c",
"aE c #7c8d7c",
"aF c #7d7164",
"aG c #828384",
"aH c #838f84",
"aI c #847c6c",
"aJ c #847e74",
"aK c #84828c",
"aL c #84918c",
"aM c #85817c",
"aN c #858f7a",
"aO c #899c8b",
"aP c #8c8484",
"aQ c #8c8f89",
"aR c #8c9294",
"aS c #8c9c94",
"aT c #93a09c",
"aU c #95928c",
"aV c #979495",
"aW c #979f93",
"aX c #989084",
"aY c #98b390",
"aZ c #9bac9c",
"a0 c #9c9f9d",
"a1 c #a5a19b",
"a2 c #a6a7a4",
"a3 c #a6ac9c",
"a4 c #a9b4a4",
"a5 c #abacac",
"a6 c #abb4ac",
"a7 c #b2bcb9",
"a8 c #b2c6bc",
"a9 c #b4aca9",
"b. c #b4b4b4",
"b# c #b4b5ab",
"ba c #bcb4ac",
"bb c #bcbcbc",
"bc c #bcc4bc",
"bd c #bcc5c4",
"be c #beb9b4",
"bf c #c3c3c3",
"bg c #c4c4b4",
"bh c #c5c5bc",
"bi c #d0d4cc",
"bj c #d3d4d4",
"bk c #d4cccc",
"bl c #d4dcd9",
"bm c #d4dce4",
"bn c #d7ebfa",
"bo c #dcd4c8",
"bp c #dedbd9",
"bq c #e4e4ec",
"br c #e4ecf4",
"bs c #ece6da",
"bt c #ecf8fc",
"bu c #edeae4",
"bv c #edecec",
"bw c #eeecf4",
"bx c #f8f7f4",
"by c #ffffff",
/* pixels */
"#m#k#D#l#l#k#m#m#m#D#k#k#k#k#m#k#m#M#D#D.1#W#M#M#D#m#m#m#m#C#D#m#l#k#l#k#m#k#m#l",
"#l#l#l.1#l#m#m#D.1#m#D#M#M#m#n#n#M#n.Z.1#m#n#M#n#m#M#M#m#l.1#l#k#l#k#m#l#m#C#m#k",
"#A#m#l.1#l#m#m#D#m#m#M#m.Z#M#n#M#o#N#na.#Nab#M#V#n#o#m#D#M#m#l#k#m#l#k#m#l#m#l#m",
"#l#m#l#m#m#D#m#D#M.1#m.Z#n#V#V#a#N#Vaqa.ab#oa##V#X#M#D#o#M#D#o#D#D#m#C#m#m#m#k#m",
"#m#l#k#m#D#M#m#l#n.Z#m#N#Taba.a.apaqabapabaAaqapaa#Va.#T#n#M#m#D.1#m#m#l#k#m#m#l",
"#k#l#k#l#m#m#D#m#k#N#O#VajaAapaqaCaqaj#VaCaqaAabaAaAapa.#T#M#o#o#m#l#m#m#l#m#l#m",
"#k#m.1#l#k#D#M#m#m#7a.ajaAaAaqa##O#V#N#o.1.Z.1#Xaiasaqaqa.#V#T#N#M#m#k#l#k#m#k#m",
"#m#l#l#M#l#m#M#D#Majaqakai#O#O#N#n.r#n#n.1.X#N#M.X.2#VaqaJaAa.#M.1#D#l#m#l.1#l#m",
"#m#k#l#D#m#m#n#N#VaIaFa.a..2.F.2.H.t.w.o.i.J.X.u.X.1#N.Z#VaAajak#O.Z.Z#l.3#C#D#k",
"#m#D#D#l#D#m#MaaaFaM#N#n.H.J.1.a.a.a.a.a.a.a.a.i.q.H.2.1#Va#ajaA#V#W#m#m.1#m#D#l",
"#k#k#k.1#W#N#Nanap.J.J.2.o.a.i.a.w.d.J.a.a.j.a.f.a.a.i.G#n#o#oasaq#V#T#M.1#l#D#D",
"#m#k#m.1#9a.a.aIap#o.1.a.a.K.a.a.j.j.j.d.k.J.1.H.i.f.a.i.k.K.1abasaa#T#n.1#k#m#D",
"#m#m#m#m#Oa.ajaq#V.j.a.a.q.g.J.w.a.a.k.j.o.i.a.s.U.u.d.a.a.J.1#qaqan#V#m.Z#m#l#l",
"#D#k#m#M#T#9ab#X.H.o.a.X.k.d.w.da5by.q.a.i.i.k.i.k.a.k.g.a.b.u.1aaaq#V.Z#m#m.1#L",
"#D#m#m#m#Na.aj#n.J.f.u.w.o.d.Ubxbxbra2apbxby.i.u.X.d.k.J.i.a.i.Kaaaq#P#m#n#m.1#m",
"#k#D#M#k#N#Vaa#O.q.d.a#N.o.oaAbyby#Ya0.abxbybybo.a.u.k.a.w.k.a.h.H.0aq#X#o#n#m.1",
"#m#7#k.1#Ma.#V.Z.k.a#m.s.q.fbyb.bi.da6.JbxbvbybvaG.a.Za4.u.2.X.a.a.Laqaa#T.1#D#D",
"#k#D.1.1#M#T#N.U.q.i.1.Z.J.abvbybk.abbbybybxbybybv.a.Jbx#N.f.U.a.a.1aa#V#N.1#D#m",
".1#k#M#M#m#o#N.u.f.i.1.1.1.daWbpbybkbybxbva5.abkby.wbhbx.i#N.n.U.a.k#T#T#N#m#n#D",
"#k#k#D#m#m#n#M.q.a.j.T#o#o.1.da5bybybybl.a.aa5bva5.ubx.w#o.q.q.1.a.k#a#o#T#k#D#D",
".1#M#k#m#D#n.1.q.f.w#N.1.1.1.2.qbsbyab.faGbyby#X.aa5bi.n.1.r#T.i.a.j#o#n#M#m#D#k",
"#m#m#D#k#M#m.X.d.f.H.G#n#T#T.1.1.IbyaVbrby#Y.a.a.dby.a.u.1.Z#W.q.a.d.1.Z#N#m#L#D",
"#n#l#D#k#m.1.1.n.a.k#N#M#D#o#V#T.ibubybx.a.abya0aDa5.4an.3#m.G.K.a.f.K.1#M#D#k#k",
"#m.1#l#D#m#k.U.n.a.o#nan#T#T#Vaj#p.abyaV#ebyby.ja0.Jbybu.i##.3.H.a.w.X.1#N#D#k#k",
"#M#k.1#D#D#m#m.j.f.g#V#oaa#V#N#Ta##oa2bybybra7.a.a#Ybxby.k#T.J.2.a.u.3.Z#l#m#m#D",
"#M#n#m#D#l#k.1.o.b.a#V#V#Vabak#Va#a..wbxbybyaR.aaqbxbybu.o#X.H.i.a.r.G.3.3#m.3.1",
"#m#k#k#m#k#D.1.H.d.a.2a.#VaaaCaqaqaA.JbhbybvaTaQbrbxa1.h#o#Y.a.a.j.d.1#D#m#D#l#k",
"#m#m#k#m#k#m#k.H.d.a.qaba##OaqaqaAaq.XaCbybybybyby.J.N#Xa..J.a.a.f.k.3#D.1.3#D#m",
"#m#D#D#M#A#l#k.q.q.j.a#n#V#Oaqabai#Vaq.qbxbybyas.a#V#T.3#q.a.a.a.w.u.1#l.3#k#m#C",
"#l#m#k#M#k#D.Z.G.q.u.a.d.J#XaA#X#Va.aA.ibyaK.a#Xa.#T#oan.a.f.d.f.h.j.3#m#m#M#D#D",
"#m#D#k#k#D#D#D.1.s.j.f.a.f.J#V#N#Vai#Vaj.1.1ap#V#na.#V.a.d.a.a.d.i.1.1.1#k#D#D#l",
"#k.1#k#k#k#D#D.3.H.b.d.f.a.a.o.1#V#T#V#N#X#X#X#N#X.G.i.a.a.f.f.j.s.3#D#l.1#D#l#k",
"#D#k#l#D#l#m#D#D#k#k.k.i.a.i.a.a.d.U#O#V#Ya#.2.k.f.a.a.a.d.b.i.s.1#l#m#k#l#m#k#l",
"#k.1#D#m#k#k#C#m#m#C.k.d.a.a.f.a.a.a.a.a.a.a.a.a.a.a.a.a.d.q.H.1.1.3#l#m#m#m#l#L",
"#k#j#m#D#l#k#m#l#k#D.2.J.n.f.i.d.a.a.a.a.a.a.a.a.a.f.d.q.n.r.H#m.Z#k#m#l#k#m#D#l",
"#l#k#k#D#m#k#D#m#k#k#M#i.X.q.p.j.i.a.f.a.a.a.f.f.d.d.i.n.q.1#T#m.1#m#k#l#m#C#m#A",
"#k.1#l#D#l#l#D#l#k#l.H.X#k#k.J.u.q.i.o.j.i.i.d.d.o.q.X.Z#m.1.Z#m#l#l#m#k#m#D#l#m",
"#k#k#D#m#l#k#m#l#k#D#D#D#M#M#m.1.X.J.1.X.H.H.H.H.H.H#m#k#l#M#D.1.H#m#m#m#l#m#l#m",
"#m#l#D#D#k#k#m#m#l#m#D#D#k#k#k#k#k#M#D#m.3#m#m#m#D#T#j#l#m#k#l#l#m#l#m#l#m#k#m#k",
".1#m#l#m#k#l#D#D#k#k#k#m#l#k#D#L#k#A.1#k#k#k#C#l.1#C#D#m#C#C#m#l#l.1#D#m#l#k#l#l"
};
