/* XPM */
static char * todo_xpm[] = {
"40 40 65 1",
" 	c None",
".	c #020202",
"+	c #EEEEEE",
"@	c #9E9E9E",
"#	c #525252",
"$	c #363636",
"%	c #2A2A2A",
"&	c #868686",
"*	c #B6B6B6",
"=	c #1E1E1E",
"-	c #727272",
";	c #CACACA",
">	c #161616",
",	c #666666",
"'	c #424242",
")	c #F6F6F6",
"!	c #D2D2D2",
"~	c #5E5E5E",
"{	c #0E0E0E",
"]	c #FAFAFA",
"^	c #DEDEDE",
"/	c #464646",
"(	c #7E7E7E",
"_	c #969696",
":	c #A2A2A2",
"<	c #323232",
"[	c #3A3A3A",
"}	c #C2C2C2",
"|	c #0A0A0A",
"1	c #FEFEFE",
"2	c #262626",
"3	c #6E6E6E",
"4	c #7A7A7A",
"5	c #565656",
"6	c #4E4E4E",
"7	c #E6E6E6",
"8	c #8A8A8A",
"9	c #AEAEAE",
"0	c #5A5A5A",
"a	c #626262",
"b	c #BEBEBE",
"c	c #1A1A1A",
"d	c #D6D6D6",
"e	c #060606",
"f	c #A6A6A6",
"g	c #8E8E8E",
"h	c #4A4A4A",
"i	c #2E2E2E",
"j	c #AAAAAA",
"k	c #BABABA",
"l	c #222222",
"m	c #828282",
"n	c #3E3E3E",
"o	c #E2E2E2",
"p	c #767676",
"q	c #121212",
"r	c #C6C6C6",
"s	c #DADADA",
"t	c #6A6A6A",
"u	c #CECECE",
"v	c #929292",
"w	c #9A9A9A",
"x	c #EAEAEA",
"y	c #F2F2F2",
"z	c #B2B2B2",
"               3.h<cl<h,,               ",
"             ..............             ",
"          5.......>=={.......h          ",
"         .....i#0~,t,~06[=.....6        ",
"       <....h,4tt,aa55#5506i..e.6       ",
"      <...$,43-p~aa(j^11+6/5'={q.<      ",
"     <...#pt(,5,g})1111]11//h/<>=e%     ",
"    <...0pp,53*+11]])])))]7h'n'i==|n    ",
"   <...0-a5(}111b7]])]]1])1f''n[%%%e5   ",
"   ...6-0,;111]d5z1)11)xo]]15'n$<2$%q   ",
"  5..n-5k11)))1@p^11}_(05&111[n[i=%[2'  ",
"  ...~j]1])]1]]g_)1_aa5~091)1m[n$%>n[2  ",
" -..6t_1)]1!u1dgk1sa-f;+11])11$ni%>%/<5 ",
" ...~00j1)18ak@@^]);s111]])]]1mi$%={h'[ ",
" ..[,5a5s1]1f3g8]1]11])))]1)117<<%=e<5< ",
"m..h050~~]1)1+_u11)))))]11j0y]1#%%=|l0'5",
",..#505~~v1)]]11^jb1]11+b,5[;1]w2%=q.#65",
"/.>#55~~~5^1))xgt-571s-5556f1]1y%%=>.6a5",
"i.%#6500~~-1]+33(b-31b604j+1]))1[c=q.#,5",
">.i6h555000b11(011^5u111111))]]1m{=>.#,0",
">.%h/650~~0-11z0]1j5_1]11]])1)11}{>>.6-0",
"%.2/'h6500~5d115,g00+1)])))]1}1))c{{.~-5",
"h.cn''/650~5811g55f111)]1]17hcg11$...,-a",
"~..[[nhh6##50)11d11!8u1]1z~$2>71]a...--0",
"-..<[[['6665#b111;0#/51dn<%=n)1)1f...44 ",
" ..=$$nn'hh6/m11p'/#6'+x['md11)]^2..'m( ",
" ..e<i$n[n'''~)1n/!1x%@]1111]]1_....vf& ",
" ,..=%%in[[nn611hh]1w2&1)]))1)'.....*:( ",
"  ..{%=i%$$[$']1(%@#22!1)]11g......wrf  ",
"  6.|c==%%<<%n)1w==>i!]]11u%.e....i!b8  ",
"   .{>c>=l=%=$1)x$#f1111b6..e..e..^^}   ",
"   -.>cc>c>=c[11111111*'..e......k7!    ",
"    6.==.ccc.-1]1]1!&[..e|...e..fy^@    ",
"     i.2=..{=11xk4[...e........kxsz     ",
"      %e<ie.............e....{;o^*      ",
"        .<ni........e.......&!^u:       ",
"         >=[/${..........>4z}**&        ",
"           2</#6/'$<in#tp&:f@g          ",
"             n$/5a3334--3(&4            ",
"                6#5505a5a               "};
