/* XPM */
static char * todo_xpm[] = {
"40 40 257 2",
"  	c None",
". 	c #39323B",
"+ 	c #8A9A9F",
"@ 	c #5A666B",
"# 	c #BDCED4",
"$ 	c #6D8394",
"% 	c #415147",
"& 	c #98B6C4",
"* 	c #766A68",
"= 	c #8A837C",
"- 	c #9F9D98",
"; 	c #5D4E54",
"> 	c #66767A",
", 	c #D2EAEC",
"' 	c #354344",
") 	c #B7B6AF",
"! 	c #686667",
"~ 	c #798F9B",
"{ 	c #D6D6D8",
"] 	c #4D5A57",
"^ 	c #91AAC1",
"/ 	c #A1AAAC",
"( 	c #8B8E90",
"_ 	c #5C5C5C",
": 	c #777676",
"< 	c #B8C2C4",
"[ 	c #949A9B",
"} 	c #4A4644",
"| 	c #C8DEE4",
"1 	c #696E70",
"2 	c #42323C",
"3 	c #7D8383",
"4 	c #4F4E51",
"5 	c #675D5B",
"6 	c #86766C",
"7 	c #CBCED1",
"8 	c #B0ACA4",
"9 	c #B1C2C9",
"0 	c #9A8E7C",
"a 	c #7D8A94",
"b 	c #A9B6BA",
"c 	c #797E81",
"d 	c #C7C6CC",
"e 	c #353A38",
"f 	c #8D969C",
"g 	c #95A2A8",
"h 	c #EAF0F0",
"i 	c #A1B2B9",
"j 	c #545654",
"k 	c #6D7679",
"l 	c #414243",
"m 	c #5D6263",
"n 	c #A9BEC9",
"o 	c #626E73",
"p 	c #B9CAD2",
"q 	c #706F6C",
"r 	c #858F92",
"s 	c #6F6665",
"t 	c #7C828D",
"u 	c #464A4A",
"v 	c #55625F",
"w 	c #6D7E8E",
"x 	c #7F7873",
"y 	c #574949",
"z 	c #CDD7DA",
"A 	c #8DA2A7",
"B 	c #96867C",
"C 	c #A0A3A4",
"D 	c #93908B",
"E 	c #52525C",
"F 	c #B0B7BB",
"G 	c #B7BEC4",
"H 	c #3D3D3B",
"I 	c #616668",
"J 	c #C6D6DD",
"K 	c #E0F2F6",
"L 	c #D8E2E6",
"M 	c #A7ABAC",
"N 	c #4B4A4B",
"O 	c #8D8A83",
"P 	c #565A5B",
"Q 	c #5C5D64",
"R 	c #BFC4C3",
"S 	c #6D7687",
"T 	c #42464C",
"U 	c #859AAE",
"V 	c #C4CED3",
"W 	c #949CA5",
"X 	c #68625C",
"Y 	c #4A5654",
"Z 	c #423E3B",
"` 	c #95A4B5",
" .	c #8596A1",
"..	c #A7A39E",
"+.	c #69717D",
"@.	c #564E52",
"#.	c #565C65",
"$.	c #77706C",
"%.	c #5A5659",
"&.	c #686A74",
"*.	c #838282",
"=.	c #CCD9E4",
"-.	c #3E323B",
";.	c #4A4E4C",
">.	c #E1EAEC",
",.	c #C0B8A8",
"'.	c #787A84",
").	c #464544",
"!.	c #707175",
"~.	c #616875",
"{.	c #E3E5EA",
"].	c #75828D",
"^.	c #9AB2C4",
"/.	c #8B929C",
"(.	c #AFB2B6",
"_.	c #6F6A74",
":.	c #83868C",
"<.	c #3E3E44",
"[.	c #7E96AC",
"}.	c #848A8E",
"|.	c #A9B8C5",
"1.	c #807E7E",
"2.	c #939699",
"3.	c #9AA2A7",
"4.	c #F1FAFC",
"5.	c #A9B2B7",
"6.	c #84919D",
"7.	c #807A7D",
"8.	c #4C3E40",
"9.	c #817270",
"0.	c #A2BED4",
"a.	c #867E7A",
"b.	c #9A9695",
"c.	c #D2E6EC",
"d.	c #D7DEE0",
"e.	c #EDF6F8",
"f.	c #99AAB1",
"g.	c #FBFEFC",
"h.	c #B2CAD4",
"i.	c #A2B6B4",
"j.	c #AA9E9C",
"k.	c #BEBEBE",
"l.	c #D1DEE2",
"m.	c #4E363C",
"n.	c #8D9DAE",
"o.	c #C0CACE",
"p.	c #63565C",
"q.	c #B6B9BF",
"r.	c #616F7E",
"s.	c #75859D",
"t.	c #98ACBD",
"u.	c #8B8585",
"v.	c #7D90A8",
"w.	c #4A464C",
"x.	c #AFADB3",
"y.	c #89A2B9",
"z.	c #DFEEF5",
"A.	c #5E626C",
"B.	c #B1BEC3",
"C.	c #907E78",
"D.	c #8E9A9F",
"E.	c #625258",
"F.	c #DAEAEF",
"G.	c #9A9C9C",
"H.	c #D2D1D7",
"I.	c #A2928C",
"J.	c #CECACC",
"K.	c #727678",
"L.	c #E6F3F5",
"M.	c #DEE4E7",
"N.	c #727985",
"O.	c #5A6876",
"P.	c #9E9EA7",
"Q.	c #A1ACB5",
"R.	c #B8C4CC",
"S.	c #665E65",
"T.	c #564A58",
"U.	c #A0A5AD",
"V.	c #939196",
"W.	c #B0B9C4",
"X.	c #A7ADB4",
"Y.	c #BFC6CC",
"Z.	c #433E44",
"`.	c #A6A6AE",
" +	c #777274",
".+	c #4A4F54",
"++	c #BEB8B8",
"@+	c #A1B7C6",
"#+	c #464A55",
"$+	c #56626F",
"%+	c #637688",
"&+	c #55565C",
"*+	c #4D4A54",
"=+	c #8B8A8D",
"-+	c #676265",
";+	c #92867C",
">+	c #3A4342",
",+	c #7E8E98",
"'+	c #625D5C",
")+	c #524244",
"!+	c #B6AE9C",
"~+	c #D2D9DA",
"{+	c #56525C",
"]+	c #625E64",
"^+	c #46464C",
"/+	c #9A9EA4",
"(+	c #9AA6B4",
"_+	c #D2DAE4",
":+	c #E6ECEA",
"<+	c #EAE6E4",
"[+	c #52464C",
"}+	c #8EA3B7",
"|+	c #F6FCFC",
"1+	c #393638",
"2+	c #BED2DA",
"3+	c #5B5255",
"4+	c #B7BAB4",
"5+	c #696A6B",
"6+	c #8C9293",
"7+	c #787A7A",
"8+	c #959E9C",
"9+	c #6A7273",
"0+	c #515254",
"a+	c #877A79",
"b+	c #CBD2D5",
"c+	c #B1C6D0",
"d+	c #C7CACD",
"e+	c #353E3D",
"f+	c #96A6AB",
"g+	c #424644",
"h+	c #6F6A6A",
"i+	c #7C868E",
"j+	c #978A84",
"k+	c #626A6B",
"l+	c #D9E6E7",
"m+	c #555E5B",
"n+	c #6C7A8A",
"o+	c #849EB4",
"p+	c #C5D2D6",
"q+	c #848684",
"r+	c #76868F",
"s+	c #9AAEB4",
"t+	c #D1E2E6",
"u+	c #626263",
"v+	c #727E89",
"w+	c #B6B2B0",
"x+	c #A2968C",
"y+	c #D6DADD",
"z+	c #42363C",
"A+	c #9A928C",
"B+	c #627274",
"C+	c #565254",
"D+	c #3E3639",
"E+	c #9AA6AA",
"F+	c #8E9EA1",
"G+	c #DAEEF4",
"H+	c #727A7B",
"&+u+j j P P E P 5+@.$+%.0+0+Q 3+0+4 4 N u N .+4 0+0+3+&+0+&+0+0+] 0+_ C+j O.j @.",
"'+C+4 4 &+0+3+%.@ &+5+Q P 0+N g+H H H <.e H Z l l )..+j 0+@.j &+&+j 0+0+4 4 {+Y ",
"j %.{+&+4 &+4 m P E C+0+N H <.Z l l l l <.H <.H Z.e <.} u j j P C+A.&+E Q j 0+4 ",
"0+&+j j &.&+0+0+Y 0+N } g+<.l l l ^+^+w.u g+).l g+l l l Z N 4 &+0+%.&+0+0+0+&+{+",
"&+C+Q q %.C+E C+4 } l l l l ^+T } N 4 y ;.*+*+).).^+} <.l l ^+E E 0+0+&+0+k+P 0+",
"T.0+{+j j 4 P N ).l l ;.N N .+4 .+P 4 ;.4 0+0+0+N ;.N u ).).g+).0+E m 0+P j C+j ",
"{+Q j %.j 0+4 u ).l ^+N .+.+0+j ).1+D+D+1+e H 0+0+;.N N u ;.} u ).4 '+C+j 0+0+{+",
"P 0+&+0+k+0+N ^+).w..+;..+N H 1+e 0+Q m m P % z+e N ;.0+;.u ).).w.u E {+4 &+&+&+",
"Q %.4 j 0+y w.N ).;.0+@.N 1+e P '+q 9.7+u.!.h+m P H H 4 4 4 u u N } .+j C+0+4 Q ",
"u+P P {+N ;.u l N 0+0+Z 1+0+u+3 c 7+q u.7.x : 7+q+S.).Z ;.4 N u u N ^+.+j E j Y ",
"&+v+%.j N w.N ;.;.N N e &+5+!.*.1.q +.H+c !.*.h+!.7+5+l z+N 0+4 ^+} N ;.0+P 0+P ",
"Y %.j 0+N ;.4 0+j @.1+4 q i+t i+u+! k '.!.o +.: 1 7.7+! H H 0+j 4 N u u 0+0+&+0+",
"j P j N ;.4 C+0+j H } ! &.1 '.9+A.'+I k+1.2+F.R.P.q k 1.I H ).0+4 0+;.4 ;.0+_ &+",
"m+&+0+w.u C+0+0+u H P u+u+P &.Q P v.=.4.:+:+=.<+L : q q h+;.<.4 4 4 ;.N N 0+j 0+",
"0+C+4 N .+0+4 0+Z 0+K.I _ s +.R.L b+B 3.J z Y.R z R.u+I ! u+H .+0+0+4 4 ;.0+0+&+",
"0+0+0+N 4 4 C+;.H P P Q w # >.y+z R.Q d Y.j+]+@ 5.R.7.u+1 _ 4 l 0+0+0+N ;.j Q P ",
"0+P 4 P 4 4 ~.N g+P Q %.-+Y.R.- u.( '.V Q _ s.R.q.o.b %.m+P C+H 0+j j ;.;.P 0+4 ",
"j P 0+0+4 I 0+l N %.j j &+3 o.B._ #.^.5.W.k.d+o.B.5.Y.u+P P j H ;.4 0+;.N 0+4 0+",
"]+4 4 ;.Q P j H ;.0+4 C+j P |.G V M c+M G G F X.F M X.K.j Q 0+Z 0+j 4 Q 0+j Q 0+",
"C+Y j 0+4 j m+Z N P 0+0+4 Y :.F G j+j j D.X.C ! %.}.(.6.P j j )..+@.P P C+4 4 &+",
"0+P 0+0+_ &+C+H N 4 ;.;.0+Y P C U.{+f /.&.7.P @ Q.q.5.g Y 0+0+l E 4 j 4 j 0+j 0+",
"&+j j _ 0+j 0+H ;.;.;.;.4 ;.j C 5.&+W.x Q 5.(.M X.M / U.0+C+0+Z P 0+P ;.P 0+j j ",
"%.j C+j Q P %.H ;.4 4 N 0+4 4 !.M %.j &+n.G.b i 2.` /.[ %.4 4 Z.4 -+C+P j j 4 4 ",
"_ 4 P C+Q P 4 D+u N ;.4 4 y ;.%.b U.E+U.2.` M F+8+j t C _ 0+N l u+Y -+u+P 0+%.j ",
"I P Q j u+m+$+0+).N ;.;.;.N 4 4 / 3.'+.+Y /+( 0+0+A.3.2.5 N N ^+0+&+A.C+4 %.0+0+",
"%.0+0+P _ k+5 m+Z N u N N N u u g c 3+Q.'+6.r  .[ 2./.r ;.4 ).#+0+u+m '+P %.j E ",
"0+0+0+0+j ! j %.H ).u N 4 N ;.*+6.2.0+c ;.,+( 2.2.V.q ).N u 1+&+P I m+P _ 0+&+0+",
"_ 4 j 9+P k+P j %.H w.;.u N N N f i+;.0+6.V.2.f 3 N N N ).} 4 P &+%.'+_ P 0+0+0+",
"P j j %.%.]+P ]+k H l w.N N ^+N r }././.}./.3+N u u ^+u [+H m+P Q '+_ m j P m+0+",
"&+0+j 3+X K.u+]+! P H ).^+^+).S =+}.c 0+N } } ;.} u } ).H #.&+Q 9+5+m P 0+N .+N ",
"4 4 0+0+~._ u+1 k+s j -.l ).N ).).u ).N ).N g+u ^+^+).H E n+I  +7+m ]+j P 0+0+4 ",
"_ 4 0+4 &+5+%.-+q !.K.P H l ).).).^+} } u ).).l l g+l m+1 r.1.: ! 5+X 4 j 0+0+0+",
"m+j C+4 0+%.Q u+I 1 q P ! e 2 ).l g+).l ^+l ).} Z.H 1 q 9+u.K.'+5 q+3+j 0+4 j P ",
"0+0+Y j 4 Y '+'+_ m -+x &.7+Q e g+l l l l l l Z.m+q ! t 5+7+5 u+: j 0+0+;.] j 0+",
"0+0+4 E 4 4 P u+! 5 X q -+*._.:  +A..+u .+Q *.1.'.}.q+*.x ! Q K.&+j 0+;.j 4 4 .+",
"y ; 0+0+4 N 0+{+Q _ 5 -+a.q : ! u.Q k+_.V.: c a+*.O : 5+h+u+!.'+&+;.0+4 0+C+0+0+",
"0+C+j Y 0+&+;.4 @._ 7+-+_ Q ! ! 5+a+=+q &.( : h+5+! h+Q Q  +%.&+0+0+0+0+N 4 0+4 ",
"0+j 0+4 4 ;.j j 4 4 &+5+u.'+P u+q u+a.: u+q h+a._ _ 5+7+j E 4 m 4 &+0+C+.+0+4 %.",
"P 0+&+0+0+0+&+4 ;.0+j 4 P '+u+h+_ u+'+_ '+Q P _ !.*.]+P 4 4 0+4 ;.4 j 4 0+0+4 0+",
"4 0+0+C+P 4 0+0+4 %.4 C+0+4 4 %._ 7.7+3 '.h+: j 3+0+0+;.j C+0+0+4 4 0+0+0+P 0+E "};
