/* XPM */
static char * todo_xpm[] = {
"40 40 257 2",
"  	c None",
". 	c #FFFFFF",
"+ 	c #080808",
"@ 	c #181818",
"# 	c #212121",
"$ 	c #292929",
"% 	c #313131",
"& 	c #636363",
"* 	c #EFEFEF",
"= 	c #F7F7F7",
"- 	c #FFF7F7",
"; 	c #FFFFF7",
"> 	c #E7EFEF",
", 	c #F7FFFF",
"' 	c #D6E7E7",
") 	c #525A5A",
"! 	c #4A5252",
"~ 	c #424A4A",
"{ 	c #293131",
"] 	c #394A4A",
"^ 	c #000808",
"/ 	c #004A5A",
"( 	c #ADCED6",
"_ 	c #002129",
": 	c #183942",
"< 	c #08B5E7",
"[ 	c #00394A",
"} 	c #00526B",
"| 	c #007394",
"1 	c #007B9C",
"2 	c #008CB5",
"3 	c #0094BD",
"4 	c #009CC6",
"5 	c #00A5D6",
"6 	c #29424A",
"7 	c #396B7B",
"8 	c #18637B",
"9 	c #105A73",
"0 	c #107B9C",
"a 	c #086B8C",
"b 	c #08A5D6",
"c 	c #004A63",
"d 	c #006384",
"e 	c #006B8C",
"f 	c #007BA5",
"g 	c #0084AD",
"h 	c #0094C6",
"i 	c #009CCE",
"j 	c #00A5DE",
"k 	c #00B5EF",
"l 	c #849CA5",
"m 	c #637B84",
"n 	c #7BBDD6",
"o 	c #184252",
"p 	c #29B5E7",
"q 	c #10A5DE",
"r 	c #001821",
"s 	c #002939",
"t 	c #00425A",
"u 	c #005A7B",
"v 	c #006B94",
"w 	c #00739C",
"x 	c #0084B5",
"y 	c #008CBD",
"z 	c #94BDCE",
"A 	c #7BB5CE",
"B 	c #5A94AD",
"C 	c #315A6B",
"D 	c #4A9CBD",
"E 	c #5ABDE7",
"F 	c #4294B5",
"G 	c #52BDE7",
"H 	c #29637B",
"I 	c #4ABDEF",
"J 	c #3194BD",
"K 	c #217394",
"L 	c #104A63",
"M 	c #21A5DE",
"N 	c #109CD6",
"O 	c #005273",
"P 	c #00638C",
"Q 	c #0094CE",
"R 	c #00A5E7",
"S 	c #DEEFF7",
"T 	c #9CADB5",
"U 	c #C6E7F7",
"V 	c #5A6B73",
"W 	c #8CADBD",
"X 	c #84A5B5",
"Y 	c #638494",
"Z 	c #73A5BD",
"` 	c #4A6B7B",
" .	c #529CBD",
"..	c #63BDE7",
"+.	c #317B9C",
"@.	c #3994BD",
"#.	c #215A73",
"$.	c #2994C6",
"%.	c #219CD6",
"&.	c #082939",
"*.	c #1894CE",
"=.	c #1094CE",
"-.	c #002131",
";.	c #003952",
">.	c #005A84",
",.	c #006B9C",
"'.	c #007BB5",
").	c #008CCE",
"!.	c #E7F7FF",
"~.	c #C6D6DE",
"{.	c #63737B",
"].	c #B5D6E7",
"^.	c #9CBDCE",
"/.	c #ADDEF7",
"(.	c #9CCEE7",
"_.	c #5A7B8C",
":.	c #84B5CE",
"<.	c #94D6F7",
"[.	c #84C6E7",
"}.	c #5A8CA5",
"|.	c #5294B5",
"1.	c #4AADDE",
"2.	c #216384",
"3.	c #103142",
"4.	c #298CBD",
"5.	c #2194CE",
"6.	c #188CC6",
"7.	c #086B9C",
"8.	c #087BB5",
"9.	c #001018",
"0.	c #00314A",
"a.	c #0073AD",
"b.	c #007BBD",
"c.	c #0084C6",
"d.	c #9CD6F7",
"e.	c #293942",
"f.	c #94CEEF",
"g.	c #73ADCE",
"h.	c #7BC6EF",
"i.	c #73BDE7",
"j.	c #427B9C",
"k.	c #296384",
"l.	c #081821",
"m.	c #3194CE",
"n.	c #188CCE",
"o.	c #0073B5",
"p.	c #D6EFFF",
"q.	c #ADC6D6",
"r.	c #738C9C",
"s.	c #ADD6EF",
"t.	c #9CCEEF",
"u.	c #739CB5",
"v.	c #638CA5",
"w.	c #84C6EF",
"x.	c #314A5A",
"y.	c #5A8CAD",
"z.	c #73B5DE",
"A.	c #315A73",
"B.	c #214A63",
"C.	c #318CC6",
"D.	c #2984BD",
"E.	c #082131",
"F.	c #1884C6",
"G.	c #107BBD",
"H.	c #002942",
"I.	c #849CAD",
"J.	c #A5C6DE",
"K.	c #5A7384",
"L.	c #425A6B",
"M.	c #8CC6EF",
"N.	c #395263",
"O.	c #6B9CBD",
"P.	c #5A94BD",
"Q.	c #3184BD",
"R.	c #2984C6",
"S.	c #2184C6",
"T.	c #187BBD",
"U.	c #B5D6EF",
"V.	c #9CBDD6",
"W.	c #8CADC6",
"X.	c #7394AD",
"Y.	c #7BA5C6",
"Z.	c #428CC6",
"`.	c #3984BD",
" +	c #217BBD",
".+	c #A5CEEF",
"++	c #8CB5D6",
"@+	c #84ADCE",
"#+	c #297BBD",
"$+	c #2173B5",
"%+	c #DEE7EF",
"&+	c #D6E7F7",
"*+	c #B5C6D6",
"=+	c #5A636B",
"-+	c #39424A",
";+	c #5A6B7B",
">+	c #526373",
",+	c #314252",
"'+	c #182129",
")+	c #317BBD",
"!+	c #2973B5",
"~+	c #CEDEEF",
"{+	c #C6D6E7",
"]+	c #ADBDCE",
"^+	c #A5B5C6",
"/+	c #A5BDD6",
"(+	c #293139",
"_+	c #212931",
":+	c #84ADD6",
"<+	c #5A7B9C",
"[+	c #6B9CCE",
"}+	c #6394C6",
"|+	c #4A84BD",
"1+	c #081018",
"2+	c #397BBD",
"3+	c #3173B5",
"4+	c #296BAD",
"5+	c #001021",
"6+	c #D6DEE7",
"7+	c #737B84",
"8+	c #313942",
"9+	c #2963A5",
"0+	c #296BB5",
"a+	c #2163AD",
"b+	c #84A5CE",
"c+	c #739CCE",
"d+	c #6B94C6",
"e+	c #316BB5",
"f+	c #2963AD",
"g+	c #ADC6E7",
"h+	c #9CB5D6",
"i+	c #6B94CE",
"j+	c #396BAD",
"k+	c #3163A5",
"l+	c #215AA5",
"m+	c #BDCEE7",
"n+	c #7B9CCE",
"o+	c #295AA5",
"p+	c #94ADD6",
"q+	c #3963AD",
"r+	c #315AA5",
"s+	c #29529C",
"t+	c #B5C6E7",
"u+	c #ADBDDE",
"v+	c #8CA5D6",
"w+	c #2952A5",
"x+	c #D6DEEF",
"y+	c #CED6E7",
"z+	c #39529C",
"A+	c #C6CEE7",
"B+	c #EFEFF7",
"C+	c #F7F7FF",
"D+	c #4A4A52",
"E+	c #292931",
"F+	c #181821",
"G+	c #000008",
"H+	c #000000",
"....h.[.[.f.(.t.(..+.+.+t.t.J.l {.D+% F+# % D+V v.M R R j b q %.%.5.*.n.R.S. +D.",
"..i.[.[.t.(.(.(.U.s.s.( 7+H+H+H+H+H+H+H+H+H+H+H+H+H+H+;+M 5 5 N N *.*.6.$.6.C. +",
"i.i.f.[.[.(.s.U.U./.) H+H+H+H+H+H+H+@ '+# 1+H+H+H+H+H+H+H+D+j b %.5.*.=.6.S.R.D.",
"..[.[.f.(..+].g+T H+H+H+H+H+(+k.f x y 3 2 x f e L # H+H+H+H+H+}.Q %.*.5.$.R.S. +",
"i.[.[.t.(.s.t.& H+H+H+H+N.2 5 h y 2 g g a.1 w w w f e : H+H++ H+N.Q *.n.S.S.4.D.",
"i.[.[.[..+t.% H+H+H+8+2 5 h 4.4.x x x @.:.~+; . B+e P w u &.9.l.H+: =.5.$.S.S. +",
"i.[.[.(.M.% H+H+H+2.j Q F !+o.T.d+*+- . ; ; . - ; ; d d d d t _ s ^ [ R.5.S.R.S.",
"i.h.[.h.=+H+H+H+f 5 4.!+o.D.V.* . . - - - = = = = - &+d u O u t s H.9.O C.S.4.D.",
"..i.i.I.H+H+H+f i T.a.Z.t+; . . J.%+- = = = - ; - = . :.u u } } ;.[ [ ^ a.C.S.S.",
"..h.i.H+H+H+e i f 3+m+; ; . - y+o.h+. - ; ; = > ' - - . w u O c t 0.c ;.r m.R.D.",
"E G ) H+H+,+i a./+. ; = = = . b+|+6+. ; t+c+Z.'.a. .. ; . } O } t H.;.} 0.u `.S.",
"G z.H+H+H+x n - . = - - ; - = d+c+- ; c+$+G.o.'.'.++; = . |.} } c [ -.} } 0.D.D.",
"p m H+H+#.3 c+. - = ; {+A+. y+d+/+. 6+$+Q.:+m+> . . - = ; . c } t ;._ [ d t w 2+",
"< H+H+H+g f f p+; = . }+$+u+b+b+x+- = m+~+; ; ; - = = = = ; |.t c ;.H.9.d u } 2+",
"1.H+H+6 2 w x a.6+. - ; :+2+d+d+- ; - ; ; - = = = - . - . ; %+t t ;.H.^ / | t T.",
"v.H+H+d f 1 '.'.b.- ; = ; B+n+m+. ; - = = = = - . ; :.f * - ; | ;.[ H.9.'+f u a.",
";+H+H+v w 1 a.8.'.[+. = - - ; ; 6+p+u+. - ; ; > J. +w O m+; - X 0.[ s l.H+w v w ",
"~ H+F+w w w g '.8.a.x+; = = > i+#+Q.o.%+; ~+`.a.a.a.e W.; - . B+;.[ s _ H+e g w ",
"{ H+_+| v | f '.b.'.Q.; - B+2+D.Z.q.`.Q.. J.,.'.Z.:.* ; - = = ; O -.s l.H+H 2 w ",
"@ H+(+e P w 1 a.'.'.'.u+. ; Z.'.; . 6+a.m+. . . ; . . = = = - . }.r E.l.H+A.y f ",
"F+H+_+P d e w 1 '.'.'.`.. ; h+'.- . p+a.c+. - ; ; = - = . - ; ; q.r _ @ H+A.4 f ",
"$ H+_+d u d v | f '.'.a.y+. ; a. +d+f '.> ; = = = = = - ; *+. - = _ 1+1+H+7 i a.",
"D+H+F+O u u d v | f '.a.}+. . d+a.a.:+; . ; = - ; - . %+d -.X.; . o H+H+H++.i g ",
">+H+^ } } O d P v | | a.'.= ; . y+. . y+}+m+. - . ^.K c 0._ %+; - ` H+H+H+4.4 '.",
"<+H+H+t } O O u e e v | v u+. ; ; m+f v d | ; y+} t ;.H.} - ; = . T H+H+H+j J $+",
"m.H+H+&.c c } O u d d e d |.; ; 4.u >.| e u * > } u B y+; ; = - x+_+H+H+] k F 3+",
"Q H+H+^ t t c } } O u >.u 0 - . } d ~.. > ;.Y.- . . ; ; - - . I.H+H+H+H+u...D a+",
"Q ;+H+H+H.;.;.t } } } O O e . ; P d - ; Z 0.B ; = - = - . = x.H+H+H+H+H+h.g.Z.o+",
").C.H+H+1+[ H.t ;.c c } c u - ; y.[ Y.2.0.[ ~.. = - ; . X.H+H+H+H+H+H+X d.W.9+9+",
"6.c.! H++ E.s H.[ [ t t ;.O = ; Z s s -.t ~.- - ; . m+3.H+^ H+H+H+H+{ /.J.}+l+f+",
"R.n.).H+1+l._ -.s 0.H.[ H.c ; - > c 2.W . ; . ; q.C H+H++ H+H++ H+H+U U ( l+f+k+",
"D.F.b.<+H+_ E.@ _ -.-.H._ } . ; . ; . ; ; . ^.B.H+H++ H+G+H+H+H+H+]+&+~.|+l+k+r+",
" +S.4.b.N.H+s E.H+@ _ E.H+_.. - ; - ; ~.r.6 H+H++ + H+^ H++ H+H+T !.6+b+s+9+9+r+",
" +D. +R.b.: G+[ H.H+H+1+'+. ; S ]+Y 6 H+H+H++ H+G+H+H+H+H+H+H+]+S 6+V.s+f+k+r+r+",
"#+#+D.#+#+)+;.^ / t + H+H+H+H+H+H+H+H+H+H+H+H+H++ H+H+H+H+1+].&+6+V.l+o+r+9+r+s+",
"!+)+!+$+#+#+3+O G+t O : H+H+H+H+H+H+H+H++ H+H+H+H+H+H+H+r./.U m+@+s+l+k+r+r+r+r+",
"$+!+$+ +!+)+#+j+7._ H.O d o 1+H+H+H+H+H+H+H+H+H+H+@ Y h.<.V./+|.s+r+9+r+r+r+s+z+",
"!+4+!+!+!+!+$+#+3+)+u 0.t d w e 9 x.8+e.(+-+L.j.$.k G A Y.d+o+w+l+r+r+r+r+s+s+s+",
"4+3+!+!+!+!+3+!+!+3+j+T.v } c d w x 3 h h 5 i i h F D Z.j+s+l+r+k+r+r+z+s+z+z+s+",
"4+e+4+4+4+!+4+0+4+0+3+j+q+j+4+,.,.w w 1 f a.g a.!+9+o+s+l+9+r+r+r+r+z+s+z+s+s+s+"};
