/* XPM */
static char *todo_xpm[] = {
/* width height num_colors chars_per_pixel */
"    40    40      219            2",
/* colors */
".. c #000000",
".# c #00ffff",
".a c #060804",
".b c #0a1409",
".c c #0b1c04",
".d c #0c1414",
".e c #112c11",
".f c #140c04",
".g c #141b1c",
".h c #141c04",
".i c #15140b",
".j c #191d14",
".k c #1c241d",
".l c #1c2c13",
".m c #1c3c24",
".n c #241c14",
".o c #241c1c",
".p c #251b0c",
".q c #26241c",
".r c #272414",
".s c #292d1c",
".t c #2a242c",
".u c #2a2f24",
".v c #2a4424",
".w c #2b312c",
".x c #2b3c24",
".y c #2c3434",
".z c #2c3c1c",
".A c #2c3c2d",
".B c #2c452c",
".C c #2c4b34",
".D c #2c4c14",
".E c #34241c",
".F c #342424",
".G c #342e1c",
".H c #343024",
".I c #34313c",
".J c #34332d",
".K c #343c24",
".L c #343c3c",
".M c #344624",
".N c #344632",
".O c #34483d",
".P c #345424",
".Q c #347414",
".R c #365434",
".S c #3a553c",
".T c #3c311c",
".U c #3c3434",
".V c #3c5944",
".W c #3c6444",
".X c #3d342c",
".Y c #404424",
".Z c #404634",
".0 c #404c3e",
".1 c #413c24",
".2 c #42433c",
".3 c #42442c",
".4 c #434444",
".5 c #44542c",
".6 c #445434",
".7 c #44594c",
".8 c #44674c",
".9 c #446b54",
"#. c #448424",
"## c #45563c",
"#a c #485844",
"#b c #4a6444",
"#c c #4a6c44",
"#d c #4a8d2b",
"#e c #4b4c4c",
"#f c #4b643c",
"#g c #4b8334",
"#h c #4c3424",
"#i c #4c342c",
"#j c #4c3c24",
"#k c #4c3c2d",
"#l c #4c442c",
"#m c #4c4434",
"#n c #4c443c",
"#o c #4c4c3e",
"#p c #4c4c54",
"#q c #4c5a4d",
"#r c #4c5c5c",
"#s c #4c684f",
"#t c #4c6a5c",
"#u c #4c7034",
"#v c #4c842c",
"#w c #4c8c3c",
"#x c #4c8d34",
"#y c #52744c",
"#z c #537454",
"#A c #543c2b",
"#B c #544424",
"#C c #54442c",
"#D c #544534",
"#E c #546444",
"#F c #546c44",
"#G c #54745c",
"#H c #54803a",
"#I c #548444",
"#J c #548c24",
"#K c #548d35",
"#L c #553c34",
"#M c #554b3c",
"#N c #554c44",
"#O c #554c4c",
"#P c #55674c",
"#Q c #556c54",
"#R c #558b2c",
"#S c #575434",
"#T c #575544",
"#U c #57942c",
"#V c #58584c",
"#W c #59543c",
"#X c #595b54",
"#Y c #5a5b5c",
"#Z c #5a695c",
"#0 c #5b6c64",
"#1 c #5c744c",
"#2 c #5c7664",
"#3 c #5c8939",
"#4 c #5d7454",
"#5 c #5d8744",
"#6 c #5f755c",
"#7 c #644c40",
"#8 c #64543c",
"#9 c #645544",
"a. c #645b52",
"a# c #645c5c",
"aa c #646754",
"ab c #64685c",
"ac c #646a64",
"ad c #647474",
"ae c #647665",
"af c #64844c",
"ag c #64845c",
"ah c #64846c",
"ai c #6c6153",
"aj c #6c645c",
"ak c #6c6464",
"al c #6c7454",
"am c #6c8050",
"an c #6d6d5c",
"ao c #6d7d63",
"ap c #6f6c6c",
"aq c #706f64",
"ar c #717f6c",
"as c #72746d",
"at c #737e7c",
"au c #738074",
"av c #746c74",
"aw c #798c64",
"ax c #798c6c",
"ay c #7b8d74",
"az c #7c6c7c",
"aA c #7c746e",
"aB c #7c7c64",
"aC c #7c7d72",
"aD c #7c807c",
"aE c #7c8d7c",
"aF c #7d7164",
"aG c #828384",
"aH c #838f84",
"aI c #847c6c",
"aJ c #847e74",
"aK c #84828c",
"aL c #84918c",
"aM c #85817c",
"aN c #858f7a",
"aO c #899c8b",
"aP c #8c8484",
"aQ c #8c8f89",
"aR c #8c9294",
"aS c #8c9c94",
"aT c #93a09c",
"aU c #95928c",
"aV c #979495",
"aW c #979f93",
"aX c #989084",
"aY c #98b390",
"aZ c #9bac9c",
"a0 c #9c9f9d",
"a1 c #a5a19b",
"a2 c #a6a7a4",
"a3 c #a6ac9c",
"a4 c #a9b4a4",
"a5 c #abacac",
"a6 c #abb4ac",
"a7 c #b2bcb9",
"a8 c #b2c6bc",
"a9 c #b4aca9",
"b. c #b4b4b4",
"b# c #b4b5ab",
"ba c #bcb4ac",
"bb c #bcbcbc",
"bc c #bcc4bc",
"bd c #bcc5c4",
"be c #beb9b4",
"bf c #c3c3c3",
"bg c #c4c4b4",
"bh c #c5c5bc",
"bi c #d0d4cc",
"bj c #d3d4d4",
"bk c #d4cccc",
"bl c #d4dcd9",
"bm c #d4dce4",
"bn c #d7ebfa",
"bo c #dcd4c8",
"bp c #dedbd9",
"bq c #e4e4ec",
"br c #e4ecf4",
"bs c #ece6da",
"bt c #ecf8fc",
"bu c #edeae4",
"bv c #edecec",
"bw c #eeecf4",
"bx c #f8f7f4",
"by c #ffffff",
/* pixels */
"#m#m#C#m#m#m#m#m#M#M.1.1#n.1#o#n#n#Va.#X#V#V#N#o.1#M.1#m.1#m#D#m#l#l#k#l#m#l#m#l",
"#l.3.1#j#m#D#m#m#o#m#m#M#V#9abaaabanaqaqaqaqana.#Va.#W#N#m#M#m#m#m#m#m#m#A#m#l#k",
"#m#D#m#l#m#D.Z#m#M#T#NajaqaIaqaCaCasanaqaCaCaAaqaAakan#T#o#m#m#m#m#m#m#D#m#k#l#k",
"#D#D#M#D#M#D#m#T#Vaia.aFaAaqa.#Vaaaa#V#T#V#Vab#XaCaaas#N#T.Z#M#M#D#M#D#D#m#k#m.1",
".1.1#m#m#D#m#n#VaiaFaqaqa.#N.Z.1.1#m#m.3.1.H#o.2aA#VaJaaaFaj#T#N#M#n#D#m#D#m#l#l",
"#k#l#m#m#m#W#Tanabaqaca##o#o.u#N.u.k.i.k.j.U.1.q.1a##NaMaqaj#q#V.1#L#N#i.1#m#k#l",
"#k#D#M#M#M#VaiaCapaMa#.2.H.i.a.a.a.a.a.a.a.a.h.u.H.Z.2#Xaqabaa#O#M#M#M#D#k#m#D#D",
"#k#m#n#m#T#Vaqarak#V#n.w.i.a.J.o.j.w.q.f.b.f.f.f.a.i.1.1#Xasaqaq#n#m#9#n#m#k#k#k",
"#m#D#m#Ma.aiaqaj#X.o.o.f.f.i.a.u.a.2.a.k.a.q.J.h.i.a.d.X.2a#aAabaj#N#M#T#l#m#k#m",
"#n#m#n#Na.aaaq#V.J.a.a.a.J.o.j.j.a.a.daGac.d.k.U.J.d.a.i.k#oabaC#V#T#9#m#D#m#m#m",
"#k.1#k#Vanaj#V.1.i.f.k.w.H.q.a.wbkbybybybyaW.d.q.i.k.q.a.j.q#V#VaC#V#o#T.1#D#k#m",
"#m#m#najaAaq.Z.d.f.k.I.q.o.2blbxbxbtbybybyby#X.d.H.J.d.a.f.i.Xa#ab#V#V#M#k#D#m#m",
"#k#n#M#N#Va.#n.1.a.f#O.f.ja9bya5.4bybraG.K#ebyby.a.w.k.w.U.f.f.q#oab#X#a#T#k#D#M",
".1#m#m#naa#Z.w.j.a.q.Hapbxbyby.a#Yby.J.a.Ibkbybvbk.c.u.q.o.H.a.d#n#Taa.0#O#m#7#k",
"#m#D#n#M#Xaa.0.j.j.J.Zbxbxbybm.jbjbtbjbrbxbybybybt.w.k.k.H.E.f.f.X###P#a#O#k#D.1",
".3.X#M#T#N.1.u.a.a.X.j#TbyaD.a.abtbybxbybxbybta#bybc.j.1#i.2.f.a.k.Z#P#V#O.1#k#M",
"#m.1#M#V#N.J.j.f.j.2.1.iaMbyacbxbybkbybybr.t.a.Jbybt.o.F#L.n.X.a.q.3#T#V#O#k#k#D",
"#m#k#k#n#T.2.u.f.1#O.1#N.abybxby.4.a.abt#e.dbjbxbvbybi.f#M#L.X.a.j.1###N#N.1#M#k",
"#D#M#k.1#n.H.a.i.u.H#n#o.2.iby.L.dbq.abjbybxbwbybybtbx.f.X.U.u.a.h.K#o#o#M#m#m#D",
"#k#D#M#M#N.H.a.a.1.X#V#Ma..jbrby.abb.aa2bybybybybqbtby.d#N#N.u.a.d.K#m#n#n#n#l#D",
"#m#m#L#M.1.u.j.a.r.1a.#V#V#X.Jbx#e.abjbybxbybtad.aa7btaC.U.2.u.a.j.H.3#m#n#m.1#l",
"#D#l#D#M#k.H.o.a.d#X#Naa#Xab.jbjbybxas.abbby.J.abjbyby.a#N.1.i.a.q.q#k#m#k#M#k.1",
"#m#m#k#D.1.H.q.f.aa#aa#oajaA.2aqbx.4#X.fapbwbbbxbybk.aa#aq.X.i.a.q.G.1#k#k#M#n#m",
"#m#k#l#k.X.H.d.I.f.u#Vaqaba.aM.dby.2aV.daQbybybya#.ka#.2#N.q.a.f.H.H#m#D.1#m#k#k",
"#l#k#C#k.1.X.i.n.a.uak#X#Xa#ab.4bvbj.aaMbqbybb.f#XaA#eak.2.a.a.a.q.H#m#D#D#m#m#k",
"#m#l#l#m#D.Z.H.a.a.j#n#naAana#.1aCbxbybybu.j.waA#e.1#V#n.a.a.a.i.u.H#D#l#k#m#D#D",
"#m#l#C#l#l.Z.J.k.o.a.a.Jaq#Xaa.ob#bxb#.q.jaA#X#Va.#oap.d.a.d.k.b.X.Z#D#l.1#l#m#k",
"#D#l#C#m.1.H.u.i.i.a.f.a.Xa.#o#P#n.q.1aq#Na#ab#n#Xaj.f.a.f.a.t.a.H.1#D#l#D#m#D#k",
"#D#k#C#D#m.1.1.1.q.j.a.d.a.d#o#N#o#V#V#V#Vab#Na..X.a.a.a.a.a.k.u.Z.3#l.1#D#k.1#k",
"#k.3.1#l#l#k#m.3.H.h.a.a.a.a.a.a.w#n#Yac#Y.2.j.a.a.a.a.a.a.h.H.1.3#m.3#l#D#D#k#l",
".Z#l#l#m#C.1#L.Z.1.r.j.i.a.a.a.a.a.a.a.a.a.a.a.a.a.a.f.d.h.u.1.3.Z#m.3#k#l#k.1#D",
"#m#l#l#l#D#k#m.Z.1.X.H.r.d.a.a.a.a.a.a.a.a.a.a.a.a.a.f.j.s.X.H.1.3#m.1#k#m#k#j#m",
".1#l#l#l#l.1#k#m#l.Z.1.X.q.j.i.a.i.a.a.a.a.a.a.o.o.d.n.H.X.Z.1#l.1#l.3#k#m#l#k#k",
"#m#m#l#l#D#k#D#k#m#m.Z.1.H.s.r.i.j.j.i.d.q.k.u.q.H.H.1#m#m#D#m#m#m#l#k#l#l#k.1#l",
"#m#m#D#l#D#m#M#m#m#k#l.1.1.H.s.H.X.X.H.H.H.H.H.H.1.1#m#D#k#m#D#D#D#m#D#k#m#k#k#D",
".1#m#l.Y#k#k#k#m#l#k#l.1.1.1.H.1.1.1.1.1.1.1#l#D#m#k#m#D#k#D#m#k#l#k#l#m#l#m#l#D",
".3#M#D#m#m#D#m#C#D#D#D#l#k.3#l#l#k#m#l#m#m#l#m#k#k#l#k#C#k#C#k#C#k#D#m#k#l.1#m#l",
"#i#D#k#k#M#k#L#m#l#m#k#l#D#m#D#k#m#l#D#m#C#k#k#l#D#l#D#l#D#k#m#k#k#l#k#k#k#k#l#k",
".1#D#n#k#M#M#m#k#l#k#m#k#l#k#l#m#C#m#C#m#k#l#m#k#l#k#m#k#m#k#C#m#l#m#D#l#D#m#k#C",
"#k#M#k#n#D#k#m#k#m#k#l#k#k#m#k#l#k#m#l#D#m#k#C#m#k#D#l#D#l#k#m#k#D#l#D#m#m#C#m#l"
};
