/* XPM */
static char * todo_xpm[] = {
"40 40 192 2",
"  	c None",
". 	c #FFFFFF",
"+ 	c #849CA5",
"@ 	c #63737B",
"# 	c #4A4A52",
"$ 	c #313131",
"% 	c #181821",
"& 	c #212121",
"* 	c #5A6B73",
"= 	c #638CA5",
"- 	c #737B84",
"; 	c #000000",
"> 	c #5A6B7B",
", 	c #525A5A",
"' 	c #181818",
") 	c #182129",
"! 	c #081018",
"~ 	c #9CADB5",
"{ 	c #293139",
"] 	c #296384",
"^ 	c #007BA5",
"/ 	c #0084B5",
"( 	c #008CBD",
"_ 	c #0094BD",
": 	c #008CB5",
"< 	c #006B8C",
"[ 	c #104A63",
"} 	c #5A8CA5",
"| 	c #636363",
"1 	c #395263",
"2 	c #00A5D6",
"3 	c #0094C6",
"4 	c #0084AD",
"5 	c #0073AD",
"6 	c #007B9C",
"7 	c #00739C",
"8 	c #183942",
"9 	c #080808",
"0 	c #313942",
"a 	c #298CBD",
"b 	c #3994BD",
"c 	c #84B5CE",
"d 	c #CEDEEF",
"e 	c #FFFFF7",
"f 	c #EFEFF7",
"g 	c #00638C",
"h 	c #005A7B",
"i 	c #082939",
"j 	c #001018",
"k 	c #081821",
"l 	c #216384",
"m 	c #00A5DE",
"n 	c #0094CE",
"o 	c #4294B5",
"p 	c #2973B5",
"q 	c #0073B5",
"r 	c #187BBD",
"s 	c #6B94C6",
"t 	c #B5C6D6",
"u 	c #FFF7F7",
"v 	c #006384",
"w 	c #00425A",
"x 	c #002129",
"y 	c #002939",
"z 	c #000808",
"A 	c #00394A",
"B 	c #5A636B",
"C 	c #2984BD",
"D 	c #9CBDD6",
"E 	c #EFEFEF",
"F 	c #F7F7F7",
"G 	c #D6E7F7",
"H 	c #005273",
"I 	c #002942",
"J 	c #849CAD",
"K 	c #009CCE",
"L 	c #428CC6",
"M 	c #B5C6E7",
"N 	c #A5C6DE",
"O 	c #DEE7EF",
"P 	c #00526B",
"Q 	c #003952",
"R 	c #3173B5",
"S 	c #BDCEE7",
"T 	c #CED6E7",
"U 	c #9CB5D6",
"V 	c #E7EFEF",
"W 	c #D6E7E7",
"X 	c #004A63",
"Y 	c #00314A",
"Z 	c #001821",
"` 	c #314252",
" .	c #A5BDD6",
"..	c #84A5CE",
"+.	c #4A84BD",
"@.	c #D6DEE7",
"#.	c #739CCE",
"$.	c #007BB5",
"%.	c #529CBD",
"&.	c #7BBDD6",
"*.	c #2173B5",
"=.	c #107BBD",
"-.	c #8CB5D6",
";.	c #5294B5",
">.	c #002131",
",.	c #637B84",
"'.	c #215A73",
").	c #C6D6E7",
"!.	c #C6CEE7",
"~.	c #3184BD",
"{.	c #84ADD6",
"].	c #94ADD6",
"^.	c #6394C6",
"/.	c #ADBDDE",
"(.	c #D6DEEF",
"_.	c #29424A",
":.	c #397BBD",
"<.	c #004A5A",
"[.	c #007394",
"}.	c #007BBD",
"|.	c #7B9CCE",
"1.	c #006B94",
"2.	c #087BB5",
"3.	c #6B9CCE",
"4.	c #217BBD",
"5.	c #84A5B5",
"6.	c #424A4A",
"7.	c #6B94CE",
"8.	c #297BBD",
"9.	c #3984BD",
"0.	c #8CADC6",
"a.	c #293131",
"b.	c #212931",
"c.	c #ADC6D6",
"d.	c #006B9C",
"e.	c #29637B",
"f.	c #082131",
"g.	c #315A73",
"h.	c #009CC6",
"i.	c #292929",
"j.	c #396B7B",
"k.	c #7394AD",
"l.	c #184252",
"m.	c #317B9C",
"n.	c #526373",
"o.	c #9CBDCE",
"p.	c #217394",
"q.	c #4A6B7B",
"r.	c #5A7B9C",
"s.	c #3194BD",
"t.	c #005A84",
"u.	c #5A94AD",
"v.	c #394A4A",
"w.	c #00B5EF",
"x.	c #107B9C",
"y.	c #C6D6DE",
"z.	c #7BA5C6",
"A.	c #739CB5",
"B.	c #63BDE7",
"C.	c #4A9CBD",
"D.	c #73A5BD",
"E.	c #314A5A",
"F.	c #7BC6EF",
"G.	c #73ADCE",
"H.	c #5A8CAD",
"I.	c #9CD6F7",
"J.	c #4A5252",
"K.	c #103142",
"L.	c #ADDEF7",
"M.	c #8CADBD",
"N.	c #315A6B",
"O.	c #C6E7F7",
"P.	c #ADCED6",
"Q.	c #214A63",
"R.	c #000008",
"S.	c #ADBDCE",
"T.	c #5A7B8C",
"U.	c #738C9C",
"V.	c #E7F7FF",
"W.	c #DEEFF7",
"X.	c #638494",
"Y.	c #B5D6E7",
"Z.	c #84ADCE",
"`.	c #94D6F7",
" +	c #105A73",
".+	c #293942",
"++	c #39424A",
"@+	c #425A6B",
"#+	c #427B9C",
"$+	c #2994C6",
"%+	c #52BDE7",
"&+	c #7BB5CE",
"                              @ ; # $ % & $ # * *                               ",
"                          ; ; ; ; ; ; ; ; ; ; ; ; ; ;                           ",
"                    , ; ; ; ; ; ; ; ' ) & ! ; ; ; ; ; ; ; #                     ",
"                  ; ; ; ; ; { ] ^ / ( _ : / ^ < [ & ; ; ; ; ; 1                 ",
"              $ ; ; ; ; 1 : 2 3 ( : 4 4 5 6 7 7 7 ^ < 8 ; ; 9 ; 1               ",
"            $ ; ; ; 0 : 2 3 a a / / / b c d e . f < g 7 h i j k ; 8             ",
"          $ ; ; ; l m n o p q r s t u . e e . u e e v v v v w x y z A           ",
"        $ ; ; ; ^ 2 a p q C D E . . u u u F F F F u G v h H h w y I j H         ",
"      $ ; ; ; ^ K r 5 L M e . . N O u F F F u e u F . c h h P P Q A A z 5       ",
"      ; ; ; < K ^ R S e e . u T q U . u e e F V W u u . 7 h H X w Y X Q Z       ",
"    , ; ; ` K 5  .. e F F F . ..+.@.. e M #.L $.5 %.. e . P H P w I Q P Y h     ",
"    ; ; ; / &.u . F u u e u F s #.u e #.*.=.q $.$.-.e F . ;.P P X A >.P P Y     ",
"  ,.; ; '._ #.. u F e ).!.. T s  .. @.*.~.{.S V . . u F e . X P w Q x A v w 7   ",
"  ; ; ; 4 ^ ^ ].e F . ^.*./.....(.u F S d e e e u F F F F e ;.w X Q I j v h P   ",
"  ; ; _.: 7 / 5 @.. u e {.:.s s u e u e e u F F F u . u . e O w w Q I z <.[.w   ",
"= ; ; v ^ 6 $.$.}.u e F e f |.S . e u F F F F u . e c ^ E u e [.Q A I j ) ^ h 5 ",
"> ; ; 1.7 6 5 2.$.3.. F u u e e @.]./.. u e e V N 4.7 H S e u 5.Y A y k ; 7 1.7 ",
"6.; % 7 7 7 4 $.2.5 (.e F F V 7.8.~.q O e d 9.5 5 5 < 0.e u . f Q A y x ; < 4 7 ",
"a.; b.[.1.[.^ $.}.$.~.e u f :.C L c.9.~.. N d.$.L c E e u F F e H >.y k ; e.: 7 ",
"' ; { < g 7 6 5 $.$.$./.. e L $.e . @.5 S . . . e . . F F F u . } Z f.k ; g.( ^ ",
"% ; b.g v < 7 6 $.$.$.9.. e U $.u . ].5 #.. u e e F u F . u e e c.Z x ' ; g.h.^ ",
"i.; b.v h v 1.[.^ $.$.5 T . e 5 4.s ^ $.V e F F F F F u e t . u F x ! ! ; j.K 5 ",
"# ; % H h h v 1.[.^ $.5 ^.. . s 5 5 {.e . e F u e u . O v >.k.e . l.; ; ; m.K 4 ",
"n.; z P P H v g 1.[.[.5 $.F e . T . . T ^.S . u . o.p.X Y x O e u q.; ; ; a h.$.",
"r.; ; w P H H h < < 1.[.1./.. e e S ^ 1.v [.e T P w Q I P u e F . ~ ; ; ; m s.  ",
"  ; ; i X X P H h v v < v ;.e e a h t.[.< h E V P h u.T e e F u (.b.; ; v.w.o   ",
"  ; ; z w w X P P H h t.h x.u . P v y.. V Q z.u . . e e u u . J ; ; ; ; A.B.C.  ",
"  > ; ; I Q Q w P P P H H < . e g v u e D.Y u.e F u F u . F E.; ; ; ; ; F.G.L   ",
"    ; ; ! A I w Q X X P X h u e H.A z.l Y A y.. F u e . k.; ; ; ; ; ; 5.I.0.    ",
"    J.; 9 f.y I A A w w Q H F e D.y y >.w y.u u e . S K.; z ; ; ; ; a.L.N ^.    ",
"      ; ! k x >.y Y I A I X e u V X l M.. e . e c.N.; ; 9 ; ; 9 ; ; O.O.P.      ",
"      r.; x f.' x >.>.I x P . e . e . e e . o.Q.; ; 9 ; R.; ; ; ; S.G y.        ",
"        1 ; y f.; ' x f.; T.. u e u e y.U._.; ; 9 9 ; z ; 9 ; ; ~ V.@...        ",
"          8 R.A I ; ; ! ) . e W.S.X._.; ; ; 9 ; R.; ; ; ; ; ; S.W.@.D           ",
"            Q z <.w 9 ; ; ; ; ; ; ; ; ; ; ; ; ; 9 ; ; ; ; ! Y.G @.D             ",
"                R.w H 8 ; ; ; ; ; ; ; ; 9 ; ; ; ; ; ; ; U.L.O.S Z.              ",
"                  x I H v l.! ; ; ; ; ; ; ; ; ; ; ' X.F.`.D  .;.                ",
"                      Y w v 7 <  +E.0 .+{ ++@+#+$+w.%+&+z.s                     ",
"                          P X v 7 / _ 3 3 2 K K 3 o C.L                         ",
"                                d.7 7 6 ^ 5 4 5 p                               "};
