/* XPM */
static char * backup_xpm[] = {
   "27 24 13 1",
   " 	c None",
   ".	c #454545",
   "+	c #B2B2B2",
   "@	c #000000",
   "#	c #FFFFFF",
   "$	c #315D00",
   "%	c #29B218",
   "&	c #18B210",
   "*	c #52B631",
   "=	c #42B629",
   "-	c #31B221",
   ";	c #08AE08",
   ">	c #848284",
   "                           ",
   "     .............         ",
   "    .+++++++++++++@        ",
   "    .+@@@@@@@@@@@+@        ",
   "    .+@....#####@+@        ",
   "    .+@.........@+@        ",
   "    .+@#########@+@        ",
   "    .+@#@#@@@@@#@+@ $$     ",
   "    .+@#########@+@ $%$    ",
   "    .+@#@#@@@@@#@+@ $%$    ",
   "    .+@#########@+@ $%&$   ",
   "    .+@########$$$$$$%&$   ",
   "    .+@@@@@@@@@$**=-%%&&$  ",
   "    .+@++++@+++$**=-%%&&$  ",
   "    .+@++++@+++$**=-%%&&;$ ",
   "    .+@@@@@@@@@$**=-%%&&;$>",
   "    .++++++++++$**=-%%&&$>>",
   "    .+..+..+..+$**=-%%&&$> ",
   "    .+..+..+..+$$$$$$%&$>> ",
   "    .++++++++++>>>>>$%&$>  ",
   "     @@@@@@@@@@@@@  $%$>>  ",
   "                    $%$>   ",
   "                    $$>>   ",
   "                     >>    "
};

