/* XPM */
static char * cancel_sync_xpm[] = {
"27 24 9 1",
" 	c None",
".	c #E30000",
"+	c #6B0000",
"@	c #020043",
"#	c #9D0505",
"$	c #002EC9",
"%	c #00A0FF",
"&	c #002DC8",
"*	c #F71711",
"                           ",
"     .     ++++      .     ",
"    ... ++++     @  ...    ",
"   .....#+      @$@.....   ",
"    .....      @%$.....    ",
"     .....    @%$.....     ",
"    +#.....@ @%$.....$@    ",
"    +#+.....@%%.....$$@    ",
"   +##+ .....%.....@&$$@   ",
"   +#+   .........  @$$@   ",
"   +#+    .......   @$$@   ",
"   +#+    .......    @$@   ",
"   +#+    .......    @$@   ",
"   +##+   .......    @$@   ",
"   +##+  .........   @$@   ",
"   +###+.....*..... @$$@   ",
"    +##.....**+.....@$@    ",
"    +#.....#*+ +.....$@    ",
"     .....#*+    .....     ",
"    .....#*+      .....    ",
"   .....+#+      @$.....   ",
"    ...  +     @@@@ ...    ",
"     .      @@@@     .     ",
"                           "};
