/* XPM */
static char * jpilot_icon3_xpm[] = {
"48 48 230 2",
"  	c None",
". 	c #4C4E54",
"+ 	c #3C3A3E",
"@ 	c #3C3E43",
"# 	c #343237",
"$ 	c #443634",
"% 	c #34363B",
"& 	c #4C5654",
"* 	c #646A6C",
"= 	c #544E54",
"- 	c #B4BABC",
"; 	c #ACAAAC",
"> 	c #ACBAB4",
", 	c #A4B2AC",
"' 	c #4C4A51",
") 	c #545258",
"! 	c #646267",
"~ 	c #C4C2C4",
"{ 	c #ACAEAC",
"] 	c #D4D2D4",
"^ 	c #847E7C",
"/ 	c #746668",
"( 	c #8C4E3C",
"_ 	c #744234",
": 	c #6C6A74",
"< 	c #7C8684",
"[ 	c #8C8A8C",
"} 	c #8C9294",
"| 	c #848E8C",
"1 	c #4C525F",
"2 	c #5C5A63",
"3 	c #A47A6C",
"4 	c #B4725C",
"5 	c #A45E4C",
"6 	c #7C4234",
"7 	c #746A74",
"8 	c #444A4C",
"9 	c #44464B",
"0 	c #44424C",
"a 	c #3C4244",
"b 	c #AC7664",
"c 	c #B46E57",
"d 	c #54565C",
"e 	c #4C625C",
"f 	c #547A64",
"g 	c #5C766C",
"h 	c #547664",
"i 	c #5C7A6C",
"j 	c #6C7E7C",
"k 	c #A4766C",
"l 	c #AC664E",
"m 	c #5C7E6C",
"n 	c #547E64",
"o 	c #5C726C",
"p 	c #6C8684",
"q 	c #8C5E4C",
"r 	c #9C5A44",
"s 	c #7C4A3C",
"t 	c #546E61",
"u 	c #5C565C",
"v 	c #6C4E4C",
"w 	c #6C423C",
"x 	c #645E64",
"y 	c #94523C",
"z 	c #7C4E3E",
"A 	c #746E74",
"B 	c #5C5E64",
"C 	c #546A5E",
"D 	c #748A84",
"E 	c #443A3C",
"F 	c #6C3A2C",
"G 	c #9C624C",
"H 	c #945644",
"I 	c #642E24",
"J 	c #5C3A34",
"K 	c #4C3A3C",
"L 	c #3C160C",
"M 	c #AC6A54",
"N 	c #A46A5C",
"O 	c #A4624C",
"P 	c #8C4A3C",
"Q 	c #644A3C",
"R 	c #343E3C",
"S 	c #6C8A84",
"T 	c #441A14",
"U 	c #9C6E5F",
"V 	c #B46A54",
"W 	c #AC725E",
"X 	c #844E3C",
"Y 	c #64666C",
"Z 	c #4C3E3C",
"` 	c #5C2A1C",
" .	c #A46652",
"..	c #B47664",
"+.	c #BC765C",
"@.	c #8C523D",
"#.	c #547264",
"$.	c #748E84",
"%.	c #6C2E24",
"&.	c #847A7C",
"*.	c #BC7A64",
"=.	c #C4826C",
"-.	c #6C6A6C",
";.	c #6C3224",
">.	c #9C7264",
",.	c #C47E64",
"'.	c #846A6C",
").	c #945E4C",
"!.	c #543A34",
"~.	c #545A5A",
"{.	c #4C5E54",
"].	c #745254",
"^.	c #4C1E14",
"/.	c #443234",
"(.	c #7C767C",
"_.	c #9C5E46",
":.	c #74463C",
"<.	c #B47A6C",
"[.	c #BC725C",
"}.	c #643E34",
"|.	c #94624C",
"1.	c #A48274",
"2.	c #84523F",
"3.	c #5C261C",
"4.	c #844A36",
"5.	c #945A44",
"6.	c #947674",
"7.	c #BC7E64",
"8.	c #CC8A74",
"9.	c #845644",
"0.	c #6C6670",
"a.	c #844634",
"b.	c #946654",
"c.	c #744A3D",
"d.	c #946E64",
"e.	c #C4866C",
"f.	c #7C5244",
"g.	c #445664",
"h.	c #747274",
"i.	c #2C0A0C",
"j.	c #743A2C",
"k.	c #6C463C",
"l.	c #240604",
"m.	c #94726C",
"n.	c #8C5A44",
"o.	c #544244",
"p.	c #648674",
"q.	c #648A74",
"r.	c #5C826C",
"s.	c #648274",
"t.	c #B47E6C",
"u.	c #6C4A40",
"v.	c #7CA294",
"w.	c #84BAA4",
"x.	c #7CB29C",
"y.	c #84B6A0",
"z.	c #7CAA9C",
"A.	c #749288",
"B.	c #44524C",
"C.	c #6C9284",
"D.	c #9C6654",
"E.	c #AC6E59",
"F.	c #7C564C",
"G.	c #6C8A78",
"H.	c #4C5A54",
"I.	c #74A28C",
"J.	c #647E74",
"K.	c #747A7C",
"L.	c #8C6A5C",
"M.	c #744E3F",
"N.	c #6C8E80",
"O.	c #749A8C",
"P.	c #743E2C",
"Q.	c #845A49",
"R.	c #643A34",
"S.	c #94AEA4",
"T.	c #7CAE9C",
"U.	c #749689",
"V.	c #A47264",
"W.	c #6C867C",
"X.	c #84A294",
"Y.	c #7C9E94",
"Z.	c #3C4644",
"`.	c #644E44",
" +	c #8C6250",
".+	c #94867C",
"++	c #849A94",
"@+	c #84B29C",
"#+	c #749E8C",
"$+	c #7C727A",
"%+	c #54665C",
"&+	c #4C5254",
"*+	c #8C6654",
"=+	c #B4765C",
"-+	c #845E4C",
";+	c #444244",
">+	c #845E54",
",+	c #74564C",
"'+	c #2C2E30",
")+	c #1C1A1C",
"!+	c #A49EA4",
"~+	c #848284",
"{+	c #74766C",
"]+	c #DCDEE0",
"^+	c #BCB6BC",
"/+	c #BCBABC",
"(+	c #B4B2B4",
"_+	c #B47A64",
":+	c #A47661",
"<+	c #74767C",
"[+	c #848684",
"}+	c #7C6A74",
"|+	c #BC826C",
"1+	c #8C5642",
"2+	c #5C5254",
"3+	c #4C423C",
"4+	c #5C3E34",
"5+	c #946A59",
"6+	c #7C4634",
"7+	c #CC8E74",
"8+	c #A47A64",
"9+	c #64524C",
"0+	c #B4826C",
"a+	c #CC8674",
"b+	c #846254",
"c+	c #A46E5C",
"d+	c #746A69",
"e+	c #646E64",
"f+	c #646E7C",
"g+	c #546684",
"                                                                                                ",
"                                                                                                ",
"                          . + @ # + + $ + + + # $ % + + + + @ @ + % + % % + .                   ",
"                        & * = = - ; > , ' = = = = = . = = = ) = ! ~ { ] ^ ' %                   ",
"                    / ( _ : ) ) < [ } | ) = 1 ) ) = ) ) 1 ) ) 1 2 | } } ! 1 '                   ",
"                  3 4 5 6 7 ) = ' 8 ' 9 0 9 9 9 a 9 9 9 9 9 ' 9 0 @ @ 0 ) ) '                   ",
"                  b c 5 6 7 d . e f g h h i h g h h g h h h h h h h h h j d '                   ",
"                  k l 5 6 7 d . h m n m f m f f i f n f f i f i f i f o p 2 0                   ",
"                    q r s 7 2 = t m f f i n i n f n i f f n f n f f f i p u '     v w           ",
"                    x y z A B ) C m f m f i f f i f f f i f i f i n i n D B ) E F G H _         ",
"                  5 5 I J : x d C n i f f n f m f f f n f n f n f f f m D B K L y M r G         ",
"                N l O P Q A B ) C i f n f i f f n f i R f i f i h R f m S ! E T r M 5 N         ",
"              U V W l r X A Y d t n i f h f f i f R f R i f f f R R R i D ! Z `  .l r 4         ",
"              ..4 k +.4 @.: : d #.m f R h R R e f e f % h e R e h + f n $.B K %. .l ( N         ",
"              &.l *.=.4 P -.Y u #.f f i h R i % f R f R f % f % f R f m D ! Z ;.l l r l         ",
"                >.*.,.O 6 7 -.d #.i f R h R h R f R i % f R f R h R f i S Y Z ;.l l H r         ",
"              '.).r r 6 !.A * ~.h h h % f % R {.i R f R {.e % e m e R m D B K I 5 l r ].        ",
"            / M l y 6 ^./.(.Y u h f h R f R f n f f f m f m n i f f i n D x Z I _.5 ).:.        ",
"          7 <.[.l l ( ` }.&.* d #.R f R i R i f m i f f i n i n f i f m D B Z I @.|.).z         ",
"          1.=.,.<...4 r 2.A * u #.e @ {.n % n i f n f m f i n i m n f m S ! E 3.4.5.@.Q         ",
"          6.*.7.,.8.*.4 9.A 0.d h i f m f m f f m f i n i n m n m i n m D B Z 3.a.b.@.c.        ",
"            d.*.4 *.e.V f.(.* u h n i f f i n i f m f i f m m f m f f m D B K 3.a.b.@.w         ",
"            g._.c 4 +.H c.&.Y ) t m n i n f i f n f i n m n m f m f i n p 2 Z F X |.q v         ",
"            h.*.M H 6 i./.&.Y 2 C m i n i m n i f m f f f i m f m f f m D B Z j.a.b.q k.        ",
"            b +.c O 6 l.+ (.: 2 #.f m f m f n i n i f m m n m m f f m n p x Z j.X |.q v         ",
"          m.e.7.c W n.3.o.&.* 2 p.p.h p.q.r.r.r.r.r.r.m r.m r.r.r.s.m q.D 2 Z j.2.>.).c.        ",
"          6.[.e.<.t.M a.u.(.Y d v.| {.g v.w.w.w.w.w.w.x.y.z.w.w.A.B.e C.p x Z j.X >.|.z         ",
"            D.,.*.=.e.E.F.A Y u C.G.& H.I.w.w.w.w.w.w.w.w.w.w.w.C.R B.J.K.2 Z j.9.N b.X         ",
"            L.5 +.+.=.O M.(.-.d $.I.s.N.v.w.w.w.w.w.w.w.w.w.w.w.O.i m p.(.2 Z P.Q. .).X         ",
"               .l O @.I R.(.Y u $.S.A.T.I.w.w.w.w.w.w.x.w.T.O.T.C.g i U.j u o.z ).D.|.s         ",
"                V.r @.;.s A -.d W.X.i m Y.x.w.w.w.w.w.x.z.O.v.z.G.Z.R D (.~.`.X n.b. +c.        ",
"                .+l @.6 _.A ! d G.++{.W.C.I.w.w.w.w.w.w.y.@+y.#+p.g o U.$+2 w z ).b.@.          ",
"                  M 5 +.c $+B ) ) C C %+e {.{.{.{.B.' . 8 . 8 ' . {.&+d 0.B w 9.b.*+k.          ",
"                  >.=+=.<.^ 2 d 2 2 2 d u d ) d ) &+) ) = ) . . . d ) d 2 2 M.-+b.|.!.          ",
"                  * *.*...&.) 2 2 . ) d d d ) ) ) ;+;+. . . . = . ;+;+. ) 1 >+b.*+9.            ",
"                    >+=.7.,+8 ) @ '+9 u = 9 + ' 9 + )+% ;+9 9 ' ;+% 0 ' . ;+-+b.|.M.            ",
"                      *.=.m.C.B.8 { !+B % ~+{+Y u . '+# '+]+^+-.. /+(+2 d % -+*+n.s             ",
"                      _+=.:+w.p.& !+<+u 9 [+; ' ! B ' 9 ' ]+/+-.9 h.0.B . % Q.b.q F             ",
"                      }+..=+Z.1 ) . Y B d ' ' B 8 A ' ;+) 9 B d 9 8 . 9 + # -+b.9.k.            ",
"                        U |+8 ' . ) d d u u d u ' 2 . ' &+' ' ' 9 9 + + # $ -+*+1+o.            ",
"                        2+<.3+% + + + 0 9 0 0 0 9 9 ' ;++ + % % + # # % E M.b.|.X 4+            ",
"                          *+7.<.U Q.z M.:.F F w }.c.M.c.2.-+ +q -+-+-+-+b.5+*+|.6+/.            ",
"                            *.8.7+8.7.+.M 5 r r H M M 4 ,.,.=.=.=.t.8+3 k U ).2.u.              ",
"                            9+0+8.7+8.=.4 l M M O 4 +.+.7.7.,.*.*.*.<.:+:+5+2.z c.              ",
"                              v 7.7+8.7+a+*.*.[.c [.+.=+,.=.=.*.+.M W 5+5+).H  +F.1             ",
"                                b+*.8.8.e.=.=.*.=.=.,.*.=.e.=.+.=++.V D.b.b.b.*+0.d             ",
"                                  k *.=.8.=.=.*.=.=.7.,.,.*.*.+.+.+.4 c+5+b.*+}+-.d             ",
"                                    U +.7+e.=.=.e.=.,.7.*.+.+.+.=++.b :+L.d+d+e+f+g+            "};
