/* XPM */
static char * jpilot_icon4_xpm[] = {
"48 48 17 1",
" 	c None",
".	c #070B09",
"+	c #2E8D56",
"@	c #26CE9C",
"#	c #3AE99E",
"$	c #50D26F",
"%	c #3D5657",
"&	c #698F6E",
"*	c #327256",
"=	c #17B797",
"-	c #72AF72",
";	c #1A2E20",
">	c #537163",
",	c #43B667",
"'	c #65E768",
")	c #A7AFB5",
"!	c #448F4D",
"===+==+======================,==,=,=,@,=,@,@,@,,",
"=@@@@@@@@@@@@@@@@@@#@#@#####################'##$",
"==@@@@@@@@@@@@@#@#@@##@#@################'###'#,",
"=@===@=@=@@@@@@@@@@@@@#@@@@@@@########'####'##$+",
"===@===@=@=@@@@@@@@@@@@@@@#@#@@@#@##$###'###'@,+",
"=@=@=@====@=====@@@@@@@@@@@@@#@@$@$@#@$$#$#$$,,+",
"===@========@=@=====@=@@@@@@@@@$@@$@$$@$$$$@$,,+",
"=@@=============@=@=@==@=,@,@,@@@@$@@@$@@$$@$@,+",
"==@=@=======@=+*%***>*>*%******%>*!@$$@$$@$$,$,+",
"=@@@==========*%%&))))>%%%%%%%%%%%!@$$@$$$@$$,,+",
"===@=@===@====*%%>&&>>>%>%%%>>>%>%+$@$$@$$$@$$,+",
"=@@=@=====@==@*%%&&-&-&-&-&-&&&&>%!@$@$#$$$$,$,+",
"=@@=@==@====@=>%%&-------------->%+$$$$@$#$$$$,+",
"=@@@=@===+*===>%>&----->&-->&--->%+$@$$$$$$$,$,!",
"==@@==@==;.+,@*%%&---->.;--.;&--%%!$$#$$@,,$$$,+",
"=@@@@==@=*%-=@*%>&----&%&->.;&-->%+$@$$$%.%$$$$!",
"=@@=@@===*+==*%%;%&---&>--%.%--&%;%+$@$+;.;,$,,+",
"=@@@@=@=*.%=*.....;&-&;.--;.*-&%....%$$....*$$$!",
"=@@@@=@=;.%,%..%>..%-!..-&;.>-%.;>%..*$*..&-$,,!",
"=@@@@=@=;.*=;.%&>;.;&>.;-!.;&!..!>+;.%$+.;-$$$$!",
"=@@@@@==.;!,..!>%;.;-%.%->.;-%.%&%!;.%$%.%$$$$,!",
"=@@@@=@*.;,+..&%%..%-..>-%.%-;.%>%*..!$;.>$$$$$!",
"=@@@@@=*.;$*..>%;.;!-..&&;.>-;.;>%..;-$..&'$$$,!",
"=@@@@@=;.*,;..;...%-&.;&&;.&-%......&,,..%$'$$$!",
"=@@@@@=;.!,;.%;.;>-->;%-!;;---%;.;;&$$$;.;$'$$$!",
"=#@@@@+..-=..!>>>--------------&!>-$$'$$--$$$$$!",
"=@@@@@..;-+.;-*%%>&&&&&&&&&&&&&&>%!'$'$'$$''$$$!",
"=@#@@@;;!@*;%,!%%>>>>>>&>>>>>>>>%%!'$'$'''''$$$!",
"=#@@@@@-,@@$,$>%%>%>&&&&&&&&&>%>>%!$''#'$'$'$$$!",
"=##@$@@@$@,@@@>%>>&>&&&&&&&&&&>>>%+'$'$'''''$$$!",
"=@#@@$@,@@$@$@>%%%>>&&&&&&&&&>%>%%!''''''''$'$$!",
"@@#$@@@@,@$@$@>%%%>>>>&>&>&>>>%>%%!'$''$'''''$$!",
",#@#@$@$@$@$@$*%%%%%%%%%%%%%%%%%%%!''$''''''$$$!",
"=##@$@$@@,@$@$>%%%%%%%%%%%%%%%%%%%+'''''''''''$!",
",#@$@@$,@$@$$@!%%>>%>%%%%%>>>%>>%%!''''''''$$$$&",
"=###@$@@$@$@$$!&%)>%%&%%%%%)&%%)>%!'''''''''''$!",
",#@#$@$$@$$@$@!*%&%%%>%%%%%>%%%>%%!''''''''''$$-",
",##$#@$@$@$$$$>%%%%%%;%%%%%%%%%%%%!''''''''''$$!",
"=##@$@$@$@$@$@>%%%%%%>%%>%%%%%%%%%!'''''''''''-,",
",####$$@$$#$$$>>>>>>>&>>>>>>&>&>>*-''''''''''''!",
",##$@$@$$@$$@$$$$$$'$''''''''''''''''''''''''$--",
",###$#$@$$$#$#$#$#$$#$$$'$'$'''''''''''''''''''!",
",###$#$$@$$$$$$$$'$'$''$''''$'''''''''''''''''$&",
"@'##$@$$@$@$@$$$$$$$$$$$$$$'$'$''''''''''''''''!",
",##'$@,$,$,$$$$$$$$$$$$$$$$$$$$$'$'''''''''''$'&",
"$##$@,,,,,,,,,,,,,,$,$$$$$$$$$$-$$$-$$$'-'-'-'$,",
"@'$,,,=,,,,,,,,,,,,,,,,-,-,--,$-$-$-$--$-$$-$-$&",
",=+***********+*+*!**+**+*+!*!*!*!*!!!!!!!!!!!!!"};
