/* XPM */
static char * jpilot_icon1_xpm[] = {
"48 48 17 1",
" 	c None",
".	c #050807",
"+	c #316B3B",
"@	c #1D9A75",
"#	c #2DAE75",
"$	c #1A3A28",
"%	c #4F6C53",
"&	c #3C9D53",
"*	c #265640",
"=	c #128871",
"-	c #548256",
";	c #142318",
">	c #3F554A",
",	c #33894D",
"'	c #4DAC4C",
")	c #7B8285",
"!	c #304043",
"====+========================,==,=,=,=,=,@,@,,@,",
"===@@=@=@=@@@@@@@@@@@@#@#######################&",
"=@@@@@@@@@@@@@@@@@#@#@#@@@@###############'#'##,",
"======@=@@=@@@@@@@@@@@@#@#@@@@@#@######'######,+",
"==@=@===@=@=@@@@@@@@@@@@@@@@@#@@#@#@#&###'#'&&,+",
"=@===@==========@=@@@@@@@@@@@@@@@&@&@#@&&#&#@,=+",
"==@=======@==@=======@=@@@@@@@&@@@&@&&@&@&&&,,,+",
"=@=@===========@=@=@==@==,@,@,@,@,@&@@&@&@&@&,=+",
"===@==========**$*!*>***!**!******+@,&@&&@&@&,,+",
"=@@=@=========*!!%))))>!!$!!!!!!!!+@&@&@&&&&@,,+",
"==@=========@=*!!>)>%>!>!>!!>!!>!!+@&&@&&@&,&,,+",
"=@=@@====@====*!!%%%-%%%%%-%%-%%!!+&@&&@&&&&&@,+",
"==@==@=====@=@*!!%-------------->!*&@&&&&@&&,&,+",
"=@@@=====+*===*!!%----->%-->>--->!+&&@&@&&&&&,,+",
"==@@@=@==$.*=@*!!%---->;;--.;%--!!+@&&&&,=+&&&,+",
"=@@=@====$!-,=*!!%----%$%->.;--->!+@&@&&*.$&,&,+",
"=@@@=@=@=*+==*!!;!%---+>%-!.$--%!;$*&&&*;.$,&,,+",
"=@@@@===*.$=*.....;%-%;.--;.!-%$....$,#....*&&,+",
"==@@=@==$.!,$..!*..$-%..-%;.>-$.;>$..*&*..%-&&,+",
"=@@@@@==;.*@;.$%>;.;%>.;-+.;%%..+>+;.$,+.;-&&&,+",
"=@@@=@==.;+,..%>!$.;%$.$->.;-!.$%!+;.!&$.$&&&&,+",
"=@@@@@=*.;,+..>!!..>-..>-$.!-;.!>!$;.+&;.>&&&&&+",
"=@@@=@@$.;,*..>!;..%-..%%;.>-;.;>$;.;-&..%&&&&,+",
"=@@@@==$.*,$..;...!-%.;%%;.%-!......%&+..$'&&&&+",
"=@@@@@=;.+,;.$;.;*-->;!-+;;---$;.;;%,'&;.;-'&&,+",
"=@@@@=+..,+..+>>%%-------------%>>-&&&&&--&&&&&+",
"=#@@@@..;-+.;-*!!>%%%%%%%%%%%%%%>!+&'&'&&'&'&&&+",
"=#@@@@;;+@*;!,>!>!>>>>>>>>>>>>!>!!+&'&''&'''&&&+",
"=@#@@@,,,@@,,&*!!>!>%%%%%%%%%%!>>!+&'&'&''&&&&-+",
"=@@@@@@,@,@&@@*!>>>%>%%%%%%%%>>>!!+&'#''&'''&&&+",
",#@&@&@@,@,@&,>!!!>>>%%>%%%>%>!>>!+'&'&''''''&&+",
"=@#@@@,@@@&@@@>!!!>>>>>%>>>%>>!!!!+&'&'''&'&'&&+",
",#@&@&@,&@,&&@*!!!!!!!!!!!!!!!!!!!+'''&'''''&&&%",
"@@#&@@,@@&@@@&>!!!!!!!!!!!!!!!!>!!+&'''''''''&&+",
",#@#@&@&,@&,&@>>!>!>!!!!!!>>>!!>!!+'&''''''&&&&%",
"@@#@@&@@&@&@&@,>!)>!>%!!!!!)%!!)>!+'''&'''''''&+",
",##&@&@,@&@&&&+*!%!!!!!!!!!>!!!>!!+'''''''''&&&%",
",#@#&@&&@&@&@,>!!;!!!;!!!!!!!!!!!!+'''''''''&'&+",
"=#&#@&@@&&&@&&!!!!!!!>!!>!!!!!!!!!+''''''''''&&%",
",###@&&,@&&@&&+>>>>>>>>>>>>>>>%>>>,''''''''''&'+",
",#&#&@&@&@&&&@&&&&&'&'''''''''''''&'''''''''''--",
"=##&#@&&&&@&&&&&&#&&&&&&&'&'&'&'''''''''''''''&+",
",##&#&@&@&&&@&&#&&'&'#&'&'&'''''''''''''''''''&%",
",###&&@&,@&&&&&&&&&&&&&&&&'&&&&&'&'''''''''''''+",
",#&#&@,,&,,@,&,&&&&&&&&&&&&&&'&&'&&&''''''''-'&-",
"&##&,,,,,,,,,,,,,,,,,&,&&,&&&&-&&-&&-&-&-&-&''&+",
",#&,=,=,,,,,,,,,,,,,-,,-,--,-,-&-&-&-&-&-'-&--'%",
",=+*****************+***+*+*+*+*+*+>+++>++++++++"};
