/* XPM */
static char *jpilot2[] = {
/* width height num_colors chars_per_pixel */
"    48    48      234            2",
/* colors */
".. c #240604",
".# c #547664",
".a c #343e3c",
".b c #7c4234",
".c c #7cae9c",
".d c #4c5a54",
".e c #845e4c",
".f c #5c3e34",
".g c #6c9284",
".h c #a45e4c",
".i c #645e64",
".j c #4c1e14",
".k c #74766c",
".l c #a49ea4",
".m c #b4765c",
".n c #44524c",
".o c #945e4c",
".p c #5c5254",
".q c #2c2624",
".r c #648674",
".s c #646a6c",
".t c #b4b2b4",
".u c #a46a5c",
".v c #4c3e3c",
".w c #94523c",
".x c #546a5e",
".y c #c4866c",
".z c #74a28c",
".A c #343237",
".B c #94867c",
".C c #6c423c",
".D c #748a84",
".E c #8c523d",
".F c #946a59",
".G c #7c6a74",
".H c #4c3634",
".I c #b46a54",
".J c #b47e6c",
".K c #746a69",
".L c #3c4644",
".M c #7c4a3c",
".N c #a47661",
".O c #8c9294",
".P c #544e54",
".Q c #647e74",
".R c #a4b2ac",
".S c #546684",
".T c #6c8e80",
".U c #642e24",
".V c #4c625c",
".W c #749a8c",
".X c #845a49",
".Y c #d4d2d4",
".Z c #443234",
".0 c #6c463c",
".1 c #746668",
".2 c #847a7c",
".3 c #6c867c",
".4 c #a47264",
".5 c #8c4a3c",
".6 c #ac7664",
".7 c #547e64",
".8 c #94aea4",
".9 c #5c5a63",
"#. c #8c6654",
"## c #445664",
"#a c #84523f",
"#b c #946654",
"#c c #646e7c",
"#d c #4c4a51",
"#e c #94726c",
"#f c #74564c",
"#g c #3c160c",
"#h c #84b6a0",
"#i c #8c5e4c",
"#j c #a46652",
"#k c #64666c",
"#l c #bc765c",
"#m c #b4c2dc",
"#n c #547264",
"#o c #3c3a3e",
"#p c #848684",
"#q c #8c6a5c",
"#r c #c47e64",
"#s c #844a36",
"#t c #6c4e4c",
"#u c #643a34",
"#v c #74463c",
"#w c #749288",
"#x c #4c525f",
"#y c #9c5e46",
"#z c #ac6a54",
"#A c #8c5a44",
"#B c #9c6e5f",
"#C c #b4725c",
"#D c #747274",
"#E c #a4766c",
"#F c #6c8684",
"#G c #1c1a1c",
"#H c #5c766c",
"#I c #3c3e43",
"#J c #545a5a",
"#K c #7c767c",
"#L c #b47a6c",
"#M c #7c564c",
"#N c #5c565c",
"#O c #6c6a6c",
"#P c #b4babc",
"#Q c #543e3c",
"#R c #945a44",
"#S c #546e61",
"#T c #cc8e74",
"#U c #84a294",
"#V c #34363b",
"#W c #8c5642",
"#X c #5c3a34",
"#Y c #bc7e64",
"#Z c #746a74",
"#0 c #44464b",
"#1 c #54565c",
"#2 c #5c261c",
"#3 c #dcdee0",
"#4 c #3c2e2c",
"#5 c #acaaac",
"#6 c #acbab4",
"#7 c #c4c2c4",
"#8 c #848284",
"#9 c #a48274",
"a. c #7caa9c",
"a# c #743a2c",
"aa c #848e8c",
"ab c #2c2e30",
"ac c #748e84",
"ad c #849a94",
"ae c #644e44",
"af c #743e2c",
"ag c #443a3c",
"ah c #947674",
"ai c #7c727a",
"aj c #4c5654",
"ak c #2c0a0c",
"al c #4c4e54",
"am c #bcb6bc",
"an c #cc8674",
"ao c #543a34",
"ap c #6c7e7c",
"aq c #7c9e94",
"ar c #5c7e6c",
"as c #6c6a74",
"at c #441a14",
"au c #8c8a8c",
"av c #745254",
"aw c #844634",
"ax c #84b29c",
"ay c #643e34",
"az c #74767c",
"aA c #7c8684",
"aB c #946e64",
"aC c #acaeac",
"aD c #6c2e24",
"aE c #54665c",
"aF c #44424c",
"aG c #644a3c",
"aH c #7ca294",
"aI c #846a6c",
"aJ c #744e3f",
"aK c #ac725e",
"aL c #9c7264",
"aM c #ac664e",
"aN c #6c6670",
"aO c #5c726c",
"aP c #6c3a2c",
"aQ c #9c6654",
"aR c #bc725c",
"aS c #bcbabc",
"aT c #9c5a44",
"aU c #846254",
"aV c #646267",
"aW c #b47a64",
"aX c #648a74",
"aY c #646e64",
"aZ c #945644",
"a0 c #4c3a3c",
"a1 c #b46e57",
"a2 c #7c4e3e",
"a3 c #a47a64",
"a4 c #545258",
"a5 c #6c4a40",
"a6 c #6c8a78",
"a7 c #444244",
"a8 c #5c5e64",
"a9 c #845644",
"b. c #84baa4",
"b# c #8c6250",
"ba c #bc7a64",
"bb c #c4826c",
"bc c #844e3c",
"bd c #744a3d",
"be c #749689",
"bf c #9c624c",
"bg c #ac6e59",
"bh c #3c4244",
"bi c #544244",
"bj c #bc826c",
"bk c #444a4c",
"bl c #64524c",
"bm c #744234",
"bn c #547a64",
"bo c #7c4634",
"bp c #7cb29c",
"bq c #4c5e54",
"br c #a4624c",
"bs c #94624c",
"bt c #a46e5c",
"bu c #4c423c",
"bv c #b4826c",
"bw c #648274",
"bx c #749e8c",
"by c #443634",
"bz c #847e7c",
"bA c #8c4e3c",
"bB c #a47a6c",
"bC c #6c8a84",
"bD c #5c7a6c",
"bE c #746e74",
"bF c #5c2a1c",
"bG c #4c5254",
"bH c #cc8a74",
"bI c #5c826c",
"bJ c #747a7c",
"bK c #6c3224",
"bL c #845e54",
"bM c #b47664",
"bN c #7c5244",
/* pixels */
"#m#m#m#m#m#m#m#m#m#m#m#m#m#m#m#m#m#m#m#m#m#m#m#m#m#m#m#m#m#m#m#m#m#m#m#m#m#m#m#m#m#m#m#m#m#m#m#m",
"#m#m#m#m#m#m#m#m#m#m#m#m#m#m#m#m#m#m#m#m#m#m#m#m#m#m#m#m#m#m#m#m#m#m#m#m#m#m#m#m#m#m#m#m#m#m#m#m",
"#m#m#m#m#m#m#m#m#m#m#m#m#mal#o#I.A#o#oby#o#o#o.Aby#V#o#o#o#o#I#I#o#V#o#V#V#oal#m#m#m#m#m#m#m#m#m",
"#m#m#m#P#m#m#P#m#m#P#m#maj.s.P.P#P#5#6.R#d.P.P.P.P.Pal.P.P.Pa4.PaV#7aC.Ybz#d#V#m#m#m#P#m#m#P#m#m",
"#m#m#m#m#m#m#m#m#m#m.1bAbmasa4a4aAau.Oaaa4.P#xa4a4.Pa4a4#xa4a4#x.9aa.O.OaV#x#d#m#m#m#m#m#m#m#m#m",
"#m#m#m#m#m#m#m#m#mbB#C.h.b#Za4.P#dbk#d#0aF#0#0#0bh#0#0#0#0#0#d#0aF#I#IaFa4a4#d#m#m#m#m#m#m#m#m#m",
"#m#m.R#m#m#m#m#m#m.6a1.h.b#Z#1al.Vbn#H.#.#bD.##H.#.##H.#.#.#.#.#.#.#.#.#ap#1#d#m#m#m#m#m#m#m.R#m",
"#m#m#m#m#m#m#m#m#m#EaM.h.b#Z#1al.#ar.7arbnarbnbnbDbn.7bnbnbDbnbDbnbDbnaO#F.9aF#m#m#m#m#m#m#m#m#m",
"#m#m#m#m#m.R#m#m#m#m#iaT.M#Z.9.P#SarbnbnbD.7bD.7bn.7bDbnbn.7bn.7bnbnbnbD#F#N#d#m.q#t.C#g#m#m#m#m",
"#m#m#m#m#m#m#m#m#m#m.i.wa2bEa8a4.xarbnarbnbDbnbnbDbnbnbnbDbnbDbnbD.7bD.7.Da8a4agaPbfaZbm#m#m#m#m",
"#m#m#m.R#m#m#m#m.H.h.h.U#Xas.i#1.x.7bDbnbn.7bnarbnbnbn.7bn.7bn.7bnbnbnar.Da8a0#g.w#zaTbf#m#m#m#m",
"#m#m#m#m#m#m#m#x.uaMbr.5aGbEa8a4.xbDbn.7bnbDbnbn.7bnbD.abnbDbnbD.#.abnarbCaVagataT#z.h.u#m#m#m#m",
"#m#m#m#m#m#m#m#B.IaKaMaTbcbE#k#1#S.7bDbn.#bnbnbDbn.abn.abDbnbnbn.a.a.abD.DaV.vbF#jaMaT#C#m#m#m#m",
"#m#m#m.R#m#m#mbM#C#E#l#C.Easas#1#narbn.a.#.a.a.Vbn.Vbn#V.#.V.a.V.##obn.7aca8a0aD#jaMbA.u#m#m#m#m",
"#m#m#m#m#m#m#m.2aMbabb#C.5#O#k#N#nbnbnbD.#.abD#Vbn.abn.abn#Vbn#Vbn.abnar.DaV.vbKaMaMaTaM#m#m.R#m",
"#m#m#m#m#m#m#m#maLba#rbr.b#Z#O#1#nbDbn.a.#.a.#.abn.abD#Vbn.abn.a.#.abnbDbC#k.vbKaMaMaZaT#m#m#m#m",
"#m#m#m#m#m#m.RaI.oaTaT.baobE.s#J.#.#.##Vbn#V.abqbD.abn.abq.V#V.Var.V.aar.Da8a0.U.haMaTav#m#m#m#m",
"#m#m.R#m#m#m.1#zaM.w.b.j.Z#K#k#N.#bn.#.abn.abn.7bnbnbnarbnar.7bDbnbnbD.7.D.i.v.U#y.h.o#v#m#m#m#m",
"#m#m#m#m#m#Z#LaRaMaMbAbFay.2.s#1#n.abn.abD.abDbnarbDbnbnbD.7bD.7bnbDbnar.Da8.v.U.Ebs.oa2#m#m#m#m",
"#m#m#m#m#m#9bb#r#LbM#CaT#abE.s#N#n.V#Ibq.7#V.7bDbn.7bnarbnbD.7bDar.7bnarbCaVag#2#s#R.EaG#m#m#m#m",
"#m#m#m#m#mahba#Y#rbHba#Ca9bEaN#1.#bDbnarbnarbnbnarbnbD.7bD.7ar.7arbD.7ar.Da8.v#2aw#b.Ebd#m#m#m#m",
"#m#m#m#m#malaBba#Cba.y.IbN#K.s#N.#.7bDbnbnbD.7bDbnarbnbDbnararbnarbnbnar.Da8a0#2aw#b.E.C#m#m#m#m",
"#m#m#m#m#m#m###ya1#C#laZbd.2#ka4#Sar.7bD.7bnbDbn.7bnbD.7ar.7arbnarbnbD.7#F.9.vaPbcbs#i#t#m#m#m#m",
"#m.R#m#m#m#m#Dba#zaZ.bak.Z.2#k.9.xarbD.7bDar.7bDbnarbnbnbnbDarbnarbnbnar.Da8.va#aw#b#i.0#m.R#m#m",
"#m#m#m#m#m#m.6#la1br.b..#o#Kas.9#nbnarbnarbn.7bD.7bDbnarar.7ararbnbnar.7#F.i.va#bcbs#i#t#m#m#m#m",
"#m#m#m#m#m#e.y#Ya1aK#A#2bi.2.s.9.r.r.#.raXbIbIbIbIbIbIarbIarbIbIbIbwaraX.D.9.va##aaL.obd#m#m#m#m",
"#m#m#m#m.RahaR.y#L.J#zawa5#K#k#1aHaabq#HaHb.b.b.b.b.b.bp#ha.b.b.#w.n.V.g#F.i.va#bcaLbsa2#m#m#m#m",
"#m#m#m#m#m.paQ#rbabb.ybg#MbE#k#N.ga6aj.d.zb.b.b.b.b.b.b.b.b.b.b..g.a.n.QbJ.9.va#a9.u#bbc#m#m#m#m",
"#m#m#m#m#m#m#q.h#l#lbbbraJ#K#O#1ac.zbw.TaHb.b.b.b.b.b.b.b.b.b.b..WbDar.r#K.9.vaf.X#j.obc#m#m#m#m",
"#m#m#m#m#m#m#m#jaMbr.E.U#u#K#k#Nac.8#w.c.zb.b.b.b.b.b.bpb..c.W.c.g#HbDbeap#Nbia2.oaQbs.M#m#m#m#m",
"#m#m.R#m#m#m#m#Q.4aT.EbK.MbE#O#1.3#UbDaraqbpb.b.b.b.b.bpa..WaHa.a6.L.a.D#K#Jaebc#A#bb#bd#m#m#m#m",
"#m#m#m#m#m#m#m#m.BaM.E.b#ybEaV#1a6adbq.3.g.zb.b.b.b.b.b.#hax#hbx.r#HaObeai.9.Ca2.o#b.Eab#m.R#m#m",
"#m#m#m#m#m#m#m#m#m#z.h#la1aia8a4a4.x.xaE.Vbqbqbqbq.n#dalbkalbk#dalbqbG#1aNa8.Ca9#b#..0#m#m#m#m#m",
"#m#m#m#m#m#m#m#m#maL.mbb#Lbz.9#1.9.9.9#1#N#1a4#1a4bGa4a4.Pa4alalal#1a4#1.9.9aJ.e#bbsao#m#m#m#m#m",
"#m#m#m.R#m#m#m.R#m.sbababM.2a4.9.9ala4#1#1#1a4a4a4a7a7alalalal.Pala7a7ala4#xbL#b#.a9#4#m#m#m#m#m",
"#m#m#m#m#m#m#m#m#m#mbLbb#Y#fbka4#Iab#0#N.P#0#o#d#0#o#G#Va7#0#0#da7#VaF#dala7.e#bbsaJ#G#m#m#m#m#m",
"#m#m#m#m#m#m#m#m#m#m#mbabb#e.g.nbkaC.la8#V#8.k#k#Nalab.Aab#3am#OalaS.t.9#1#V.e#.#A.M#m#m#m.R#m#m",
".R#m#m#m#m.R#m#m#m#m#maWbb.Nb..raj.laz#N#0#p#5#daVa8#d#0#d#3aS#O#0#DaNa8al#V.X#b#iaP#m#m#m#m#m#m",
"#m#m#m#m#m#m#m#m#m.R#m.GbM.m.L#xa4al#ka8#1#d#da8bkbE#da7a4#0a8#1#0bkal#0#o.A.e#ba9.0#m#m#m#m#m#m",
"#m#m#m.R#m#m#m#m#m#m#m#m#Bbjbk#dala4#1#1#N#N#1#N#d.9al#dbG#d#d#d#0#0#o#o.Aby.e#.#Wbi#m#m#m#m#m#m",
"#m#m#m#m#m#m.R#m#m#m#m#m.p#Lbu#V#o#o#oaF#0aFaFaF#0#0#da7#o#o#V#V#o.A.A#VagaJ#bbsbc.f#m#m#m#m#m#m",
"#m#m#m#m#m#m#m#m#m#m#m#m#m#.#Y#L#B.Xa2aJ#vaPaP.CaybdaJbd#a.eb##i.e.e.e.e#b.F#.bsbo.Z#m#m#m.R#m#m",
"#m#m#m#m#m#m#m#m#m#m#m#m#m#mbabH#TbH#Y#l#z.haTaTaZ#z#z#C#r#rbbbbbb.Ja3bB#E#B.o#aa5.q#m#m#m#m#m#m",
"#m#m#m#m.R#m#m.R#m#m.R#m#m#mblbvbH#TbHbb#CaM#z#zbr#C#l#l#Y#Y#rbababa#L.N.N.F#aa2bd#m#m#m#m#m#m#m",
"#m#m#m#m#m#m#m#m#m#m#m#m#m#m#m#t#Y#TbH#TanbabaaRa1aR#l.m#rbbbbba#l#zaK.F.F.oaZb##M#x#m#m#m#m#m#m",
".R#m#m#m#m#m#m#m#m#m#m#m#m#m#m#maUbabHbH.ybbbbbabbbb#rbabb.ybb#l.m#l.IaQ#b#b#b#.aN#1#m#m#m#m#m#m",
"#m#m#m#m.R#m#m.R#m#m#m#m#m.R#m#m#m#EbabbbHbbbbbabbbb#Y#r#rbaba#l#l#l#Cbt.F#b#..G#O#1#m#m#m#m.R#m",
"#m#m#m#m#m#m#m#m#m#m.R#m#m#m#m#m#m#m#B#l#T.ybbbb.ybb#r#Yba#l#l#l.m#l.6.N#q.K.KaY#c.S#m#m#m#m#m#m"
};
SIMPLE  =                    T                                                  BITPIX  =                    8                                                  NAXIS   =                    2                                                  NAXIS1  =                   48                                                  NAXIS2  =                   48                                                  HISTORY Written by XV 3.10a                                                     END                                                                                                                                                                                                                                                                                                                                                                                                                                                                                                                                                                                                                                                                                                                                                                                                                                                                                                                                                                                                                                                                                                                                                                                                                                                                                                                                                                                                                                                                                                                                                                                                                                                                                                                                                                                                                                                                                                                                                                                                                                                                                                                                                                                                                                                                                                                                                                                                                                                                                             ¿¿¿¿¿¿¿¿¿¿¿¿¿¿¿¿¿¿|Š™““˜–‘‰‰‰‰‰†ƒsmmlkd¿¿¿¿¿¿¿¿¿¿¿¿¿¿¿¿¿¿¿¿¿¿¿„“—“““‘‘Œ‰‰‰„xrqmlY¿¿¿¿¿¿¿¿¿¿¿¿¿¿¿¿¿¿¿¿¿¿lŒ›œ›““Œ““‘“™’‹‰‰trrrqi\¿¿¿¿¿¿¿¿¿¿¿¿¿¿¿¿¿¿¿¿¿W“˜Œ…€ˆ‰‰‘”“Œ‡}wtlfm`R¿¿¿¿¿¿¿¿¿¿¿¿¿¿¿¿¿¿¿¿WŸœ–‡y~~u…ˆˆ‘‘ˆ…€ub[Y¿¿¿¿¿¿¿¿¿¿¿¿¿¿¿¿¿¿¿¿¿œ‘‰}plkjz~ƒ‘‘””“Š†……yn_U(¿¿¿¿¿¿¿¿¿¿¿¿¿¿¿¿¿¿¿qŠ{fXXSJJJMVXW`kkkkjjjrvqmV=¿¿¿¿¿¿¿¿¿¿¿¿¿¿¿¿¿¿WŒD89:<BFDECEEJA99666534=Wpp]E¿¿¿¿¿¿¿¿¿¿¿¿¿¿¿¿¿¿z’GIOTVVZWWXL]PJPKLIGC<;4<jpbQ¿¿¿¿¿¿¿¿¿¿¿¿¿¿¿¿¿pŠˆFPQQd`VIJ`IpJFRF]XDHME81grdP¿¿¿¿¿¿¿¿¿¿¿¿¿¿¿¿¿Œ“€£tS uWG„«JcaGHJß»jFrg^O7friO¿¿¿¿¿¿¿¿¿¿¿¿¿¿¿¿¿‘“|QH« _6ƒweYM.31İ·kL»³[U7frhW¿¿¿¿¿¿¿¿¿¿¿¿¿¿¿¿j“_HR>-DXOE;II85AEFKD5DKMCirp[¿¿¿¿¿¿¿¿¿¿¿¿¿¿hŒŒ‰~R\ZOQXWVSSSA@PLNOPLCCNTQfrrb0¿¿¿¿¿¿¿¿¿¿¿¿¿¿~ˆ”Š€[V[\\VXUUUURURQSNPOUUV[[XirpD¿¿¿¿¿¿¿¿¿¿¿¿¿¿~q‹v^TT__^[VVVVMLKLLKKLVOXh]O`rqP¿¿¿¿¿¿¿¿¿¿¿¿¿‰{cRosbW{Uy„££££££Ÿ ‹tnhˆu\O]lqc0¿¿¿¿¿¿¿¿¿¿¿KmbCWrhWz”lr£££££—Œ‘—}B9uYT[irlV¿¿¿¿¿¿¿¿¿¿¿yztc=FyhWƒ¤‚˜’££££££ ¡™Œœƒjm‰xYI\kvn`¿¿¿¿¿¿¿¿¿¿utˆŠ•tZzhW„v’£££££££££¢£Šnozx[COgxn`¿¿¿¿¿¿¿¿¿Ut–—_pfVƒ}QS’££££££££¤¤¤‚<KqxZCKc{n`¿¿¿¿¿¿¿¿¿€‰—‹Œ|XTxgV’‹Uj’££££££œŸ—¤¤…LX‚|_DI_€n]¿¿¿¿¿¿¿¿¿}–‘‚€j8H}h[xwhwxrrrrrrpqprrqrr||]CI_~n[¿¿¿¿¿¿¿¿¿¿‰‚tQ;}hZemlllllllkkllmmmlkkn|aDI]pkU¿¿¿¿¿¿¿¿¿¿r‰}iR8|hZamllllkkkkkklmmllkkn|^CIYokU¿¿¿¿¿¿¿¿¿¿Trƒ†‰fV|eVamlklkkkkkkklmmllkkn}\BK_ojU¿¿¿¿¿¿¿¿¿Px‹‡–`xhWfmkkkkkkkkkklmmmlkln€`@5YocU¿¿¿¿¿¿¿¿¿ˆ‘“š…cphWflkkkkkkkkkllmmmmmln€`@5YocU¿¿¿¿¿¿¿¿¿‹“‘ˆ‰ƒk^qhWfX9Xk9kkkkklklllmkkn€`@5ZidV¿¿¿¿¿¿¿¿¿u‡|zb<H|hWf9k9k9kkkkkkkllkkkkn€`@<enn\¿¿¿¿¿¿¿¿¿¿i€yeS*8|gXgif9i9ikkkkkkkkkkkkn€`@?qskY¿¿¿¿¿¿¿¿¿¿¿rnllR?qgYgee9g99Xk9k9XX9XkX9n€`@?qynX¿¿¿¿¿¿¿¿¿¿¿¿~vTohWfkk9g9g9i9i9h9g9h9kl€dADzyks¿¿¿¿¿¿¿¿¿¿¿€}’…\khWdkkjg9k9h9j9h9i9i9km€bAD{zlx¿¿¿¿¿¿¿¿¿¿¿ˆ…†‹„cnhWflk9i99XiXj9hX9Xi9km€aA@xzb‚¿¿¿¿¿¿¿¿¿¿¿„€xk^pfWalkjejjjk9i9kjjh999m€dA:uzm…¿¿¿¿¿¿¿¿¿¿¿V|zv`On^T`lkkkkkkkki9kkkkg9km`?&l{o„¿¿¿¿¿¿¿¿¿¿¿¿HuqADn`V`lkkkkkkkjjkkkkkkkkm€`? f~mr¿¿¿¿¿¿¿¿¿¿¿¿¿¿dc[o]T`mkkkkkkkkjjkkkkkkkm€`U?IqkW¿¿¿¿¿¿¿¿¿¿¿¿¿¿nkZnZQbmlkklkkkkjjjkkkkkkk|ZL¿3\X,¿¿¿¿¿¿¿¿¿¿¿¿¿„zrSmWNfmllllkkkkkjjkkkkkkg|XK¿¿¿¿¿¿¿¿¿¿¿¿¿¿¿¿¿¿ˆ„rSmVN^hihhhhhghhhhhhhhhhiwUL¿¿¿¿¿¿¿¿¿¿¿¿¿¿¿¿¿¿Š‡rSlTQIIIGDGGFBFGGGGGGB??AVTQ¿¿¿¿¿¿¿¿¿¿¿¿¿¿¿¿¿¿¿reQlQQ‚Š‘‰QQQQQQQQQRRR\ˆcQJ¿¿¿¿¿¿¿¿¿¿¿¿¿¿¿¿¿¿¿¿¿TkQQ¸ª³¬MPPQQPPQQQQQbÂ²Ğ€J;¿¿¿¿¿¿¿¿¿¿¿¿¿¿¿¿¿¿¿¿¿¿S>?5>>=><:<<::>=??@@9<89>R¿¿¿¿¿¿¿¿¿¿¿¿¿¿¿¿¿¿¿¿¿¿¿¿¿¿¿¿¿¿¿¿¿¿¿¿¿¿¿¿¿¿¿¿¿¿¿¿¿¿¿¿¿¿¿¿¿¿¿¿¿¿¿¿¿¿¿¿¿¿¿¿¿¿¿¿¿¿¿¿¿¿¿¿¿¿¿¿¿¿¿¿¿¿¿¿¿¿¿¿¿¿¿¿¿                                                                                                                                                                                                                                                                                                                                                                                                                                                                                                                                                                                                