/* XPM */
static char * memo_xpm[] = {
"40 40 65 1",
" 	c None",
".	c #020202",
"+	c #EEEEEE",
"@	c #9A9A9A",
"#	c #4E4E4E",
"$	c #363636",
"%	c #828282",
"&	c #262626",
"*	c #B2B2B2",
"=	c #727272",
"-	c #1A1A1A",
";	c #DADADA",
">	c #626262",
",	c #121212",
"'	c #3E3E3E",
")	c #C2C2C2",
"!	c #F2F2F2",
"~	c #5A5A5A",
"{	c #F6F6F6",
"]	c #929292",
"^	c #424242",
"/	c #2A2A2A",
"(	c #FAFAFA",
"_	c #C6C6C6",
":	c #0E0E0E",
"<	c #525252",
"[	c #6E6E6E",
"}	c #464646",
"|	c #A6A6A6",
"1	c #7A7A7A",
"2	c #2E2E2E",
"3	c #CACACA",
"4	c #0A0A0A",
"5	c #8A8A8A",
"6	c #FEFEFE",
"7	c #CECECE",
"8	c #BABABA",
"9	c #E6E6E6",
"0	c #1E1E1E",
"a	c #666666",
"b	c #5E5E5E",
"c	c #D6D6D6",
"d	c #A2A2A2",
"e	c #565656",
"f	c #DEDEDE",
"g	c #060606",
"h	c #161616",
"i	c #AEAEAE",
"j	c #323232",
"k	c #767676",
"l	c #E2E2E2",
"m	c #4A4A4A",
"n	c #D2D2D2",
"o	c #868686",
"p	c #7E7E7E",
"q	c #969696",
"r	c #BEBEBE",
"s	c #9E9E9E",
"t	c #222222",
"u	c #B6B6B6",
"v	c #8E8E8E",
"w	c #6A6A6A",
"x	c #3A3A3A",
"y	c #EAEAEA",
"z	c #AAAAAA",
"               [[mj-0jma                ",
"             4.............[            ",
"          e.......h&0:.......m          ",
"         .....2<~~>>b>~#x0.....1        ",
"       >....'>=wb+66qebeb~#2..g.e       ",
"      j...$bpv5a66r(6n~~~##e^0::.j      ",
"     j...m1](66!67eey)~e~e#}mmjhhg2     ",
"    >...bp1(6yl66)e5%~a~b~e#}''/0&g'    ",
"   >...*6666([~r;596]>u>~~ee}x2'0t&.e   ",
"   ...o66l(6)e]na]6ie16se~~<m^!6l0//,   ",
"  e../!65#1_py661q6za(66~~~<#6666{-$&^  ",
"  ...b66=k3~5665o76+(6(6re~ml6l'f6o/$&  ",
" =..#bl6+66wq66]r((6{66(6ee]66$&$66:}j  ",
" ...b~)666b>76((6666l)c66q<66#'/k66.m^$ ",
" ..x>ee+66=|6{{{6685k>en6lu6u'$'66[.2ej ",
" ..me~>e6(66((6675%opaa!6666#}2y66:g&~^ ",
"a..<eeeb]66{{6c5%%1p@l66((65m$@6(2,h.<e ",
"m.heee>~e76((|ak=sn66{8~n6lm^b66m-0-.#be",
"2.&<<#~b~e66c<18(66!sae<(6~#'66s,t0,.e>e",
"h.2#}e~eeb@6{96667kb~eb+6n}xz6+-/0hh.#a~",
"h./m}#e~~be96667~~~~%l666#m#66j/&0-:.#=~",
"/.&m^m#e~~e1668~ee5966(6sm'!6}&t&0-:.b=e",
"m.0'^^}<e~b<y6v<[3663p66mxo6)tj&0h,..a=>",
"a..$$'m}#e<~p6{c66(p<[65^^66+&&0-0:..[= ",
" ..2$x'^##<#e(666s~#}66^j+6(6200-:g..p1 ",
" ..t$$$'^m}#^r66~mm'f6@/o6({6a:-hg..}o% ",
" ...jj$$$'^}^=6r2^#y66/x6{((68.,,...v|o ",
" a..&//j$$x'x^66@)666kh66({{66:4....*dp ",
"  ..:&t/j2$x$/n666((6)n6+(({6{^....@3s  ",
"  #.g-0&t&j2$&q((({{{6((({66(b....2n85  ",
"   .:h-00t&&/0a6{{({({6{66(q...g..ffr   ",
"   =.-0,-0000h}6(({({((6(s.......8ln%   ",
"    m.00.:---,'66({(66!v........z!fs    ",
"     /.t0..,h.j6({66;kg........8yfu     ",
"      /g224...}66(_m.........:7fnu      ",
"       '.jx2..m6_4..........%3fnd       ",
"         -&x}$...........h1*_r*p        ",
"          ^&j#<#}'$j2'<w1odsdv          ",
"            #x$}e>w[[=1=[p51            ",
"                e<<~~>ee                "};
