/* XPM */
static char * sync_xpm[] = {
   "27 24 7 1",
   " 	c None",
   ".	c #020043",
   "+	c #6B0000",
   "@	c #002EC9",
   "#	c #9D0505",
   "$	c #F71711",
   "%	c #00A0FF",
   "                           ",
   "           ++++            ",
   "        ++++     .         ",
   "       +#+      .@..       ",
   "      +#+      .%@@@.      ",
   "     +#+      .%@%@@@.     ",
   "    +#+    . .%@%@@@@@.    ",
   "    +#+    ..%%%@..@@@.    ",
   "   +##+    .%%%..  .@@@.   ",
   "   +#+     .%%%.    .@@.   ",
   "   +#+     ......   .@@.   ",
   "   +#+               .@.   ",
   "   +#+               .@.   ",
   "   +##+   ++++++     .@.   ",
   "   +##+    +$$$+     .@.   ",
   "   +###+  ++$$$+    .@@.   ",
   "    +###++#$$$++    .@.    ",
   "    +#####$#$+ +    .@.    ",
   "     +###$#$+      .@.     ",
   "      +###$+      .@.      ",
   "       ++#+      .@.       ",
   "         +     ....        ",
   "            ....           ",
   "                           "
};

