/* XPM */
static char * jpilot_xpm[] = {
"24 32 17 1",
" 	c None",
".	c #FFFF00",
"+	c #666667",
"@	c #4C4C4C",
"#	c #000000",
"$	c #191919",
"%	c #7F7F00",
"&	c #FFFFFF",
"*	c #999999",
"=	c #333333",
"-	c #B2B2B2",
";	c #7F7F7F",
">	c #E5E5E5",
",	c #CCCCCC",
"'	c #00FFFF",
")	c #7F0000",
"!	c #007F7F",
"         #$===$         ",
"        #$@++@=$        ",
"        $@++@++$#       ",
"       #=+@@->,+@#      ",
"       #@+@*&&>-,#      ",
"       $@+@,&&>,-$      ",
"       $+@@>&>;-;#      ",
"      #=+%@--;%;$#$$#   ",
"      $=+.*.;%.*%@%.%$# ",
"      $@@%.%.......-..=#",
"     #=+@+.*;%%%*.....%=",
"     #@++*...%$#$)%.*..@",
"    #=+@+,-.%$   ##$=%%%",
"   #$+@++>>--$        ##",
"   $@@++;>&&,$   #$$$## ",
"  #=++@@;&&&>$   $;**;=#",
"  $@+@@@-&&&>=#  +--'-+#",
" #=+++@@,&,>&+=#$*'-,,= ",
" $@+@+@;&&*->*@@%*---;$ ",
"#$@++@@*>-+@;*@+*'**;=# ",
"#@+@@+@++@+@@*@+-,*++=# ",
"$@@@+;+@+@++;-++,,,*@=$#",
"=@+@%.%+++@,,*+=!*-*%.*$",
"=+@@*..%.%,&&-*#$%...%=#",
"=++..-...*>&&&>$+.-..%  ",
"@@;......->&&&&%.....=  ",
"=+@...*.%,&&&&-%...%=#  ",
"=+@%.*...>&&&&*..;%$#   ",
"$++@;.*..>&&>-%.%$#     ",
"#=@+%...*&>,;*..$       ",
" #===%.*+*@$$%%=        ",
"  ##$)%%$##  #$#        "};
